{"glyphs":{"0":{"ha":579,"x_min":40,"x_max":540,"o":"m 40 411 q 99 726 40 618 q 293 833 158 833 q 484 737 428 833 q 540 444 540 640 q 528 246 540 332 q 485 103 515 160 q 407 17 456 46 q 286 -12 358 -12 q 167 15 214 -12 q 91 97 119 43 q 51 229 63 150 q 40 411 40 308 m 161 403 q 167 257 161 317 q 189 160 174 197 q 228 107 204 124 q 289 90 253 90 q 391 174 360 90 q 422 446 422 258 q 397 661 422 589 q 299 733 371 733 q 190 646 219 733 q 161 403 161 558 z "},"1":{"ha":579,"x_min":39,"x_max":540,"o":"m 96 692 q 84 726 89 707 q 79 765 79 744 q 114 785 79 774 q 194 807 149 796 q 282 826 239 818 q 343 833 325 833 q 361 831 351 833 q 375 826 371 829 l 357 107 l 460 107 q 490 107 475 107 q 517 108 506 107 q 540 111 531 110 q 538 26 540 53 q 517 0 535 0 l 42 0 q 40 39 40 17 q 39 78 39 61 q 58 92 39 86 q 107 101 78 99 q 172 106 136 104 q 239 107 207 107 l 254 717 q 210 712 236 715 q 158 704 183 708 q 96 692 129 699 z "},"2":{"ha":579,"x_min":40,"x_max":539,"o":"m 82 676 q 70 722 72 699 q 68 760 68 744 q 88 785 68 772 q 140 809 107 799 q 219 826 174 819 q 314 833 264 833 q 413 821 374 833 q 476 784 453 808 q 510 725 500 760 q 519 644 519 690 q 487 508 519 572 q 405 382 454 444 q 297 253 356 319 q 189 107 239 186 l 375 107 q 432 108 403 107 q 485 111 461 108 q 539 117 513 114 q 536 26 539 53 q 515 0 533 0 l 44 0 q 41 19 42 8 q 40 35 40 29 q 42 60 40 49 q 47 81 43 71 q 58 104 51 92 q 74 133 64 117 q 175 275 119 210 q 278 400 231 340 q 359 515 326 460 q 392 629 392 571 q 367 699 392 674 q 285 725 343 725 q 174 711 231 725 q 82 676 117 697 z "},"3":{"ha":579,"x_min":58,"x_max":524,"o":"m 340 418 q 411 401 378 414 q 469 363 444 388 q 509 300 494 338 q 524 211 524 263 q 500 59 524 125 q 435 -51 476 -7 q 335 -117 393 -94 q 210 -139 278 -139 q 97 -119 132 -139 q 61 -71 61 -99 q 67 -22 61 -40 q 76 13 72 -3 q 213 -31 126 -31 q 353 37 304 -31 q 403 208 403 104 q 384 281 403 253 q 335 324 365 308 q 265 346 304 340 q 182 351 225 351 l 179 424 q 316 521 268 465 q 364 635 364 576 q 360 666 364 650 q 347 695 357 682 q 317 717 336 708 q 264 725 297 725 q 158 712 207 725 q 74 676 110 699 l 74 675 q 60 719 63 696 q 58 758 58 743 q 123 810 58 786 q 299 833 188 833 q 391 820 354 833 q 450 784 428 807 q 482 731 472 761 q 492 668 492 701 q 479 590 492 626 q 445 522 467 553 q 397 465 424 490 q 340 418 369 439 z "},"4":{"ha":579,"x_min":39,"x_max":547,"o":"m 439 286 q 477 286 458 286 q 511 288 496 286 q 542 290 528 289 q 544 281 543 286 q 547 268 546 275 q 547 250 547 261 q 538 201 546 222 q 510 181 529 181 l 439 181 l 439 36 q 437 15 439 22 q 424 5 435 8 q 391 1 414 1 q 326 0 368 0 l 326 181 l 75 181 q 46 229 53 201 q 39 281 39 257 q 53 338 39 297 q 90 431 67 379 q 144 543 114 483 q 206 657 174 603 q 269 756 238 711 q 328 822 301 800 q 379 842 351 842 q 416 837 400 842 q 443 825 432 832 l 439 286 m 326 286 l 342 686 q 285 608 317 657 q 225 503 254 560 q 172 390 196 447 q 136 286 147 333 l 326 286 z "},"5":{"ha":579,"x_min":47,"x_max":526,"o":"m 524 833 q 522 782 524 801 q 513 751 519 763 q 495 736 507 740 q 464 732 483 732 q 403 733 447 732 q 313 735 358 733 q 194 738 257 736 l 174 529 q 200 533 181 531 q 254 536 219 536 q 342 528 294 536 q 431 493 390 521 q 499 413 472 465 q 526 269 526 360 q 508 101 526 176 q 449 -27 489 26 q 349 -110 410 -81 q 206 -139 289 -139 q 133 -133 164 -139 q 84 -117 103 -126 q 56 -99 65 -108 q 47 -82 47 -89 q 50 -31 47 -50 q 60 10 53 -11 q 194 -33 107 -33 q 292 -10 251 -33 q 358 53 332 14 q 395 142 383 92 q 407 246 407 193 q 392 344 407 306 q 348 403 376 382 q 280 433 319 425 q 192 442 240 442 q 113 435 149 442 q 58 424 78 429 l 99 833 l 524 833 z "},"6":{"ha":579,"x_min":43,"x_max":543,"o":"m 368 868 q 283 848 322 868 q 217 785 244 828 q 172 674 189 742 q 151 510 156 606 q 229 585 183 560 q 342 610 275 610 q 487 547 431 610 q 543 340 543 485 q 476 75 543 161 q 279 -11 410 -11 q 152 19 199 -11 q 81 108 106 50 q 50 247 57 165 q 43 428 43 328 q 67 688 43 583 q 134 857 92 793 q 234 948 176 921 q 358 975 292 975 q 415 973 388 975 q 463 965 442 971 q 497 951 485 960 q 510 928 510 942 q 508 889 510 911 q 499 847 506 867 q 440 863 472 857 q 368 868 407 868 m 308 506 q 151 403 217 506 l 151 394 q 182 160 149 232 q 285 89 215 89 q 348 106 321 89 q 394 154 375 124 q 422 226 413 185 q 432 317 432 268 q 401 457 432 408 q 308 506 369 506 z "},"7":{"ha":579,"x_min":61,"x_max":561,"o":"m 561 833 q 442 588 497 708 q 344 349 388 468 q 271 113 301 231 q 226 -122 240 -4 q 137 -117 163 -122 q 111 -92 111 -111 q 158 138 125 18 q 232 369 190 257 q 320 576 274 481 q 407 736 367 672 q 284 733 367 733 q 93 732 201 732 q 67 763 74 732 q 61 833 61 794 l 561 833 z "},"8":{"ha":579,"x_min":43,"x_max":543,"o":"m 290 981 q 383 971 338 981 q 462 935 428 961 q 517 866 496 910 q 538 756 538 822 q 524 674 538 710 q 490 608 511 638 q 442 556 469 579 q 388 513 415 532 q 426 481 407 497 q 461 449 446 465 q 522 362 501 408 q 543 253 543 315 q 528 150 543 199 q 483 66 514 101 q 408 10 453 31 q 301 -11 363 -11 q 183 10 232 -11 q 103 67 135 31 q 58 151 72 103 q 43 256 43 200 q 89 414 43 346 q 201 522 135 482 q 151 558 175 540 q 111 596 128 576 q 68 662 83 624 q 53 742 53 700 q 72 847 53 801 q 124 922 92 892 q 199 966 156 951 q 290 981 242 981 m 371 396 q 334 428 354 413 q 292 460 314 444 q 190 380 232 429 q 149 261 149 331 q 188 142 149 186 q 294 97 226 97 q 396 139 358 97 q 433 256 433 181 q 415 343 433 313 q 371 396 396 374 m 306 874 q 208 844 249 874 q 167 749 167 814 q 221 636 167 679 q 256 605 235 621 q 304 571 278 589 q 395 649 357 606 q 433 751 433 693 q 422 807 433 783 q 394 845 411 831 q 353 867 376 860 q 306 874 331 874 z "},"9":{"ha":579,"x_min":38,"x_max":540,"o":"m 178 -36 q 290 -10 244 -36 q 364 63 335 15 q 408 174 393 110 q 428 315 422 238 q 351 242 396 267 q 240 218 307 218 q 160 236 197 218 q 95 290 122 254 q 53 377 68 325 q 38 497 38 429 q 104 761 38 676 q 301 846 171 846 q 422 824 376 846 q 494 751 468 801 q 528 617 519 700 q 540 413 538 533 q 455 -8 538 129 q 192 -144 372 -144 q 103 -134 140 -144 q 67 -99 67 -124 q 70 -60 67 -82 q 76 -22 74 -37 q 178 -36 124 -36 m 274 322 q 358 346 318 322 q 432 422 397 369 l 432 431 q 427 567 432 508 q 408 666 422 626 q 369 726 394 706 q 303 746 344 746 q 190 688 232 746 q 149 511 149 629 q 182 371 149 419 q 274 322 215 322 z "}," ":{"ha":218,"x_min":0,"x_max":0,"o":""},"#":{"ha":579,"x_min":38,"x_max":542,"o":"m 443 264 l 439 171 q 415 151 438 154 q 339 149 392 149 l 344 264 l 213 264 l 208 171 q 184 151 207 154 q 108 149 161 149 l 114 264 l 38 264 q 40 335 38 317 q 61 353 43 353 l 119 353 l 126 500 l 38 500 q 40 571 38 553 q 61 589 43 589 l 132 589 l 136 676 q 160 696 138 693 q 236 699 183 699 l 231 589 l 363 589 l 367 676 q 391 696 368 693 q 467 699 414 699 l 461 589 l 542 589 q 539 518 542 536 q 519 500 536 500 l 456 500 l 449 353 l 542 353 q 539 282 542 300 q 519 264 536 264 l 443 264 m 218 353 l 350 353 l 357 500 l 225 500 l 218 353 z "},"$":{"ha":579,"x_min":72,"x_max":504,"o":"m 226 -10 q 109 15 146 -6 q 72 51 72 36 q 74 67 72 56 q 81 93 76 79 q 90 120 85 107 q 103 142 96 133 q 160 113 124 125 q 250 101 196 101 q 347 132 315 101 q 379 219 379 163 q 363 290 379 258 q 303 365 346 321 l 147 524 q 91 602 108 564 q 74 678 74 640 q 119 798 74 753 q 250 854 165 843 l 250 978 q 276 1015 250 1007 q 353 1024 303 1024 l 353 856 q 464 833 432 850 q 496 807 496 817 q 490 771 496 794 q 468 728 483 747 q 417 747 454 738 q 332 757 381 757 q 233 740 269 757 q 197 679 197 724 q 212 625 197 650 q 257 568 226 600 l 425 400 q 485 315 467 358 q 504 218 504 272 q 496 142 504 178 q 467 76 488 106 q 413 26 446 47 q 329 -4 379 4 l 329 -125 q 304 -162 329 -154 q 226 -169 279 -169 l 226 -10 z "},"%":{"ha":960,"x_min":61,"x_max":899,"o":"m 61 729 q 113 922 61 861 q 258 983 164 983 q 339 972 304 983 q 397 931 374 960 q 431 853 419 901 q 443 731 443 804 q 394 533 443 596 q 250 471 344 471 q 169 481 204 471 q 109 518 133 490 q 73 597 85 546 q 61 729 61 647 m 169 726 q 175 640 169 674 q 191 589 181 607 q 217 565 201 571 q 253 558 232 558 q 287 567 271 558 q 314 594 303 575 q 332 647 325 614 q 339 729 339 679 q 334 813 339 781 q 319 864 329 846 q 294 889 308 882 q 258 896 279 896 q 222 888 238 896 q 194 861 206 881 q 176 809 182 842 q 169 726 169 776 m 517 246 q 568 439 517 378 q 714 500 619 500 q 794 488 760 500 q 852 447 829 476 q 887 369 875 418 q 899 247 899 321 q 849 50 899 113 q 706 -12 800 -12 q 624 -3 660 -12 q 565 35 589 7 q 528 113 540 63 q 517 246 517 164 m 624 240 q 629 154 624 188 q 645 103 635 121 q 671 78 656 85 q 707 72 686 72 q 769 108 744 72 q 794 243 794 144 q 790 327 794 294 q 774 378 785 360 q 749 403 764 396 q 713 410 733 410 q 676 402 692 410 q 648 376 660 394 q 630 324 636 357 q 624 240 624 290 m 231 -11 q 196 1 211 -6 q 172 15 182 7 q 161 32 161 22 l 721 985 q 753 971 738 978 q 774 956 764 964 q 785 936 785 947 q 761 890 785 932 q 698 780 738 847 q 608 628 658 713 q 507 456 558 543 q 231 -11 385 249 z "},"&":{"ha":697,"x_min":36,"x_max":676,"o":"m 315 981 q 466 960 408 981 q 524 915 524 940 q 516 872 524 896 q 496 832 508 847 q 416 870 456 860 q 329 881 376 881 q 280 877 303 881 q 240 863 257 874 q 213 831 222 851 q 203 775 203 810 q 226 679 203 738 q 289 553 250 621 q 376 414 328 485 q 475 279 425 343 q 484 348 482 315 q 486 404 486 381 q 462 581 486 514 q 403 689 438 647 q 444 695 421 693 q 489 698 467 697 q 531 699 511 699 q 563 700 550 700 q 620 699 594 700 q 669 696 646 699 q 672 681 671 693 q 674 654 674 669 q 664 619 674 633 q 615 604 654 604 l 547 604 q 563 575 554 592 q 578 533 571 558 q 591 474 586 508 q 596 390 596 439 q 589 293 596 350 q 561 178 582 236 q 626 113 596 139 q 676 76 656 86 q 667 43 675 60 q 648 14 658 26 q 625 -6 638 1 q 603 -14 613 -14 q 565 10 592 -14 q 501 74 538 33 q 417 10 467 35 q 294 -14 367 -14 q 168 7 218 -14 q 89 63 118 28 q 48 142 60 97 q 36 236 36 188 q 49 318 36 279 q 83 390 61 357 q 133 451 104 424 q 192 497 161 478 q 113 656 143 581 q 83 789 83 732 q 144 932 83 883 q 315 981 206 981 m 428 160 q 334 281 382 215 q 242 415 286 346 q 177 342 201 386 q 153 233 153 299 q 159 182 153 207 q 181 137 165 157 q 223 105 197 117 q 288 93 249 93 q 372 112 338 93 q 428 160 406 131 z "},"'":{"ha":196,"x_min":43,"x_max":154,"o":"m 125 814 q 114 813 124 813 q 93 811 104 813 q 63 810 79 810 q 60 834 63 813 q 54 885 57 856 q 49 949 51 915 q 44 1013 46 983 q 43 1063 43 1043 q 47 1086 43 1083 q 64 1090 53 1089 q 90 1092 75 1092 q 126 1091 108 1092 q 154 1088 143 1090 q 151 1013 154 1058 q 143 925 147 968 q 134 849 139 882 q 125 814 129 817 z "},"(":{"ha":406,"x_min":90,"x_max":376,"o":"m 206 449 q 222 225 206 328 q 263 41 238 122 q 319 -99 289 -40 q 376 -187 349 -157 q 356 -249 369 -226 q 314 -271 342 -271 q 268 -229 304 -271 q 192 -100 232 -187 q 122 122 153 -12 q 90 444 90 257 q 122 744 90 618 q 194 953 154 871 q 270 1076 235 1036 q 314 1115 306 1115 q 354 1100 342 1115 q 376 1043 367 1085 q 314 945 344 1001 q 260 815 283 889 q 221 649 236 740 q 206 449 206 558 z "},")":{"ha":406,"x_min":29,"x_max":315,"o":"m 200 449 q 186 642 200 551 q 149 808 172 732 q 94 943 125 883 q 29 1043 63 1003 q 51 1100 39 1085 q 92 1115 64 1115 q 135 1077 100 1115 q 211 958 171 1039 q 283 749 251 876 q 315 444 315 622 q 284 135 315 268 q 213 -89 253 1 q 138 -225 174 -179 q 92 -271 101 -271 q 50 -249 64 -271 q 29 -187 36 -226 q 88 -92 57 -150 q 143 44 118 -35 q 184 224 168 124 q 200 449 200 325 z "},"*":{"ha":653,"x_min":22,"x_max":631,"o":"m 358 721 q 347 699 356 706 q 307 700 338 693 l 275 926 q 285 950 274 943 q 317 957 297 957 q 352 952 333 957 q 386 940 371 947 l 358 721 m 597 799 q 622 765 613 786 q 631 724 631 743 q 626 698 631 708 q 610 685 621 688 l 389 632 q 374 667 371 656 q 392 688 376 679 l 597 799 m 276 676 q 269 642 279 651 q 243 638 258 632 l 22 699 q 30 743 22 724 q 49 774 38 763 q 73 790 60 786 q 96 790 86 794 l 276 676 m 346 560 q 344 583 339 575 q 376 603 349 592 l 536 415 q 540 391 546 403 q 521 369 535 379 q 489 351 507 358 q 454 340 471 343 l 346 560 m 260 588 q 311 576 285 613 l 189 360 q 166 347 179 346 q 138 359 153 349 q 111 385 124 369 q 92 417 99 401 l 260 588 z "},"+":{"ha":579,"x_min":47,"x_max":533,"o":"m 340 342 l 340 171 q 317 151 340 154 q 242 149 294 149 l 242 342 l 47 342 q 50 417 47 394 q 71 440 53 440 l 242 440 l 242 611 q 265 632 242 629 q 340 635 288 635 l 340 440 l 533 440 q 531 365 533 388 q 511 342 528 342 l 340 342 z "},",":{"ha":254,"x_min":53,"x_max":207,"o":"m 60 76 q 79 128 60 107 q 131 149 99 149 q 207 65 207 149 q 193 -10 207 28 q 161 -77 179 -47 q 125 -125 143 -107 q 97 -143 107 -143 q 69 -136 82 -143 q 53 -111 57 -129 q 72 -75 65 -90 q 83 -47 79 -60 q 89 -20 88 -33 q 92 8 90 -7 q 60 76 60 28 z "},"-":{"ha":386,"x_min":51,"x_max":335,"o":"m 51 342 q 54 417 51 394 q 74 440 57 440 l 335 440 q 332 365 335 388 q 311 342 329 342 l 51 342 z "},".":{"ha":254,"x_min":51,"x_max":207,"o":"m 51 71 q 72 127 51 103 q 129 151 92 151 q 190 129 172 151 q 207 71 207 107 q 186 15 207 38 q 129 -8 165 -8 q 68 13 85 -8 q 51 71 51 33 z "},"/":{"ha":465,"x_min":14,"x_max":451,"o":"m 139 0 q 132 -15 136 -10 q 115 -24 128 -21 q 79 -27 103 -26 q 14 -28 56 -28 l 326 1032 q 333 1048 329 1042 q 350 1058 338 1054 q 386 1062 363 1061 q 451 1063 410 1063 l 139 0 z "},":":{"ha":254,"x_min":51,"x_max":207,"o":"m 51 536 q 72 592 51 568 q 129 617 93 617 q 190 594 172 617 q 207 536 207 572 q 186 480 207 503 q 129 457 165 457 q 68 478 85 457 q 51 536 51 499 m 51 71 q 72 127 51 103 q 129 151 93 151 q 190 129 172 151 q 207 71 207 107 q 186 15 207 38 q 129 -8 165 -8 q 68 13 85 -8 q 51 71 51 33 z "},";":{"ha":254,"x_min":47,"x_max":204,"o":"m 49 536 q 69 592 49 568 q 126 617 90 617 q 187 594 169 617 q 204 536 204 572 q 183 480 204 503 q 126 457 163 457 q 65 478 82 457 q 49 536 49 499 m 54 76 q 74 128 54 107 q 124 149 93 149 q 200 65 200 149 q 187 -10 200 28 q 156 -77 174 -47 q 119 -125 138 -107 q 92 -143 101 -143 q 64 -136 76 -143 q 47 -111 51 -129 q 65 -75 58 -90 q 76 -47 72 -60 q 83 -20 81 -33 q 86 8 85 -7 q 54 76 54 28 z "},"=":{"ha":579,"x_min":47,"x_max":533,"o":"m 47 471 q 50 547 47 524 q 71 569 53 569 l 533 569 q 531 494 533 517 q 511 471 528 471 l 47 471 m 47 213 q 50 288 47 265 q 71 311 53 311 l 533 311 q 531 235 533 258 q 511 213 528 213 l 47 213 z "},"?":{"ha":410,"x_min":26,"x_max":393,"o":"m 103 71 q 124 127 103 103 q 181 151 144 151 q 241 129 224 151 q 258 71 258 107 q 238 15 258 38 q 181 -8 217 -8 q 119 13 136 -8 q 103 71 103 33 m 200 986 q 340 938 288 986 q 393 793 393 890 q 376 683 393 731 q 335 598 360 636 q 285 527 311 560 q 239 460 258 494 q 226 426 229 443 q 222 394 222 410 q 230 335 222 361 q 231 301 238 310 q 214 292 226 296 q 187 288 201 289 q 157 288 172 288 q 129 290 142 288 q 118 318 124 303 q 111 349 114 332 q 108 389 108 367 q 113 438 108 413 q 133 489 118 463 q 180 565 156 531 q 225 630 204 599 q 259 694 246 661 q 272 765 272 726 q 263 818 272 797 q 238 851 253 839 q 201 867 222 863 q 158 872 181 872 q 84 859 113 872 q 43 838 56 846 q 31 880 36 858 q 26 926 26 901 q 42 950 26 939 q 83 969 58 961 q 139 981 108 976 q 200 986 169 986 z "},"@":{"ha":1025,"x_min":65,"x_max":963,"o":"m 846 469 q 831 647 846 575 q 781 764 817 719 q 688 828 746 808 q 544 847 631 847 q 388 823 456 847 q 274 742 319 799 q 204 590 228 685 q 181 351 181 494 q 202 97 181 194 q 265 -58 224 -1 q 369 -134 307 -114 q 511 -154 431 -154 q 697 -137 621 -154 q 835 -94 772 -121 q 857 -134 849 -112 q 865 -175 865 -156 q 842 -206 865 -190 q 774 -235 818 -222 q 665 -256 729 -247 q 521 -264 601 -264 q 342 -245 425 -264 q 197 -162 258 -226 q 101 28 136 -97 q 65 367 65 154 q 100 631 65 521 q 198 812 135 742 q 350 915 261 882 q 547 947 439 947 q 726 924 649 947 q 856 847 804 900 q 935 709 908 794 q 963 499 963 624 q 951 304 963 385 q 922 168 940 224 q 880 80 903 113 q 832 30 857 47 q 783 8 807 13 q 739 3 758 3 q 690 12 711 3 q 654 35 669 21 q 601 12 639 22 q 503 1 563 1 q 433 8 465 1 q 378 37 401 14 q 342 102 356 60 q 329 215 329 144 q 345 326 331 282 q 383 395 360 369 q 439 431 407 421 q 506 442 471 442 q 547 439 525 442 q 586 426 569 436 q 588 456 586 440 q 588 483 588 468 q 589 511 589 497 q 569 575 592 558 q 506 592 546 592 q 430 583 461 592 q 367 557 399 575 q 356 593 358 572 q 354 622 354 614 q 367 650 356 639 q 428 674 386 661 q 543 686 471 686 q 658 652 619 686 q 696 525 697 618 l 689 246 q 686 167 688 201 q 682 108 685 133 q 726 100 703 100 q 767 119 746 100 q 806 181 788 138 q 835 295 824 225 q 846 469 846 365 m 586 358 q 566 361 579 360 q 538 363 553 363 q 497 356 515 363 q 465 332 479 349 q 444 286 451 315 q 436 211 436 257 q 454 111 435 136 q 511 86 474 86 q 559 101 539 86 q 581 160 579 117 l 586 358 z "},"A":{"ha":607,"x_min":7,"x_max":601,"o":"m 424 247 l 185 247 l 131 19 q 119 3 128 8 q 78 -3 111 -3 q 47 -2 67 -3 q 7 1 26 -1 l 254 957 q 297 976 258 976 q 350 972 329 976 l 599 21 q 592 3 601 10 q 550 -3 583 -3 q 521 -3 538 -3 q 483 0 504 -3 l 424 247 m 208 350 l 400 350 l 353 547 q 337 618 344 582 q 323 690 329 654 q 312 757 317 725 q 304 814 307 789 q 296 757 301 789 q 284 690 290 725 q 271 619 278 656 q 256 547 264 582 l 208 350 z "},"B":{"ha":522,"x_min":60,"x_max":499,"o":"m 60 946 q 67 965 60 958 q 97 972 75 972 l 235 972 q 318 964 276 972 q 393 932 360 956 q 447 866 426 908 q 468 757 468 824 q 456 659 468 700 q 424 591 443 618 q 381 550 404 564 q 335 533 357 536 q 387 524 358 532 q 440 493 415 515 q 482 432 465 471 q 499 331 499 393 q 478 181 499 243 q 421 78 457 118 q 337 19 385 38 q 235 0 289 0 l 60 0 l 60 946 m 175 575 l 243 575 q 316 613 288 575 q 344 735 344 651 q 336 804 344 778 q 313 846 328 831 q 280 867 299 861 q 242 872 261 872 l 175 872 l 175 575 m 175 99 l 238 99 q 287 111 264 99 q 328 151 310 124 q 356 219 346 178 q 367 321 367 261 q 357 406 367 375 q 331 453 347 438 q 290 474 314 469 q 239 478 267 478 l 175 478 l 175 99 z "},"C":{"ha":471,"x_min":43,"x_max":447,"o":"m 317 986 q 381 979 356 986 q 420 961 406 972 q 441 937 435 950 q 447 910 447 924 q 442 872 447 890 q 429 842 436 854 q 394 864 418 851 q 339 876 371 876 q 274 861 306 876 q 218 801 243 846 q 178 673 193 757 q 163 451 163 589 q 173 278 163 346 q 201 173 183 211 q 245 123 219 135 q 301 111 271 111 q 376 125 342 111 q 429 154 410 139 q 441 122 436 140 q 446 86 446 104 q 399 16 446 46 q 274 -14 351 -14 q 182 -2 224 -18 q 109 63 140 14 q 60 203 78 111 q 43 446 43 294 q 69 731 43 624 q 134 897 94 839 q 222 970 174 954 q 317 986 271 986 z "},"D":{"ha":546,"x_min":61,"x_max":506,"o":"m 233 972 q 353 951 301 972 q 438 881 404 931 q 489 747 472 831 q 506 536 506 663 q 488 281 506 383 q 435 115 469 178 q 349 26 400 53 q 235 0 299 0 l 61 0 l 61 946 q 68 965 61 958 q 99 972 75 972 l 233 972 m 376 547 q 368 706 376 643 q 342 804 360 768 q 299 854 325 840 q 238 868 272 868 l 174 868 l 174 107 l 236 107 q 288 122 263 107 q 333 183 314 136 q 365 316 353 229 q 376 547 376 403 z "},"E":{"ha":444,"x_min":61,"x_max":417,"o":"m 413 101 q 412 45 413 65 q 409 15 411 25 q 403 3 407 6 q 390 0 399 0 l 61 0 l 61 949 q 64 960 61 954 q 72 968 67 964 q 85 972 76 972 l 417 972 q 417 917 417 938 q 415 887 417 897 q 408 874 413 876 q 396 871 404 871 l 175 871 l 175 581 l 383 581 q 383 528 383 549 q 381 496 383 507 q 375 481 379 485 q 363 476 371 476 l 175 476 l 175 101 l 413 101 z "},"F":{"ha":433,"x_min":61,"x_max":417,"o":"m 61 0 l 61 949 q 64 960 61 954 q 72 968 67 964 q 85 972 76 972 l 417 972 q 417 918 417 938 q 415 889 417 899 q 408 877 413 879 q 396 875 404 875 l 175 875 l 175 581 l 383 581 q 381 497 383 517 q 363 478 378 478 l 175 478 l 175 22 q 172 11 175 17 q 153 0 167 0 l 61 0 z "},"G":{"ha":535,"x_min":38,"x_max":489,"o":"m 335 985 q 444 964 406 985 q 483 915 483 943 q 479 878 483 896 q 468 844 475 860 q 422 869 450 860 q 358 878 393 878 q 267 858 306 878 q 205 791 229 838 q 169 666 181 744 q 158 471 158 588 q 168 274 158 347 q 196 160 178 200 q 241 109 214 121 q 301 97 268 97 q 357 110 338 97 q 382 131 376 122 l 382 475 l 281 475 l 281 547 q 307 571 281 571 l 489 571 l 488 49 q 417 8 464 28 q 299 -12 371 -12 q 179 7 229 -12 q 98 79 129 26 q 52 225 67 132 q 38 464 38 318 q 58 728 38 626 q 117 888 79 831 q 210 965 156 944 q 335 985 265 985 z "},"H":{"ha":568,"x_min":61,"x_max":507,"o":"m 394 472 l 174 472 l 174 22 q 172 9 174 14 q 160 2 171 4 q 127 0 150 0 q 61 0 104 0 l 61 949 q 63 962 61 957 q 74 969 64 967 q 108 972 85 971 q 174 972 131 972 l 174 576 l 394 576 l 394 949 q 396 962 394 957 q 408 969 397 967 q 441 972 418 971 q 507 972 464 972 l 507 22 q 506 9 507 14 q 494 2 504 4 q 460 0 483 0 q 394 0 438 0 l 394 472 z "},"I":{"ha":233,"x_min":60,"x_max":174,"o":"m 60 921 q 62 951 60 940 q 74 966 64 961 q 108 972 85 971 q 174 972 132 972 l 174 22 q 172 9 174 14 q 159 2 169 4 q 125 0 149 0 q 60 0 101 0 l 60 921 z "},"J":{"ha":425,"x_min":28,"x_max":365,"o":"m 250 921 q 252 951 250 940 q 265 966 254 961 q 299 972 275 971 q 365 972 322 972 l 365 229 q 357 133 365 178 q 327 57 349 89 q 269 6 306 25 q 175 -12 232 -12 q 103 -6 132 -12 q 58 13 75 1 q 35 40 42 25 q 28 69 28 54 q 34 107 28 92 q 46 133 40 122 q 95 101 65 115 q 160 88 125 88 q 208 99 190 88 q 235 131 226 110 q 247 183 244 151 q 250 254 250 214 l 250 921 z "},"K":{"ha":546,"x_min":58,"x_max":528,"o":"m 58 949 q 60 962 58 957 q 73 969 63 967 q 106 972 83 971 q 172 972 129 972 l 172 553 l 393 965 q 431 972 413 969 q 465 974 450 974 q 511 940 528 974 l 288 553 q 426 358 371 490 q 510 25 482 225 q 502 3 511 10 q 464 -3 493 -3 q 385 1 426 -3 q 321 271 354 164 q 229 442 288 378 q 202 463 217 454 q 172 479 188 472 l 172 22 q 170 9 172 14 q 158 2 168 4 q 124 0 147 0 q 58 0 101 0 l 58 949 z "},"L":{"ha":440,"x_min":60,"x_max":413,"o":"m 174 106 l 413 106 l 413 22 q 406 4 413 8 q 389 0 400 0 l 60 0 l 60 940 q 62 959 60 953 q 75 968 64 965 q 109 972 86 971 q 174 972 132 972 l 174 106 z "},"M":{"ha":679,"x_min":60,"x_max":618,"o":"m 60 949 q 67 969 60 965 q 83 972 74 972 l 165 972 l 297 553 q 310 507 303 532 q 324 458 318 482 q 335 418 331 435 q 342 397 340 401 q 346 416 342 399 q 356 456 350 433 q 369 504 363 479 q 382 549 375 529 l 504 949 q 511 966 507 960 q 526 972 515 972 l 618 972 l 618 22 q 616 9 618 14 q 603 2 614 4 q 569 0 593 0 q 503 0 546 0 l 507 338 q 512 451 508 388 q 519 576 515 515 q 527 683 524 636 q 532 747 531 731 q 507 659 521 708 q 481 565 493 610 q 458 484 468 519 q 443 436 447 449 l 369 225 q 363 216 367 218 q 354 214 358 214 l 306 214 l 233 436 q 219 483 229 447 q 195 564 208 518 q 168 660 182 610 q 143 750 154 710 l 143 749 q 156 601 150 675 q 165 469 161 539 q 169 343 168 399 l 172 22 q 169 9 172 14 q 156 2 167 4 q 122 0 144 0 q 60 0 99 0 l 60 949 z "},"N":{"ha":617,"x_min":60,"x_max":557,"o":"m 290 382 q 264 455 281 406 q 228 562 247 504 q 190 677 208 619 q 158 775 171 735 q 164 681 161 742 q 169 556 167 619 q 172 437 171 492 q 172 360 172 382 l 172 22 q 170 9 172 14 q 158 2 168 4 q 124 0 147 0 q 60 0 101 0 l 60 949 q 83 972 60 972 l 169 972 l 325 597 q 352 520 335 569 q 389 414 369 471 q 426 301 408 357 q 457 206 444 244 l 457 210 q 451 300 453 240 q 447 423 449 360 q 444 542 444 486 q 443 622 443 597 l 443 949 q 445 962 443 957 q 458 969 447 967 q 492 972 469 971 q 557 972 515 972 l 557 22 q 533 0 557 0 l 449 0 l 290 382 z "},"O":{"ha":594,"x_min":42,"x_max":554,"o":"m 42 492 q 58 725 42 631 q 107 877 74 819 q 190 960 140 935 q 307 985 240 985 q 422 961 375 985 q 499 881 469 938 q 541 731 528 825 q 554 496 554 636 q 539 256 554 353 q 492 99 524 158 q 410 13 460 39 q 292 -12 360 -12 q 177 10 225 -12 q 99 90 129 32 q 56 244 69 147 q 42 492 42 342 m 168 464 q 174 299 168 367 q 196 187 181 231 q 235 123 211 143 q 297 103 260 103 q 360 124 335 103 q 402 192 386 144 q 425 313 418 239 q 432 493 432 386 q 426 669 432 597 q 405 785 419 740 q 366 850 390 831 q 304 869 342 869 q 242 848 268 869 q 200 778 217 826 q 176 653 183 731 q 168 464 168 576 z "},"P":{"ha":500,"x_min":60,"x_max":476,"o":"m 60 949 q 83 972 60 972 l 221 972 q 415 908 353 972 q 476 697 476 843 q 456 553 476 611 q 401 460 436 496 q 319 410 365 425 q 221 394 272 394 l 172 394 l 172 22 q 170 9 172 14 q 158 2 168 4 q 124 0 147 0 q 60 0 101 0 l 60 949 m 351 710 q 327 828 351 783 q 242 874 303 874 l 172 874 l 172 499 l 233 499 q 322 547 292 499 q 351 710 351 594 z "},"Q":{"ha":594,"x_min":42,"x_max":569,"o":"m 42 492 q 58 725 42 631 q 107 877 74 819 q 190 960 140 935 q 307 985 240 985 q 422 961 375 985 q 499 881 469 938 q 541 731 528 825 q 554 496 554 636 q 544 297 554 382 q 515 153 535 213 q 465 57 496 93 q 392 4 433 21 q 418 -74 401 -51 q 467 -97 435 -97 q 510 -92 488 -97 q 553 -74 533 -87 q 565 -104 561 -86 q 569 -135 569 -122 q 556 -162 569 -151 q 524 -180 543 -174 q 484 -188 506 -186 q 444 -190 463 -190 q 329 -148 372 -190 q 263 -11 286 -106 q 161 19 203 -7 q 93 102 119 44 q 54 255 67 160 q 42 492 42 350 m 168 464 q 174 299 168 367 q 196 187 181 231 q 235 123 211 143 q 297 103 260 103 q 360 124 335 103 q 402 192 386 144 q 425 313 418 239 q 432 493 432 386 q 426 669 432 597 q 405 785 419 740 q 366 850 390 831 q 304 869 342 869 q 242 848 268 869 q 200 778 217 826 q 176 653 183 731 q 168 464 168 576 z "},"R":{"ha":518,"x_min":60,"x_max":486,"o":"m 60 949 q 63 960 60 954 q 69 968 65 964 q 83 972 74 972 l 221 972 q 415 908 353 972 q 476 697 476 843 q 443 520 476 585 q 356 425 410 456 q 392 369 372 404 q 432 286 413 335 q 466 172 451 238 q 486 25 481 107 q 478 3 486 10 q 429 -3 469 -3 q 399 -2 415 -3 q 363 0 382 -1 q 343 154 357 88 q 313 269 329 221 q 278 348 296 317 q 249 396 261 379 q 235 394 242 394 q 221 394 228 394 l 172 394 l 172 22 q 170 9 172 14 q 158 2 168 4 q 124 0 147 0 q 60 0 101 0 l 60 949 m 351 703 q 328 828 351 782 q 242 874 304 874 l 172 874 l 172 499 l 233 499 q 322 545 292 499 q 351 703 351 592 z "},"S":{"ha":497,"x_min":35,"x_max":465,"o":"m 275 986 q 416 966 375 986 q 457 917 457 946 q 451 884 457 901 q 429 851 444 867 q 378 874 414 863 q 293 886 342 886 q 194 860 231 886 q 158 790 158 835 q 174 721 158 751 q 222 653 190 690 l 372 482 q 417 422 399 450 q 446 365 435 393 q 461 308 457 336 q 465 247 465 279 q 453 147 465 194 q 412 64 440 100 q 335 7 383 28 q 217 -14 288 -14 q 78 13 122 -14 q 35 69 35 40 q 42 108 35 86 q 64 150 49 131 q 122 116 86 131 q 207 101 157 101 q 313 140 282 101 q 343 243 343 179 q 326 331 343 290 q 263 424 308 371 l 122 586 q 56 691 75 644 q 36 786 36 738 q 97 930 36 874 q 275 986 157 986 z "},"T":{"ha":518,"x_min":11,"x_max":507,"o":"m 313 867 l 313 22 q 310 9 313 14 q 298 2 308 4 q 265 0 288 0 q 200 0 242 0 l 200 867 l 11 867 l 11 949 q 35 972 11 972 l 507 972 l 507 889 q 483 867 507 867 l 313 867 z "},"U":{"ha":607,"x_min":60,"x_max":546,"o":"m 176 281 q 181 203 176 239 q 199 143 185 168 q 240 104 214 118 q 310 90 265 90 q 380 98 346 90 q 432 115 414 106 l 432 949 q 434 962 432 957 q 447 969 436 967 q 481 972 457 971 q 546 972 504 972 l 546 36 q 456 3 519 19 q 310 -14 393 -14 q 177 10 226 -14 q 101 74 128 33 q 67 169 75 115 q 60 283 60 222 l 60 949 q 62 962 60 957 q 74 969 64 967 q 108 972 85 971 q 176 972 132 972 l 176 281 z "},"V":{"ha":583,"x_min":6,"x_max":578,"o":"m 10 939 q 8 965 6 957 q 35 972 11 972 l 126 972 l 242 435 q 273 252 260 342 q 297 96 286 163 q 318 253 306 163 q 347 435 331 343 l 450 939 q 458 964 453 956 q 479 972 464 972 l 578 972 l 364 -4 q 321 -8 340 -7 q 269 -10 301 -10 q 226 13 242 -10 q 203 71 211 35 q 178 173 192 113 q 149 302 164 233 q 117 445 133 371 q 85 590 100 519 q 10 939 49 757 z "},"W":{"ha":910,"x_min":7,"x_max":903,"o":"m 10 939 q 10 964 7 956 q 33 972 14 972 l 126 972 l 226 435 q 252 265 243 342 q 268 122 261 189 l 276 122 q 289 283 279 206 q 313 435 299 360 l 397 892 q 405 917 400 910 q 426 925 410 925 l 507 925 l 604 435 q 631 265 622 340 q 646 124 639 190 l 654 124 q 668 273 660 190 q 689 435 676 356 l 778 939 q 786 964 781 956 q 807 972 792 972 l 903 972 l 721 -4 q 695 -7 706 -6 q 675 -9 685 -8 q 654 -10 665 -10 q 626 -11 643 -11 q 587 10 601 -11 q 565 68 572 32 l 494 379 q 483 447 489 407 q 471 530 476 486 q 460 617 465 574 q 451 696 456 660 q 442 617 447 660 q 431 531 436 574 q 421 448 426 488 q 411 381 415 408 l 335 -4 q 288 -8 308 -7 q 232 -10 268 -10 q 196 14 210 -10 q 175 76 182 38 q 153 179 165 119 q 128 308 142 239 q 100 450 114 376 q 74 594 86 524 q 10 939 43 758 z "},"X":{"ha":589,"x_min":13,"x_max":582,"o":"m 372 511 l 571 19 q 560 0 582 0 l 436 0 l 361 188 q 319 298 339 243 q 288 390 300 353 q 255 299 275 354 q 211 188 235 244 l 136 14 q 110 0 128 0 l 13 0 l 224 503 l 50 953 q 49 964 47 960 q 65 970 51 968 q 106 972 78 972 q 183 972 133 972 l 239 815 q 278 699 261 756 q 307 607 296 643 q 335 698 318 642 q 376 815 353 754 l 429 954 q 433 965 431 961 q 448 970 436 968 q 483 972 460 972 q 551 972 507 972 l 372 511 z "},"Y":{"ha":506,"x_min":6,"x_max":500,"o":"m 200 393 l 8 954 q 7 965 6 961 q 21 970 8 968 q 60 972 33 972 q 136 972 88 972 l 192 782 q 213 705 201 749 q 235 619 225 661 q 251 542 244 576 q 260 492 258 507 q 269 542 261 507 q 286 619 276 576 q 308 705 296 661 q 329 782 319 749 l 378 951 q 383 964 381 960 q 398 970 386 968 q 433 972 410 972 q 500 972 457 972 l 313 401 l 313 22 q 311 9 313 14 q 299 2 310 4 q 266 0 289 0 q 200 0 243 0 l 200 393 z "},"Z":{"ha":535,"x_min":21,"x_max":511,"o":"m 61 949 q 85 972 61 972 l 500 972 q 508 956 506 964 q 511 935 511 949 q 500 885 511 907 l 146 101 l 414 101 q 458 103 438 101 q 496 111 479 104 l 496 22 q 492 6 496 13 q 472 0 488 0 l 39 0 q 26 18 32 7 q 21 44 21 29 q 32 94 21 68 l 381 871 l 122 871 q 87 870 103 871 q 61 867 71 869 l 61 949 z "},"[":{"ha":535,"x_min":168,"x_max":522,"o":"m 522 1140 q 522 1085 522 1106 q 517 1054 521 1065 q 506 1040 514 1043 q 485 1036 499 1036 l 282 1036 l 282 -171 l 521 -171 q 519 -231 521 -210 q 514 -262 518 -253 q 503 -274 510 -272 q 483 -276 496 -276 l 168 -276 l 168 1106 q 169 1124 168 1117 q 179 1134 171 1131 q 205 1139 188 1138 q 254 1140 222 1140 l 522 1140 z "},"\\":{"ha":458,"x_min":13,"x_max":444,"o":"m 442 -14 q 443 -29 444 -24 q 430 -37 442 -35 q 394 -41 418 -40 q 329 -42 371 -42 l 17 1032 q 14 1048 13 1042 q 26 1058 15 1054 q 61 1062 38 1061 q 126 1063 85 1063 l 442 -14 z "},"]":{"ha":535,"x_min":13,"x_max":367,"o":"m 13 -278 q 13 -223 13 -243 q 17 -192 14 -203 q 28 -177 21 -181 q 50 -174 36 -174 l 253 -174 l 253 1036 l 14 1036 q 15 1097 14 1075 q 21 1128 17 1118 q 32 1140 25 1138 q 51 1142 39 1142 l 367 1142 l 367 -243 q 365 -261 367 -254 q 356 -272 364 -268 q 329 -276 347 -275 q 279 -278 311 -278 l 13 -278 z "},"_":{"ha":524,"x_min":18,"x_max":504,"o":"m 18 -151 q 21 -76 18 -99 q 42 -53 24 -53 l 504 -53 q 501 -128 504 -106 q 482 -151 499 -151 l 18 -151 z "},"`":{"ha":238,"x_min":0,"x_max":238,"o":"m 194 793 q 163 811 190 793 q 101 853 135 829 q 38 901 68 878 q 0 933 8 924 q 6 961 1 946 q 18 989 11 976 q 34 1010 25 1001 q 53 1019 43 1019 q 82 1000 57 1019 q 138 953 107 981 q 197 899 168 926 q 238 856 226 871 q 226 824 232 838 q 213 803 221 813 q 194 793 204 793 z "},"a":{"ha":492,"x_min":40,"x_max":440,"o":"m 42 632 q 45 653 42 643 q 57 671 49 664 q 132 695 75 682 q 268 708 189 708 q 399 671 358 708 q 440 539 440 633 l 440 465 q 440 345 440 406 q 439 228 440 285 q 436 122 438 172 q 432 33 435 72 q 356 1 404 17 q 239 -14 307 -14 q 165 -8 201 -14 q 101 19 129 -3 q 57 84 74 42 q 40 197 40 126 q 56 314 40 269 q 98 383 72 358 q 157 417 124 408 q 225 425 190 425 q 277 422 249 425 q 326 407 306 418 l 326 517 q 304 582 326 565 q 240 599 282 599 q 138 590 188 599 q 57 568 88 581 q 44 602 47 585 q 42 632 42 619 m 326 328 q 294 338 313 335 q 261 340 276 340 q 222 335 240 340 q 189 315 203 331 q 167 273 175 300 q 158 200 158 246 q 165 139 158 163 q 183 102 171 115 q 211 85 194 89 q 249 81 228 81 q 292 88 272 81 q 322 104 313 94 q 324 148 324 121 q 326 206 325 175 q 326 268 326 236 q 326 328 326 300 z "},"b":{"ha":532,"x_min":65,"x_max":496,"o":"m 65 968 q 69 999 65 988 q 86 1015 74 1010 q 121 1020 99 1019 q 178 1021 143 1021 l 178 660 q 242 696 206 683 q 326 708 278 708 q 400 694 368 708 q 453 647 432 679 q 485 563 474 615 q 496 435 496 511 q 470 196 496 285 q 405 60 444 107 q 318 0 365 14 q 228 -14 271 -14 q 65 28 118 -14 l 65 968 m 178 104 q 203 92 188 97 q 243 86 219 86 q 283 97 261 86 q 324 142 306 108 q 356 240 343 176 q 369 410 369 304 q 346 564 369 521 q 275 607 322 607 q 178 568 221 607 l 178 104 z "},"c":{"ha":435,"x_min":43,"x_max":408,"o":"m 408 646 q 406 618 408 635 q 396 583 403 601 q 353 601 379 593 q 299 608 326 608 q 249 600 274 608 q 206 563 225 592 q 174 480 186 535 q 161 332 161 425 q 169 211 161 258 q 192 136 176 164 q 230 97 207 108 q 285 86 253 86 q 347 97 318 86 q 394 118 376 107 q 403 85 400 99 q 406 57 406 71 q 363 8 406 29 q 250 -14 319 -14 q 162 -1 200 -14 q 97 49 124 11 q 57 154 71 86 q 43 332 43 222 q 66 531 43 457 q 125 645 89 606 q 206 697 161 685 q 293 708 250 708 q 375 691 342 708 q 408 646 408 674 z "},"d":{"ha":536,"x_min":44,"x_max":469,"o":"m 357 592 q 329 606 343 603 q 293 610 315 610 q 248 599 269 610 q 209 558 226 588 q 181 474 192 528 q 171 335 171 419 q 178 208 171 257 q 199 133 185 160 q 231 97 213 106 q 275 88 250 88 q 319 92 299 88 q 357 108 340 97 l 357 592 m 357 969 q 362 999 357 989 q 379 1015 367 1010 q 413 1020 392 1019 q 469 1021 435 1021 l 469 28 q 385 -1 435 11 q 271 -14 336 -14 q 184 -3 225 -14 q 112 42 143 7 q 63 143 81 76 q 44 322 44 210 q 61 499 44 425 q 107 619 78 572 q 175 687 136 665 q 258 708 214 708 q 357 681 321 708 l 357 969 z "},"e":{"ha":501,"x_min":43,"x_max":465,"o":"m 289 708 q 465 485 465 708 q 462 390 465 439 q 450 304 458 342 q 374 293 414 297 q 294 286 333 289 q 219 283 254 283 q 160 282 185 282 q 170 190 161 226 q 194 133 179 154 q 233 104 210 113 q 289 96 257 96 q 371 108 331 96 q 447 139 411 119 q 455 101 453 124 q 457 63 457 79 q 442 32 457 46 q 400 8 426 18 q 339 -8 374 -3 q 265 -14 304 -14 q 176 -1 217 -14 q 106 47 135 11 q 60 146 76 82 q 43 311 43 210 q 65 520 43 442 q 120 640 86 599 q 199 695 154 682 q 289 708 243 708 m 276 610 q 236 599 256 610 q 201 562 217 589 q 174 490 185 535 q 161 374 164 444 q 206 374 181 374 q 256 376 231 374 q 306 381 282 378 q 349 389 331 383 q 354 431 353 408 q 356 472 356 453 q 338 578 354 547 q 276 610 321 610 z "},"f":{"ha":354,"x_min":17,"x_max":475,"o":"m 17 599 q 17 651 17 632 q 21 680 18 671 q 29 692 24 689 q 46 694 35 694 l 113 694 l 113 778 q 134 908 113 858 q 190 983 156 957 q 265 1018 224 1010 q 346 1026 306 1026 q 442 1011 410 1026 q 475 969 475 996 q 472 938 475 954 q 463 907 469 922 q 413 921 438 918 q 364 924 388 924 q 311 919 336 924 q 267 901 286 915 q 237 859 249 886 q 225 788 225 832 l 225 694 l 350 694 q 349 642 350 661 q 347 613 349 622 q 340 601 344 604 q 326 599 335 599 l 225 599 l 225 22 q 222 10 225 19 q 203 0 218 0 l 113 0 l 113 599 l 17 599 z "},"g":{"ha":546,"x_min":31,"x_max":532,"o":"m 285 708 q 317 706 299 708 q 354 697 336 703 l 521 697 q 528 676 525 690 q 532 643 532 663 q 493 600 532 600 q 443 607 474 600 q 481 546 467 583 q 496 457 496 508 q 444 280 496 346 q 271 214 392 214 q 208 219 232 214 q 183 189 194 206 q 172 158 172 172 q 185 142 172 149 q 219 132 197 136 q 272 124 242 128 q 336 115 301 119 q 411 98 378 108 q 469 69 444 88 q 506 22 493 50 q 519 -47 519 -6 q 504 -133 519 -92 q 456 -205 489 -174 q 373 -255 424 -236 q 253 -274 322 -274 q 140 -260 183 -274 q 72 -225 96 -247 q 39 -176 47 -203 q 31 -122 31 -150 q 61 -28 31 -71 q 136 44 92 14 q 73 74 96 56 q 51 121 50 93 q 76 181 53 149 q 140 246 100 214 q 73 333 92 278 q 54 454 54 388 q 71 572 54 524 q 118 651 88 621 q 191 694 149 681 q 285 708 233 708 m 281 625 q 205 587 236 625 q 174 457 174 549 q 178 390 174 419 q 193 341 182 361 q 224 310 204 321 q 276 300 244 300 q 357 346 332 300 q 382 483 382 392 q 356 592 382 560 q 281 625 331 625 m 247 26 q 235 27 240 26 q 222 29 229 28 q 169 -28 192 6 q 147 -96 147 -61 q 152 -126 147 -112 q 169 -149 157 -139 q 205 -164 182 -158 q 264 -169 228 -169 q 328 -160 301 -169 q 372 -134 354 -150 q 397 -99 389 -118 q 406 -62 406 -81 q 398 -24 406 -39 q 372 2 390 -8 q 324 18 354 13 q 247 26 293 24 z "},"h":{"ha":528,"x_min":63,"x_max":475,"o":"m 63 969 q 67 999 63 989 q 83 1015 71 1010 q 118 1020 96 1019 q 175 1021 140 1021 l 175 654 q 249 695 207 682 q 331 708 290 708 q 403 696 375 708 q 448 660 432 683 q 469 603 464 638 q 475 525 475 568 l 475 22 q 472 9 475 14 q 458 2 469 4 q 424 0 447 0 q 358 0 400 0 l 358 493 q 356 536 358 515 q 344 572 353 557 q 320 595 336 586 q 279 604 304 604 q 228 596 256 604 q 175 565 200 588 l 175 22 q 173 9 175 14 q 160 2 171 4 q 127 0 150 0 q 63 0 104 0 l 63 969 z "},"i":{"ha":243,"x_min":64,"x_max":188,"o":"m 179 22 q 177 9 179 14 q 164 2 175 4 q 130 0 153 0 q 64 0 107 0 l 64 643 q 69 673 64 663 q 87 688 74 683 q 122 694 100 693 q 179 694 144 694 l 179 22 m 65 915 q 82 976 67 953 q 131 999 97 999 q 175 981 163 999 q 186 918 188 963 q 170 851 186 875 q 122 828 154 828 q 80 847 94 828 q 65 915 65 867 z "},"j":{"ha":256,"x_min":-142,"x_max":194,"o":"m 188 -50 q 180 -136 188 -96 q 153 -207 172 -176 q 97 -255 133 -237 q 6 -272 61 -272 q -107 -252 -72 -272 q -142 -199 -142 -232 q -138 -168 -142 -183 q -125 -140 -135 -153 q -8 -168 -78 -168 q 60 -137 44 -168 q 75 -32 75 -106 l 75 643 q 80 673 75 663 q 97 688 85 683 q 131 694 110 693 q 188 694 153 694 l 188 -50 m 72 915 q 89 976 74 953 q 138 999 104 999 q 182 981 169 999 q 193 918 194 963 q 177 851 193 875 q 129 828 161 828 q 87 847 101 828 q 72 915 72 867 z "},"k":{"ha":529,"x_min":64,"x_max":493,"o":"m 64 969 q 69 999 64 989 q 86 1015 74 1010 q 121 1020 99 1019 q 178 1021 143 1021 l 178 644 q 260 691 213 674 q 351 708 307 708 q 408 699 386 708 q 444 672 431 689 q 464 634 458 656 q 469 589 469 613 q 456 510 469 546 q 425 448 443 475 q 387 402 407 421 q 354 374 367 383 q 444 293 404 351 q 492 139 483 235 q 493 117 493 128 q 493 93 493 106 q 489 22 493 60 q 485 9 488 14 q 471 2 483 4 q 433 0 458 0 q 361 0 408 0 q 365 46 364 24 q 367 89 367 68 q 365 132 367 113 q 360 171 363 151 q 313 288 347 254 q 239 314 279 322 q 219 307 229 311 q 199 299 208 303 q 178 288 188 293 l 178 22 q 176 9 178 14 q 165 2 175 4 q 131 0 154 0 q 64 0 107 0 l 64 969 m 344 550 q 293 607 344 607 q 235 590 265 607 q 178 540 206 574 l 178 368 q 297 441 250 397 q 344 550 344 485 z "},"l":{"ha":240,"x_min":64,"x_max":176,"o":"m 176 22 q 174 9 176 14 q 162 2 172 4 q 128 0 151 0 q 64 0 106 0 l 64 969 q 69 999 64 989 q 86 1015 74 1010 q 121 1020 99 1019 q 176 1021 143 1021 l 176 22 z "},"m":{"ha":782,"x_min":64,"x_max":725,"o":"m 339 540 q 325 594 338 578 q 271 610 313 610 q 176 586 222 610 l 176 22 q 174 9 176 14 q 161 2 172 4 q 127 0 150 0 q 64 0 104 0 l 64 663 q 163 696 110 683 q 274 708 215 708 q 349 697 318 708 q 399 665 379 686 q 481 697 435 685 q 569 708 526 708 q 652 695 621 708 q 699 657 683 682 q 720 596 715 632 q 725 513 725 560 l 725 22 q 723 9 725 14 q 710 2 721 4 q 676 0 699 0 q 613 0 653 0 l 613 514 q 599 586 613 564 q 544 608 586 608 q 498 603 521 608 q 451 582 475 597 l 451 22 q 450 9 451 14 q 438 2 449 4 q 405 0 428 0 q 339 0 382 0 l 339 540 z "},"n":{"ha":531,"x_min":63,"x_max":478,"o":"m 63 661 q 110 678 83 669 q 165 694 136 688 q 224 704 194 700 q 282 708 254 708 q 435 666 392 708 q 478 522 478 624 l 478 22 q 476 9 478 14 q 463 2 474 4 q 428 0 451 0 q 361 0 404 0 l 361 489 q 346 583 361 556 q 278 610 331 610 q 227 603 256 610 q 175 585 199 597 l 175 22 q 173 9 175 14 q 160 2 171 4 q 126 0 149 0 q 63 0 104 0 l 63 661 z "},"o":{"ha":511,"x_min":33,"x_max":479,"o":"m 33 347 q 94 623 33 538 q 264 708 154 708 q 359 692 318 708 q 426 635 400 676 q 466 526 453 594 q 479 351 479 457 q 421 72 479 157 q 251 -14 363 -14 q 157 -1 197 -14 q 89 49 117 11 q 47 159 61 88 q 33 347 33 231 m 156 344 q 162 207 156 258 q 181 128 168 156 q 212 91 193 100 q 254 82 231 82 q 295 93 276 82 q 328 135 314 104 q 349 217 342 165 q 357 350 357 268 q 351 484 357 433 q 333 563 344 535 q 303 600 321 590 q 260 610 285 610 q 217 599 236 610 q 185 558 199 588 q 163 477 171 529 q 156 344 156 425 z "},"p":{"ha":532,"x_min":64,"x_max":493,"o":"m 64 653 q 267 708 151 708 q 360 695 318 708 q 431 649 401 682 q 477 560 461 617 q 493 419 493 504 q 474 194 493 279 q 425 63 456 108 q 358 1 394 17 q 286 -14 321 -14 q 219 -2 247 -14 q 176 25 192 10 l 176 -264 q 147 -272 163 -269 q 118 -274 132 -274 q 76 -263 89 -274 q 64 -225 64 -253 l 64 653 m 176 133 q 211 99 192 110 q 251 88 231 88 q 288 97 268 88 q 326 139 308 106 q 356 235 343 172 q 368 407 368 299 q 361 508 368 469 q 341 570 354 547 q 308 601 328 593 q 261 610 288 610 q 176 583 214 610 l 176 133 z "},"q":{"ha":542,"x_min":43,"x_max":476,"o":"m 476 -226 q 474 -252 476 -243 q 465 -266 472 -261 q 444 -273 457 -271 q 410 -275 431 -275 q 363 -271 385 -275 l 363 47 q 231 -14 321 -14 q 164 -3 197 -14 q 103 42 131 8 q 60 138 76 76 q 43 303 43 200 q 65 496 43 418 q 126 621 88 574 q 217 688 165 668 q 328 708 269 708 q 410 698 376 708 q 476 665 444 688 l 476 -226 m 363 590 q 299 610 340 610 q 244 594 268 610 q 204 543 221 579 q 179 449 188 507 q 171 306 171 390 q 180 192 171 235 q 203 125 189 149 q 236 93 218 101 q 272 85 254 85 q 324 102 300 85 q 363 156 349 119 l 363 590 z "},"r":{"ha":365,"x_min":63,"x_max":349,"o":"m 63 646 q 151 691 103 674 q 251 708 200 708 q 326 693 304 708 q 349 650 349 678 q 346 620 349 639 q 336 583 343 601 q 269 600 304 600 q 222 592 246 600 q 178 568 197 585 l 176 22 q 174 9 176 14 q 162 2 172 4 q 128 0 151 0 q 63 0 104 0 l 63 646 z "},"s":{"ha":479,"x_min":42,"x_max":444,"o":"m 269 708 q 358 700 324 708 q 411 680 392 692 q 438 654 431 668 q 444 631 444 640 q 419 574 444 601 q 283 610 360 610 q 204 592 235 610 q 174 543 174 575 q 183 505 174 524 q 229 457 193 486 l 358 353 q 422 270 403 308 q 440 179 440 232 q 379 36 440 86 q 211 -14 318 -14 q 89 3 136 -14 q 42 57 42 21 q 46 86 42 69 q 61 122 50 103 q 200 88 121 88 q 283 110 253 88 q 313 174 313 132 q 301 228 313 201 q 257 282 289 254 l 122 397 q 59 473 75 436 q 43 544 43 510 q 98 663 43 617 q 269 708 153 708 z "},"t":{"ha":404,"x_min":25,"x_max":375,"o":"m 119 597 l 25 597 q 26 649 25 629 q 28 678 26 668 q 36 692 31 689 q 50 694 42 694 l 119 694 l 119 906 q 124 928 119 919 q 142 940 129 936 q 176 944 154 943 q 233 944 199 944 l 233 694 l 375 694 q 374 642 375 661 q 372 613 374 624 q 365 600 369 603 q 353 597 361 597 l 233 597 l 233 193 q 234 151 233 171 q 240 116 235 131 q 254 92 244 101 q 283 83 264 83 q 325 88 307 83 q 364 104 343 93 q 369 79 367 93 q 372 49 372 65 q 361 17 372 29 q 333 -1 350 6 q 294 -11 315 -8 q 253 -14 274 -14 q 182 1 208 -14 q 142 42 156 15 q 124 108 128 69 q 119 193 119 146 l 119 597 z "},"u":{"ha":542,"x_min":61,"x_max":476,"o":"m 476 36 q 381 0 436 14 q 269 -14 326 -14 q 167 0 207 -14 q 103 43 126 14 q 70 115 79 72 q 61 217 61 158 l 61 671 q 63 684 61 679 q 76 691 65 689 q 110 694 86 693 q 178 694 133 694 l 178 207 q 196 112 178 139 q 271 85 214 85 q 316 90 290 85 q 364 110 342 94 l 364 671 q 366 684 364 679 q 378 691 368 689 q 412 694 389 693 q 476 694 435 694 l 476 36 z "},"v":{"ha":478,"x_min":22,"x_max":456,"o":"m 25 660 q 24 680 22 672 q 37 690 25 688 q 74 694 49 693 q 146 694 100 694 l 190 472 q 211 356 201 418 q 228 242 221 294 q 244 121 236 181 l 247 121 q 263 243 254 182 q 278 357 269 296 q 299 474 288 418 l 336 669 q 340 684 338 679 q 355 691 343 689 q 390 694 367 693 q 456 694 413 694 l 296 -4 q 256 -8 281 -7 q 217 -8 231 -8 q 185 11 197 -8 q 167 60 174 31 l 25 660 z "},"w":{"ha":750,"x_min":19,"x_max":731,"o":"m 21 671 q 22 684 19 679 q 38 691 25 689 q 75 694 50 693 q 144 694 100 694 l 186 468 q 206 350 197 410 q 221 242 214 290 q 235 131 228 185 l 243 131 q 250 178 246 149 q 259 244 254 208 q 269 316 264 279 q 282 385 275 353 l 325 651 q 334 671 328 667 q 363 675 340 675 l 436 675 l 490 383 q 506 299 499 343 q 521 218 514 256 q 533 131 528 174 l 540 131 q 547 202 542 161 q 557 289 551 243 q 569 381 563 335 q 583 468 576 426 l 619 669 q 624 684 621 679 q 637 691 626 689 q 669 694 647 693 q 731 694 692 694 q 657 344 689 499 q 630 216 643 279 q 606 104 617 153 q 589 26 596 56 q 581 -4 582 -4 q 563 -7 574 -6 q 540 -8 553 -8 q 508 -8 526 -8 q 474 9 493 -8 q 449 64 456 26 l 431 157 q 414 247 422 200 q 399 340 406 294 q 388 428 393 386 q 381 501 383 469 q 372 427 376 469 q 360 339 367 385 q 347 247 354 293 q 331 157 339 200 l 299 -4 q 265 -7 282 -6 q 234 -8 250 -8 q 204 -8 218 -8 q 174 11 185 -8 q 156 60 163 31 q 139 135 149 92 q 118 226 129 178 q 96 327 107 275 q 74 429 85 379 q 21 671 49 546 z "},"x":{"ha":569,"x_min":21,"x_max":549,"o":"m 358 369 l 543 26 q 548 10 547 15 q 537 3 549 6 q 497 0 525 0 q 418 0 469 0 l 367 90 q 342 138 354 113 q 317 189 329 164 q 294 237 304 214 q 276 276 283 260 q 259 237 269 260 q 238 189 249 214 q 214 138 226 164 q 189 90 201 113 l 150 22 q 140 9 146 14 q 121 2 135 4 q 83 0 107 0 q 21 0 60 0 l 217 363 l 49 676 q 45 687 44 683 q 57 692 46 690 q 94 694 68 694 q 167 694 119 694 l 218 600 q 239 558 228 581 q 260 513 250 535 q 278 473 269 492 q 292 442 286 454 q 306 472 297 454 q 324 513 314 490 q 346 557 335 535 q 368 600 357 579 l 410 675 q 417 686 414 682 q 433 692 421 690 q 468 694 444 694 q 536 694 492 694 l 358 369 z "},"y":{"ha":494,"x_min":-6,"x_max":472,"o":"m 33 664 q 31 681 31 675 q 41 690 31 688 q 75 694 51 693 q 143 694 99 694 l 218 364 q 233 285 226 325 q 244 210 239 244 q 251 150 249 175 q 256 118 254 125 q 258 147 256 122 q 265 206 261 171 q 276 283 269 240 q 289 365 282 325 l 350 661 q 355 681 351 674 q 370 690 358 688 q 406 694 382 693 q 472 694 429 694 l 301 -37 q 268 -148 286 -104 q 227 -219 250 -192 q 174 -257 204 -246 q 107 -268 144 -268 q 19 -253 44 -268 q -6 -214 -6 -237 q -1 -180 -6 -199 q 11 -150 3 -161 q 50 -166 25 -160 q 99 -172 75 -172 q 158 -140 131 -172 q 200 -22 185 -108 l 33 664 z "},"z":{"ha":464,"x_min":28,"x_max":436,"o":"m 424 694 q 429 686 426 692 q 434 675 432 682 q 436 660 436 668 q 433 637 436 650 q 422 604 431 624 l 161 104 l 283 104 q 375 109 342 104 q 429 119 408 114 q 433 94 432 110 q 433 69 433 79 q 424 17 432 33 q 388 0 415 0 l 47 0 q 38 13 42 4 q 28 56 28 26 q 38 99 28 78 l 307 599 l 165 599 q 93 597 125 599 q 39 592 61 594 q 35 624 36 611 q 35 646 35 638 q 71 694 35 694 l 424 694 z "},"|":{"ha":449,"x_min":168,"x_max":282,"o":"m 282 -250 q 280 -267 282 -261 q 267 -274 278 -272 q 233 -277 256 -276 q 168 -278 210 -278 l 168 1101 q 170 1119 168 1113 q 183 1128 172 1125 q 217 1131 193 1131 q 282 1132 240 1132 l 282 -250 z "},"¡":{"ha":271,"x_min":61,"x_max":219,"o":"m 219 626 q 199 570 219 594 q 142 546 179 546 q 81 568 99 546 q 64 626 64 590 q 85 682 64 658 q 142 706 106 706 q 203 684 186 706 q 219 626 219 663 m 215 -240 q 210 -259 215 -253 q 188 -269 204 -265 q 140 -273 171 -272 q 61 -274 110 -274 l 83 354 q 90 383 85 372 q 109 398 96 393 q 144 404 122 403 q 197 406 165 406 l 215 -240 z "},"¢":{"ha":579,"x_min":115,"x_max":479,"o":"m 397 706 q 455 685 431 699 q 479 660 479 672 q 478 648 479 657 q 477 627 478 639 q 474 601 476 615 q 467 578 471 588 q 426 596 449 589 q 374 603 403 603 q 322 594 347 603 q 275 558 296 586 q 241 473 254 529 q 228 321 228 417 q 235 194 228 240 q 259 126 243 149 q 299 97 275 103 q 357 90 324 90 q 415 100 385 90 q 465 122 446 110 q 474 85 471 107 q 476 51 476 64 q 443 12 476 32 q 365 -12 410 -8 l 365 -140 q 340 -177 365 -169 q 263 -185 314 -185 l 263 -8 q 200 13 228 -3 q 153 65 172 29 q 125 162 135 101 q 115 317 115 222 q 130 488 115 418 q 169 601 144 557 q 226 667 194 644 q 294 700 258 690 l 294 821 q 321 859 294 850 q 397 868 347 868 l 397 706 z "},"¥":{"ha":579,"x_min":39,"x_max":533,"o":"m 233 244 l 53 244 q 60 317 53 296 q 97 339 68 339 l 233 339 l 233 393 l 206 474 l 53 474 q 60 547 53 525 q 97 568 68 568 l 174 568 l 42 954 q 40 965 39 961 q 54 970 42 968 q 94 972 67 972 q 169 972 121 972 l 224 782 q 245 709 233 749 q 267 632 257 669 q 283 564 276 594 q 290 518 289 533 q 299 564 292 533 q 315 632 306 594 q 337 709 325 669 q 360 782 349 749 l 411 951 q 417 964 414 960 q 431 970 419 968 q 467 972 443 972 q 533 972 490 972 l 401 568 l 525 568 q 518 495 525 517 q 482 474 511 474 l 369 474 l 346 400 l 346 339 l 526 339 q 519 266 526 288 q 482 244 511 244 l 346 244 l 346 22 q 344 9 346 14 q 333 2 343 4 q 299 0 322 0 q 233 0 276 0 l 233 244 z "},"¨":{"ha":335,"x_min":0,"x_max":335,"o":"m 0 888 q 18 937 0 915 q 68 958 36 958 q 122 939 106 958 q 138 888 138 919 q 119 837 138 857 q 68 817 100 817 q 15 835 31 817 q 0 888 0 854 m 199 888 q 216 937 199 915 q 265 958 233 958 q 319 939 303 958 q 335 888 335 919 q 317 837 335 857 q 265 817 299 817 q 213 835 228 817 q 199 888 199 854 z "},"©":{"ha":656,"x_min":49,"x_max":606,"o":"m 408 906 q 406 883 408 899 q 400 861 403 868 q 378 867 389 864 q 353 871 368 871 q 328 867 340 871 q 306 850 315 864 q 290 809 296 836 q 283 736 283 782 q 288 681 283 701 q 299 651 292 661 q 318 638 307 640 q 344 635 329 635 q 372 640 357 635 q 397 649 386 644 q 404 626 401 640 q 407 608 407 613 q 385 588 407 597 q 338 579 363 579 q 285 584 307 579 q 248 606 263 589 q 226 653 233 622 q 218 738 218 685 q 230 839 218 801 q 260 896 242 876 q 302 922 279 915 q 346 928 325 928 q 388 920 367 928 q 408 906 408 913 m 49 751 q 124 983 49 910 q 336 1056 200 1056 q 455 1040 404 1056 q 539 988 506 1024 q 589 895 572 953 q 606 754 606 838 q 534 524 606 604 q 325 444 463 444 q 205 460 257 444 q 118 513 153 476 q 66 608 83 550 q 49 751 49 667 m 135 751 q 147 644 135 688 q 183 575 160 601 q 242 538 207 549 q 322 526 278 526 q 399 539 364 526 q 462 578 435 551 q 504 649 489 606 q 519 756 519 693 q 474 926 519 874 q 335 978 428 978 q 253 966 290 978 q 190 928 217 954 q 149 858 164 901 q 135 751 135 815 z "},"«":{"ha":578,"x_min":25,"x_max":532,"o":"m 25 350 q 33 378 25 358 q 56 424 42 397 q 88 480 71 450 q 125 540 106 510 q 226 694 169 611 q 256 685 243 694 q 276 665 268 676 q 294 638 286 653 q 288 610 294 628 q 269 570 281 592 q 242 524 257 549 q 213 474 228 499 q 131 350 176 417 q 214 226 178 283 q 244 177 229 201 q 272 131 260 153 q 290 92 283 108 q 297 65 297 75 q 281 32 290 47 q 259 10 272 19 q 231 0 246 0 q 128 156 174 83 q 90 217 108 186 q 58 274 72 247 q 34 320 43 300 q 25 350 25 340 m 264 349 q 272 375 264 357 q 295 417 281 393 q 327 467 310 440 q 364 522 344 494 q 464 663 408 586 q 492 654 479 663 q 513 636 504 646 q 529 610 522 624 q 504 547 529 590 q 450 460 479 504 q 371 349 414 407 q 451 240 415 290 q 507 156 482 197 q 532 96 532 114 q 515 65 525 79 q 495 44 507 54 q 468 35 483 35 q 365 174 411 110 q 328 228 346 200 q 295 279 310 256 q 272 321 281 303 q 264 349 264 339 z "},"®":{"ha":656,"x_min":49,"x_max":606,"o":"m 49 751 q 124 983 49 910 q 336 1056 200 1056 q 455 1040 404 1056 q 539 988 506 1024 q 589 895 572 953 q 606 754 606 838 q 534 524 606 604 q 325 444 463 444 q 205 460 257 444 q 118 513 153 476 q 66 608 83 550 q 49 751 49 667 m 135 751 q 147 644 135 688 q 183 575 160 601 q 242 538 207 549 q 322 526 278 526 q 399 539 364 526 q 462 578 435 551 q 504 649 489 606 q 519 756 519 693 q 474 926 519 874 q 335 978 428 978 q 253 966 290 978 q 190 928 217 954 q 149 858 164 901 q 135 751 135 815 m 315 931 q 401 904 374 931 q 428 829 428 878 q 415 772 428 794 q 381 735 401 749 q 414 688 396 721 q 438 592 432 654 q 434 581 438 585 q 415 578 431 578 q 399 578 410 578 q 381 579 388 578 q 359 678 375 647 q 331 718 343 708 l 297 718 l 297 590 q 289 581 297 582 q 244 579 281 579 l 244 924 q 246 926 244 925 q 249 929 247 928 q 254 931 250 931 l 315 931 m 372 833 q 361 871 372 857 q 322 885 350 885 l 297 885 l 297 765 l 319 765 q 358 781 344 765 q 372 833 372 797 z "},"´":{"ha":238,"x_min":0,"x_max":238,"o":"m 43 790 q 26 800 33 790 q 13 822 18 810 q 0 854 6 836 q 54 910 24 881 q 113 963 85 939 q 161 1001 140 986 q 186 1017 182 1017 q 205 1008 196 1017 q 220 987 214 1000 q 231 959 226 974 q 238 932 236 944 q 204 903 229 922 q 149 861 179 883 q 90 819 119 839 q 43 790 61 800 z "},"·":{"ha":307,"x_min":74,"x_max":229,"o":"m 74 374 q 94 430 74 406 q 151 454 115 454 q 212 432 194 454 q 229 374 229 410 q 208 317 229 340 q 151 294 188 294 q 90 315 107 294 q 74 374 74 336 z "},"¸":{"ha":189,"x_min":0,"x_max":189,"o":"m 114 3 l 97 -81 l 121 -81 q 167 -101 146 -81 q 189 -169 189 -121 q 158 -255 189 -224 q 78 -286 126 -286 q 47 -283 61 -286 q 22 -278 33 -281 q 0 -269 10 -274 q 6 -244 3 -257 q 11 -225 8 -235 q 18 -212 14 -215 q 41 -216 25 -206 q 79 -226 57 -226 q 124 -179 124 -226 q 113 -143 124 -153 q 82 -133 101 -133 q 58 -135 68 -133 q 40 -137 47 -136 q 25 -140 32 -139 l 51 3 l 114 3 z "},"»":{"ha":575,"x_min":44,"x_max":550,"o":"m 550 350 q 541 320 550 340 q 517 274 532 300 q 485 217 503 247 q 447 156 467 186 q 344 0 401 83 q 311 15 326 6 q 288 35 299 22 q 278 65 278 47 q 285 92 278 75 q 303 131 292 108 q 331 177 315 153 q 361 226 346 201 q 444 350 397 283 q 363 474 399 417 q 332 524 347 499 q 306 570 317 549 q 288 610 294 592 q 281 638 281 628 q 291 663 281 653 q 314 681 301 674 q 349 694 329 689 q 449 540 404 611 q 485 480 467 510 q 518 424 504 450 q 541 378 532 397 q 550 350 550 358 m 311 347 q 302 319 311 338 q 278 276 293 300 q 246 224 264 251 q 208 169 228 196 q 106 31 163 104 q 75 46 89 36 q 54 65 64 53 q 44 96 44 78 q 69 156 44 115 q 125 240 94 197 q 206 347 161 290 q 197 363 207 347 q 169 403 186 379 q 131 458 151 428 q 92 518 110 489 q 61 572 74 547 q 49 610 49 596 q 58 635 49 625 q 79 653 68 646 q 110 667 93 661 q 210 525 165 590 q 247 469 228 497 q 279 417 265 442 q 302 374 293 393 q 311 347 311 356 z "},"¿":{"ha":425,"x_min":19,"x_max":386,"o":"m 310 624 q 290 567 310 592 q 232 543 269 543 q 172 565 189 543 q 154 624 154 588 q 175 680 154 657 q 232 703 196 703 q 293 682 276 703 q 310 624 310 661 m 213 -271 q 72 -223 125 -271 q 19 -78 19 -175 q 36 32 19 -15 q 77 117 53 79 q 128 188 101 156 q 174 256 154 221 q 187 289 183 272 q 190 321 190 306 q 183 380 190 354 q 182 413 175 406 q 199 422 188 418 q 226 426 211 425 q 256 427 240 428 q 283 425 271 426 q 293 397 288 413 q 301 365 297 383 q 304 326 304 347 q 299 278 304 303 q 279 226 294 253 q 233 151 257 185 q 188 85 208 117 q 155 20 168 53 q 142 -51 142 -12 q 151 -103 142 -83 q 176 -135 160 -124 q 212 -152 192 -147 q 254 -157 232 -157 q 329 -144 300 -157 q 369 -122 358 -131 q 382 -166 378 -144 q 386 -212 386 -187 q 371 -235 386 -225 q 331 -253 356 -246 q 274 -266 306 -261 q 213 -271 243 -271 z "},"À":{"ha":607,"x_min":7,"x_max":601,"o":"m 424 247 l 185 247 l 131 19 q 119 3 128 8 q 78 -3 111 -3 q 47 -2 67 -3 q 7 1 26 -1 l 254 957 q 297 976 258 976 q 350 972 329 976 l 599 21 q 592 3 601 10 q 550 -3 583 -3 q 521 -3 538 -3 q 483 0 504 -3 l 424 247 m 208 350 l 400 350 l 353 547 q 337 618 344 582 q 323 690 329 654 q 312 757 317 725 q 304 814 307 789 q 296 757 301 789 q 284 690 290 725 q 271 619 278 656 q 256 547 264 582 l 208 350 m 335 1071 q 303 1089 331 1071 q 242 1131 275 1107 q 178 1178 208 1156 q 140 1211 149 1201 q 147 1239 142 1224 q 158 1267 151 1254 q 174 1288 165 1279 q 193 1297 183 1297 q 222 1278 197 1297 q 278 1231 247 1258 q 338 1176 308 1204 q 378 1133 367 1149 q 367 1101 372 1115 q 353 1081 361 1090 q 335 1071 344 1071 z "},"Á":{"ha":607,"x_min":7,"x_max":601,"o":"m 424 247 l 185 247 l 131 19 q 119 3 128 8 q 78 -3 111 -3 q 47 -2 67 -3 q 7 1 26 -1 l 254 957 q 297 976 258 976 q 350 972 329 976 l 599 21 q 592 3 601 10 q 550 -3 583 -3 q 521 -3 538 -3 q 483 0 504 -3 l 424 247 m 208 350 l 400 350 l 353 547 q 337 618 344 582 q 323 690 329 654 q 312 757 317 725 q 304 814 307 789 q 296 757 301 789 q 284 690 290 725 q 271 619 278 656 q 256 547 264 582 l 208 350 m 281 1068 q 263 1078 271 1068 q 250 1100 256 1088 q 238 1132 243 1114 q 292 1188 261 1158 q 350 1240 322 1217 q 399 1279 378 1264 q 424 1294 419 1294 q 442 1286 433 1294 q 458 1265 451 1278 q 469 1237 464 1251 q 475 1210 474 1222 q 442 1181 467 1200 q 387 1139 417 1161 q 328 1097 357 1117 q 281 1068 299 1078 z "},"Â":{"ha":607,"x_min":7,"x_max":601,"o":"m 424 247 l 185 247 l 131 19 q 119 3 128 8 q 78 -3 111 -3 q 47 -2 67 -3 q 7 1 26 -1 l 254 957 q 297 976 258 976 q 350 972 329 976 l 599 21 q 592 3 601 10 q 550 -3 583 -3 q 521 -3 538 -3 q 483 0 504 -3 l 424 247 m 208 350 l 400 350 l 353 547 q 337 618 344 582 q 323 690 329 654 q 312 757 317 725 q 304 814 307 789 q 296 757 301 789 q 284 690 290 725 q 271 619 278 656 q 256 547 264 582 l 208 350 m 283 1275 q 307 1279 292 1279 q 342 1263 325 1279 q 408 1192 379 1225 q 455 1138 433 1164 q 476 1103 476 1111 q 451 1078 476 1088 q 396 1069 426 1069 q 357 1111 375 1092 q 327 1146 342 1128 q 306 1178 313 1164 q 263 1124 282 1147 q 228 1088 244 1104 q 201 1071 211 1071 q 154 1080 172 1071 q 126 1104 136 1089 l 283 1275 z "},"Ã":{"ha":607,"x_min":7,"x_max":601,"o":"m 424 247 l 185 247 l 131 19 q 119 3 128 8 q 78 -3 111 -3 q 47 -2 67 -3 q 7 1 26 -1 l 254 957 q 297 976 258 976 q 350 972 329 976 l 599 21 q 592 3 601 10 q 550 -3 583 -3 q 521 -3 538 -3 q 483 0 504 -3 l 424 247 m 208 350 l 400 350 l 353 547 q 337 618 344 582 q 323 690 329 654 q 312 757 317 725 q 304 814 307 789 q 296 757 301 789 q 284 690 290 725 q 271 619 278 656 q 256 547 264 582 l 208 350 m 99 1144 q 176 1226 135 1203 q 256 1249 218 1249 q 292 1238 278 1249 q 317 1216 306 1228 q 342 1194 329 1204 q 376 1183 356 1183 q 415 1192 401 1183 q 438 1210 429 1200 q 452 1228 446 1219 q 467 1236 458 1236 q 483 1226 475 1236 q 496 1204 490 1215 q 507 1174 501 1190 q 492 1152 504 1168 q 460 1119 481 1136 q 414 1088 440 1101 q 356 1075 388 1075 q 313 1085 328 1075 q 286 1108 297 1096 q 265 1131 275 1121 q 235 1142 254 1142 q 204 1133 217 1142 q 183 1115 192 1125 q 167 1096 174 1104 q 153 1088 160 1088 q 131 1096 142 1088 q 114 1115 121 1104 q 99 1144 106 1128 z "},"Ä":{"ha":607,"x_min":7,"x_max":601,"o":"m 424 247 l 185 247 l 131 19 q 119 3 128 8 q 78 -3 111 -3 q 47 -2 67 -3 q 7 1 26 -1 l 254 957 q 297 976 258 976 q 350 972 329 976 l 599 21 q 592 3 601 10 q 550 -3 583 -3 q 521 -3 538 -3 q 483 0 504 -3 l 424 247 m 208 350 l 400 350 l 353 547 q 337 618 344 582 q 323 690 329 654 q 312 757 317 725 q 304 814 307 789 q 296 757 301 789 q 284 690 290 725 q 271 619 278 656 q 256 547 264 582 l 208 350 m 139 1165 q 157 1215 139 1193 q 207 1236 175 1236 q 260 1217 244 1236 q 276 1165 276 1197 q 258 1115 276 1135 q 207 1094 239 1094 q 154 1113 169 1094 q 139 1165 139 1132 m 338 1165 q 355 1215 338 1193 q 404 1236 372 1236 q 458 1217 442 1236 q 474 1165 474 1197 q 456 1115 474 1135 q 404 1094 438 1094 q 352 1113 367 1094 q 338 1165 338 1132 z "},"Å":{"ha":607,"x_min":7,"x_max":601,"o":"m 424 247 l 185 247 l 131 19 q 119 3 128 8 q 78 -3 111 -3 q 47 -2 67 -3 q 7 1 26 -1 l 254 957 q 297 976 258 976 q 350 972 329 976 l 599 21 q 592 3 601 10 q 550 -3 583 -3 q 521 -3 538 -3 q 483 0 504 -3 l 424 247 m 208 350 l 400 350 l 353 547 q 337 618 344 582 q 323 690 329 654 q 312 757 317 725 q 304 814 307 789 q 296 757 301 789 q 284 690 290 725 q 271 619 278 656 q 256 547 264 582 l 208 350 m 167 1193 q 203 1297 167 1264 q 306 1329 240 1329 q 403 1301 372 1329 q 435 1194 435 1272 q 399 1092 435 1126 q 297 1058 364 1058 q 200 1087 233 1058 q 167 1193 167 1115 m 247 1192 q 299 1135 247 1135 q 340 1149 325 1135 q 356 1194 356 1163 q 307 1251 356 1251 q 263 1238 279 1251 q 247 1192 247 1224 z "},"Æ":{"ha":854,"x_min":24,"x_max":826,"o":"m 821 101 q 820 45 821 65 q 817 15 819 25 q 811 3 815 6 q 799 0 807 0 l 471 0 l 471 247 l 242 247 l 147 19 q 133 3 143 8 q 94 -3 124 -3 q 63 -2 83 -3 q 24 1 43 -1 l 431 953 q 467 972 439 972 l 826 972 q 826 917 826 938 q 824 887 826 897 q 818 874 822 876 q 806 871 814 871 l 583 871 l 583 581 l 793 581 q 792 528 793 549 q 790 496 792 507 q 783 481 788 485 q 771 476 779 476 l 583 476 l 583 101 l 821 101 m 285 350 l 471 350 l 471 853 q 447 776 460 817 q 422 695 435 736 q 394 615 408 654 q 367 543 379 576 l 285 350 z "},"Ç":{"ha":471,"x_min":43,"x_max":447,"o":"m 317 990 q 381 983 356 990 q 420 965 406 976 q 441 941 435 954 q 447 914 447 928 q 442 876 447 894 q 429 846 436 858 q 394 868 418 856 q 339 881 371 881 q 274 865 306 881 q 218 803 243 850 q 178 673 193 757 q 163 451 163 589 q 173 278 163 346 q 201 173 183 211 q 245 121 219 135 q 301 107 271 107 q 376 121 342 107 q 429 150 410 135 q 441 118 436 136 q 446 82 446 100 q 408 18 446 46 q 304 -17 369 -10 l 292 -81 l 315 -81 q 362 -101 340 -81 q 383 -169 383 -121 q 352 -255 383 -224 q 272 -286 321 -286 q 242 -283 256 -286 q 217 -278 228 -281 q 194 -269 204 -274 q 200 -244 197 -257 q 206 -225 203 -235 q 213 -212 208 -215 q 235 -216 219 -206 q 274 -226 251 -226 q 318 -179 318 -226 q 307 -143 318 -153 q 276 -133 296 -133 q 252 -135 263 -133 q 235 -137 242 -136 q 219 -140 226 -139 l 242 -17 q 162 8 199 -12 q 99 79 125 28 q 58 218 72 131 q 43 446 43 306 q 69 731 43 624 q 134 897 94 839 q 222 972 174 954 q 317 990 271 990 z "},"È":{"ha":444,"x_min":61,"x_max":417,"o":"m 413 101 q 412 45 413 65 q 409 15 411 25 q 403 3 407 6 q 390 0 399 0 l 61 0 l 61 949 q 64 960 61 954 q 72 968 67 964 q 85 972 76 972 l 417 972 q 417 917 417 938 q 415 887 417 897 q 408 874 413 876 q 396 871 404 871 l 175 871 l 175 581 l 383 581 q 383 528 383 549 q 381 496 383 507 q 375 481 379 485 q 363 476 371 476 l 175 476 l 175 101 l 413 101 m 285 1071 q 253 1089 281 1071 q 192 1131 225 1107 q 128 1178 158 1156 q 90 1211 99 1201 q 97 1239 92 1224 q 108 1267 101 1254 q 124 1288 115 1279 q 143 1297 133 1297 q 172 1278 147 1297 q 228 1231 197 1258 q 288 1176 258 1204 q 328 1133 317 1149 q 317 1101 322 1115 q 303 1081 311 1090 q 285 1071 294 1071 z "},"É":{"ha":444,"x_min":61,"x_max":426,"o":"m 413 101 q 412 45 413 65 q 409 15 411 25 q 403 3 407 6 q 390 0 399 0 l 61 0 l 61 949 q 64 960 61 954 q 72 968 67 964 q 85 972 76 972 l 417 972 q 417 917 417 938 q 415 887 417 897 q 408 874 413 876 q 396 871 404 871 l 175 871 l 175 581 l 383 581 q 383 528 383 549 q 381 496 383 507 q 375 481 379 485 q 363 476 371 476 l 175 476 l 175 101 l 413 101 m 232 1068 q 215 1078 222 1068 q 201 1100 207 1088 q 189 1132 194 1114 q 243 1188 213 1158 q 301 1240 274 1217 q 350 1279 329 1264 q 375 1294 371 1294 q 394 1286 385 1294 q 409 1265 403 1278 q 420 1237 415 1251 q 426 1210 425 1222 q 393 1181 418 1200 q 338 1139 368 1161 q 279 1097 308 1117 q 232 1068 250 1078 z "},"Ê":{"ha":444,"x_min":61,"x_max":428,"o":"m 413 101 q 412 45 413 65 q 409 15 411 25 q 403 3 407 6 q 390 0 399 0 l 61 0 l 61 949 q 64 960 61 954 q 72 968 67 964 q 85 972 76 972 l 417 972 q 417 917 417 938 q 415 887 417 897 q 408 874 413 876 q 396 871 404 871 l 175 871 l 175 581 l 383 581 q 383 528 383 549 q 381 496 383 507 q 375 481 379 485 q 363 476 371 476 l 175 476 l 175 101 l 413 101 m 235 1275 q 258 1279 243 1279 q 293 1263 276 1279 q 360 1192 331 1225 q 406 1138 385 1164 q 428 1103 428 1111 q 403 1078 428 1088 q 347 1069 378 1069 q 308 1111 326 1092 q 278 1146 293 1128 q 257 1178 264 1164 q 214 1124 233 1147 q 179 1088 196 1104 q 153 1071 163 1071 q 106 1080 124 1071 q 78 1104 88 1089 l 235 1275 z "},"Ë":{"ha":444,"x_min":61,"x_max":424,"o":"m 413 101 q 412 45 413 65 q 409 15 411 25 q 403 3 407 6 q 390 0 399 0 l 61 0 l 61 949 q 64 960 61 954 q 72 968 67 964 q 85 972 76 972 l 417 972 q 417 917 417 938 q 415 887 417 897 q 408 874 413 876 q 396 871 404 871 l 175 871 l 175 581 l 383 581 q 383 528 383 549 q 381 496 383 507 q 375 481 379 485 q 363 476 371 476 l 175 476 l 175 101 l 413 101 m 89 1165 q 107 1215 89 1193 q 157 1236 125 1236 q 210 1217 194 1236 q 226 1165 226 1197 q 208 1115 226 1135 q 157 1094 189 1094 q 104 1113 119 1094 q 89 1165 89 1132 m 288 1165 q 305 1215 288 1193 q 354 1236 322 1236 q 408 1217 392 1236 q 424 1165 424 1197 q 406 1115 424 1135 q 354 1094 388 1094 q 302 1113 317 1094 q 288 1165 288 1132 z "},"Ì":{"ha":233,"x_min":-44,"x_max":193,"o":"m 60 921 q 62 951 60 940 q 74 966 64 961 q 108 972 85 971 q 174 972 132 972 l 174 22 q 172 9 174 14 q 159 2 169 4 q 125 0 149 0 q 60 0 101 0 l 60 921 m 150 1071 q 118 1089 146 1071 q 57 1131 90 1107 q -6 1178 24 1156 q -44 1211 -36 1201 q -38 1239 -43 1224 q -26 1267 -33 1254 q -10 1288 -19 1279 q 8 1297 -1 1297 q 38 1278 13 1297 q 93 1231 63 1258 q 153 1176 124 1204 q 193 1133 182 1149 q 182 1101 188 1115 q 168 1081 176 1090 q 150 1071 160 1071 z "},"Í":{"ha":233,"x_min":53,"x_max":290,"o":"m 60 921 q 62 951 60 940 q 74 966 64 961 q 108 972 85 971 q 174 972 132 972 l 174 22 q 172 9 174 14 q 159 2 169 4 q 125 0 149 0 q 60 0 101 0 l 60 921 m 96 1068 q 78 1078 86 1068 q 65 1100 71 1088 q 53 1132 58 1114 q 107 1188 76 1158 q 165 1240 138 1217 q 214 1279 193 1264 q 239 1294 235 1294 q 258 1286 249 1294 q 273 1265 267 1278 q 284 1237 279 1251 q 290 1210 289 1222 q 257 1181 282 1200 q 202 1139 232 1161 q 143 1097 172 1117 q 96 1068 114 1078 z "},"Î":{"ha":233,"x_min":-58,"x_max":292,"o":"m 60 921 q 62 951 60 940 q 74 966 64 961 q 108 972 85 971 q 174 972 132 972 l 174 22 q 172 9 174 14 q 159 2 169 4 q 125 0 149 0 q 60 0 101 0 l 60 921 m 99 1275 q 122 1279 107 1279 q 157 1263 140 1279 q 224 1192 194 1225 q 270 1138 249 1164 q 292 1103 292 1111 q 267 1078 292 1088 q 211 1069 242 1069 q 172 1111 190 1092 q 142 1146 157 1128 q 121 1178 128 1164 q 78 1124 97 1147 q 43 1088 60 1104 q 17 1071 26 1071 q -31 1080 -12 1071 q -58 1104 -49 1089 l 99 1275 z "},"Ï":{"ha":233,"x_min":-46,"x_max":289,"o":"m 60 921 q 62 951 60 940 q 74 966 64 961 q 108 972 85 971 q 174 972 132 972 l 174 22 q 172 9 174 14 q 159 2 169 4 q 125 0 149 0 q 60 0 101 0 l 60 921 m -46 1165 q -28 1215 -46 1193 q 22 1236 -10 1236 q 76 1217 60 1236 q 92 1165 92 1197 q 73 1115 92 1135 q 22 1094 54 1094 q -31 1113 -15 1094 q -46 1165 -46 1132 m 153 1165 q 170 1215 153 1193 q 219 1236 188 1236 q 273 1217 257 1236 q 289 1165 289 1197 q 271 1115 289 1135 q 219 1094 253 1094 q 167 1113 182 1094 q 153 1165 153 1132 z "},"Ñ":{"ha":617,"x_min":60,"x_max":557,"o":"m 290 382 q 264 455 281 406 q 228 562 247 504 q 190 677 208 619 q 158 775 171 735 q 164 681 161 742 q 169 556 167 619 q 172 437 171 492 q 172 360 172 382 l 172 22 q 170 9 172 14 q 158 2 168 4 q 124 0 147 0 q 60 0 101 0 l 60 949 q 83 972 60 972 l 169 972 l 325 597 q 352 520 335 569 q 389 414 369 471 q 426 301 408 357 q 457 206 444 244 l 457 210 q 451 300 453 240 q 447 423 449 360 q 444 542 444 486 q 443 622 443 597 l 443 949 q 445 962 443 957 q 458 969 447 967 q 492 972 469 971 q 557 972 515 972 l 557 22 q 533 0 557 0 l 449 0 l 290 382 m 114 1144 q 192 1226 150 1203 q 271 1249 233 1249 q 307 1238 293 1249 q 333 1216 321 1228 q 358 1194 344 1204 q 392 1183 371 1183 q 431 1192 417 1183 q 453 1210 444 1200 q 467 1228 461 1219 q 482 1236 474 1236 q 498 1226 490 1236 q 511 1204 506 1215 q 522 1174 517 1190 q 508 1152 519 1168 q 476 1119 496 1136 q 429 1088 456 1101 q 371 1075 403 1075 q 328 1085 343 1075 q 301 1108 313 1096 q 280 1131 290 1121 q 250 1142 269 1142 q 219 1133 232 1142 q 198 1115 207 1125 q 182 1096 189 1104 q 168 1088 175 1088 q 147 1096 157 1088 q 129 1115 136 1104 q 114 1144 121 1128 z "},"Ò":{"ha":594,"x_min":42,"x_max":554,"o":"m 42 492 q 58 725 42 631 q 107 877 74 819 q 190 960 140 935 q 307 985 240 985 q 422 961 375 985 q 499 881 469 938 q 541 731 528 825 q 554 496 554 636 q 539 256 554 353 q 492 99 524 158 q 410 13 460 39 q 292 -12 360 -12 q 177 10 225 -12 q 99 90 129 32 q 56 244 69 147 q 42 492 42 342 m 168 464 q 174 299 168 367 q 196 187 181 231 q 235 123 211 143 q 297 103 260 103 q 360 124 335 103 q 402 192 386 144 q 425 313 418 239 q 432 493 432 386 q 426 669 432 597 q 405 785 419 740 q 366 850 390 831 q 304 869 342 869 q 242 848 268 869 q 200 778 217 826 q 176 653 183 731 q 168 464 168 576 m 338 1071 q 306 1089 333 1071 q 244 1131 278 1107 q 181 1178 211 1156 q 143 1211 151 1201 q 149 1239 144 1224 q 161 1267 154 1254 q 177 1288 168 1279 q 196 1297 186 1297 q 225 1278 200 1297 q 281 1231 250 1258 q 340 1176 311 1204 q 381 1133 369 1149 q 369 1101 375 1115 q 356 1081 364 1090 q 338 1071 347 1071 z "},"Ó":{"ha":594,"x_min":42,"x_max":554,"o":"m 42 492 q 58 725 42 631 q 107 877 74 819 q 190 960 140 935 q 307 985 240 985 q 422 961 375 985 q 499 881 469 938 q 541 731 528 825 q 554 496 554 636 q 539 256 554 353 q 492 99 524 158 q 410 13 460 39 q 292 -12 360 -12 q 177 10 225 -12 q 99 90 129 32 q 56 244 69 147 q 42 492 42 342 m 168 464 q 174 299 168 367 q 196 187 181 231 q 235 123 211 143 q 297 103 260 103 q 360 124 335 103 q 402 192 386 144 q 425 313 418 239 q 432 493 432 386 q 426 669 432 597 q 405 785 419 740 q 366 850 390 831 q 304 869 342 869 q 242 848 268 869 q 200 778 217 826 q 176 653 183 731 q 168 464 168 576 m 285 1068 q 267 1078 275 1068 q 254 1100 260 1088 q 242 1132 247 1114 q 296 1188 265 1158 q 354 1240 326 1217 q 403 1279 382 1264 q 428 1294 424 1294 q 447 1286 438 1294 q 462 1265 456 1278 q 473 1237 468 1251 q 479 1210 478 1222 q 446 1181 471 1200 q 391 1139 421 1161 q 332 1097 361 1117 q 285 1068 303 1078 z "},"Ô":{"ha":594,"x_min":42,"x_max":554,"o":"m 42 492 q 58 725 42 631 q 107 877 74 819 q 190 960 140 935 q 307 985 240 985 q 422 961 375 985 q 499 881 469 938 q 541 731 528 825 q 554 496 554 636 q 539 256 554 353 q 492 99 524 158 q 410 13 460 39 q 292 -12 360 -12 q 177 10 225 -12 q 99 90 129 32 q 56 244 69 147 q 42 492 42 342 m 168 464 q 174 299 168 367 q 196 187 181 231 q 235 123 211 143 q 297 103 260 103 q 360 124 335 103 q 402 192 386 144 q 425 313 418 239 q 432 493 432 386 q 426 669 432 597 q 405 785 419 740 q 366 850 390 831 q 304 869 342 869 q 242 848 268 869 q 200 778 217 826 q 176 653 183 731 q 168 464 168 576 m 288 1275 q 311 1279 296 1279 q 346 1263 329 1279 q 413 1192 383 1225 q 459 1138 438 1164 q 481 1103 481 1111 q 456 1078 481 1088 q 400 1069 431 1069 q 361 1111 379 1092 q 331 1146 346 1128 q 310 1178 317 1164 q 267 1124 286 1147 q 232 1088 249 1104 q 206 1071 215 1071 q 158 1080 176 1071 q 131 1104 140 1089 l 288 1275 z "},"Õ":{"ha":594,"x_min":42,"x_max":554,"o":"m 42 492 q 58 725 42 631 q 107 877 74 819 q 190 960 140 935 q 307 985 240 985 q 422 961 375 985 q 499 881 469 938 q 541 731 528 825 q 554 496 554 636 q 539 256 554 353 q 492 99 524 158 q 410 13 460 39 q 292 -12 360 -12 q 177 10 225 -12 q 99 90 129 32 q 56 244 69 147 q 42 492 42 342 m 168 464 q 174 299 168 367 q 196 187 181 231 q 235 123 211 143 q 297 103 260 103 q 360 124 335 103 q 402 192 386 144 q 425 313 418 239 q 432 493 432 386 q 426 669 432 597 q 405 785 419 740 q 366 850 390 831 q 304 869 342 869 q 242 848 268 869 q 200 778 217 826 q 176 653 183 731 q 168 464 168 576 m 103 1144 q 181 1226 139 1203 q 260 1249 222 1249 q 296 1238 282 1249 q 322 1216 310 1228 q 347 1194 333 1204 q 381 1183 360 1183 q 419 1192 406 1183 q 442 1210 433 1200 q 456 1228 450 1219 q 471 1236 463 1236 q 487 1226 479 1236 q 500 1204 494 1215 q 511 1174 506 1190 q 497 1152 508 1168 q 465 1119 485 1136 q 418 1088 444 1101 q 360 1075 392 1075 q 317 1085 332 1075 q 290 1108 301 1096 q 269 1131 279 1121 q 239 1142 258 1142 q 208 1133 221 1142 q 187 1115 196 1125 q 171 1096 178 1104 q 157 1088 164 1088 q 135 1096 146 1088 q 118 1115 125 1104 q 103 1144 110 1128 z "},"Ö":{"ha":594,"x_min":42,"x_max":554,"o":"m 42 492 q 58 725 42 631 q 107 877 74 819 q 190 960 140 935 q 307 985 240 985 q 422 961 375 985 q 499 881 469 938 q 541 731 528 825 q 554 496 554 636 q 539 256 554 353 q 492 99 524 158 q 410 13 460 39 q 292 -12 360 -12 q 177 10 225 -12 q 99 90 129 32 q 56 244 69 147 q 42 492 42 342 m 168 464 q 174 299 168 367 q 196 187 181 231 q 235 123 211 143 q 297 103 260 103 q 360 124 335 103 q 402 192 386 144 q 425 313 418 239 q 432 493 432 386 q 426 669 432 597 q 405 785 419 740 q 366 850 390 831 q 304 869 342 869 q 242 848 268 869 q 200 778 217 826 q 176 653 183 731 q 168 464 168 576 m 143 1165 q 161 1215 143 1193 q 211 1236 179 1236 q 265 1217 249 1236 q 281 1165 281 1197 q 262 1115 281 1135 q 211 1094 243 1094 q 158 1113 174 1094 q 143 1165 143 1132 m 342 1165 q 359 1215 342 1193 q 408 1236 376 1236 q 462 1217 446 1236 q 478 1165 478 1197 q 460 1115 478 1135 q 408 1094 442 1094 q 356 1113 371 1094 q 342 1165 342 1132 z "},"×":{"ha":579,"x_min":99,"x_max":481,"o":"m 289 315 l 185 200 q 154 203 172 189 q 99 254 136 218 l 222 390 l 99 529 q 154 580 136 565 q 185 582 172 594 l 289 465 l 394 582 q 424 580 406 594 q 481 529 443 565 l 357 392 l 481 254 q 424 203 443 218 q 393 200 406 189 l 289 315 z "},"Ø":{"ha":643,"x_min":50,"x_max":594,"o":"m 121 -22 q 101 -20 113 -22 q 80 -14 90 -18 q 61 -3 69 -10 q 51 13 53 4 q 56 30 50 15 q 69 65 61 44 q 85 106 76 85 q 100 144 93 128 q 74 288 82 203 q 65 492 65 372 q 81 725 65 631 q 128 878 96 819 q 210 961 161 936 q 328 986 260 986 q 422 972 381 986 q 492 922 463 957 q 511 971 503 950 q 524 999 519 992 q 557 992 542 997 q 581 981 569 988 q 594 964 592 975 q 590 942 594 960 q 578 901 585 924 q 563 853 571 878 q 547 808 554 828 q 578 496 578 699 q 563 255 578 353 q 515 97 547 157 q 433 12 483 38 q 315 -14 383 -14 q 220 0 261 -14 q 150 49 179 14 q 132 3 140 24 q 121 -22 124 -17 m 192 464 q 194 342 192 396 q 201 247 196 289 l 407 831 q 326 871 379 871 q 265 849 290 871 q 223 780 239 828 q 199 654 207 732 q 192 464 192 576 m 456 493 q 453 618 456 564 q 444 715 450 672 q 392 565 421 649 q 333 401 363 482 q 278 249 304 319 q 238 136 253 178 q 311 103 264 103 q 372 117 344 103 q 417 174 399 132 q 446 292 436 215 q 456 493 456 368 z "},"Ù":{"ha":607,"x_min":60,"x_max":546,"o":"m 176 281 q 181 203 176 239 q 199 143 185 168 q 240 104 214 118 q 310 90 265 90 q 380 98 346 90 q 432 115 414 106 l 432 949 q 434 962 432 957 q 447 969 436 967 q 481 972 457 971 q 546 972 504 972 l 546 36 q 456 3 519 19 q 310 -14 393 -14 q 177 10 226 -14 q 101 74 128 33 q 67 169 75 115 q 60 283 60 222 l 60 949 q 62 962 60 957 q 74 969 64 967 q 108 972 85 971 q 176 972 132 972 l 176 281 m 338 1071 q 306 1089 333 1071 q 244 1131 278 1107 q 181 1178 211 1156 q 143 1211 151 1201 q 149 1239 144 1224 q 161 1267 154 1254 q 177 1288 168 1279 q 196 1297 186 1297 q 225 1278 200 1297 q 281 1231 250 1258 q 340 1176 311 1204 q 381 1133 369 1149 q 369 1101 375 1115 q 356 1081 364 1090 q 338 1071 347 1071 z "},"Ú":{"ha":607,"x_min":60,"x_max":546,"o":"m 176 281 q 181 203 176 239 q 199 143 185 168 q 240 104 214 118 q 310 90 265 90 q 380 98 346 90 q 432 115 414 106 l 432 949 q 434 962 432 957 q 447 969 436 967 q 481 972 457 971 q 546 972 504 972 l 546 36 q 456 3 519 19 q 310 -14 393 -14 q 177 10 226 -14 q 101 74 128 33 q 67 169 75 115 q 60 283 60 222 l 60 949 q 62 962 60 957 q 74 969 64 967 q 108 972 85 971 q 176 972 132 972 l 176 281 m 285 1068 q 267 1078 275 1068 q 254 1100 260 1088 q 242 1132 247 1114 q 296 1188 265 1158 q 354 1240 326 1217 q 403 1279 382 1264 q 428 1294 424 1294 q 447 1286 438 1294 q 462 1265 456 1278 q 473 1237 468 1251 q 479 1210 478 1222 q 446 1181 471 1200 q 391 1139 421 1161 q 332 1097 361 1117 q 285 1068 303 1078 z "},"Û":{"ha":607,"x_min":60,"x_max":546,"o":"m 176 281 q 181 203 176 239 q 199 143 185 168 q 240 104 214 118 q 310 90 265 90 q 380 98 346 90 q 432 115 414 106 l 432 949 q 434 962 432 957 q 447 969 436 967 q 481 972 457 971 q 546 972 504 972 l 546 36 q 456 3 519 19 q 310 -14 393 -14 q 177 10 226 -14 q 101 74 128 33 q 67 169 75 115 q 60 283 60 222 l 60 949 q 62 962 60 957 q 74 969 64 967 q 108 972 85 971 q 176 972 132 972 l 176 281 m 288 1275 q 311 1279 296 1279 q 346 1263 329 1279 q 413 1192 383 1225 q 459 1138 438 1164 q 481 1103 481 1111 q 456 1078 481 1088 q 400 1069 431 1069 q 361 1111 379 1092 q 331 1146 346 1128 q 310 1178 317 1164 q 267 1124 286 1147 q 232 1088 249 1104 q 206 1071 215 1071 q 158 1080 176 1071 q 131 1104 140 1089 l 288 1275 z "},"Ü":{"ha":607,"x_min":60,"x_max":546,"o":"m 176 281 q 181 203 176 239 q 199 143 185 168 q 240 104 214 118 q 310 90 265 90 q 380 98 346 90 q 432 115 414 106 l 432 949 q 434 962 432 957 q 447 969 436 967 q 481 972 457 971 q 546 972 504 972 l 546 36 q 456 3 519 19 q 310 -14 393 -14 q 177 10 226 -14 q 101 74 128 33 q 67 169 75 115 q 60 283 60 222 l 60 949 q 62 962 60 957 q 74 969 64 967 q 108 972 85 971 q 176 972 132 972 l 176 281 m 143 1165 q 161 1215 143 1193 q 211 1236 179 1236 q 265 1217 249 1236 q 281 1165 281 1197 q 262 1115 281 1135 q 211 1094 243 1094 q 158 1113 174 1094 q 143 1165 143 1132 m 342 1165 q 359 1215 342 1193 q 408 1236 376 1236 q 462 1217 446 1236 q 478 1165 478 1197 q 460 1115 478 1135 q 408 1094 442 1094 q 356 1113 371 1094 q 342 1165 342 1132 z "},"Ý":{"ha":506,"x_min":6,"x_max":500,"o":"m 200 393 l 8 954 q 7 965 6 961 q 21 970 8 968 q 60 972 33 972 q 136 972 88 972 l 192 782 q 213 705 201 749 q 235 619 225 661 q 251 542 244 576 q 260 492 258 507 q 269 542 261 507 q 286 619 276 576 q 308 705 296 661 q 329 782 319 749 l 378 951 q 383 964 381 960 q 398 970 386 968 q 433 972 410 972 q 500 972 457 972 l 313 401 l 313 22 q 311 9 313 14 q 299 2 310 4 q 266 0 289 0 q 200 0 243 0 l 200 393 m 238 1068 q 220 1078 228 1068 q 207 1100 213 1088 q 194 1132 200 1114 q 249 1188 218 1158 q 307 1240 279 1217 q 356 1279 335 1264 q 381 1294 376 1294 q 399 1286 390 1294 q 415 1265 408 1278 q 426 1237 421 1251 q 432 1210 431 1222 q 399 1181 424 1200 q 344 1139 374 1161 q 285 1097 314 1117 q 238 1068 256 1078 z "},"ß":{"ha":646,"x_min":54,"x_max":633,"o":"m 65 764 q 126 928 65 876 q 289 979 188 979 q 418 962 365 979 q 504 916 471 944 q 553 851 538 888 q 568 779 568 815 q 544 704 568 732 q 492 656 521 676 q 440 614 464 635 q 417 560 417 593 q 433 515 417 538 q 473 469 449 493 q 525 419 497 446 q 577 358 553 392 q 617 284 601 325 q 633 192 633 243 q 578 42 633 96 q 425 -12 522 -12 q 301 9 342 -12 q 260 50 260 31 q 269 98 260 81 q 289 126 279 115 q 327 103 299 117 q 400 89 356 89 q 478 114 449 89 q 507 190 507 139 q 474 288 507 244 q 400 374 440 332 q 326 458 360 415 q 293 554 293 501 q 317 631 293 601 q 370 682 342 660 q 423 725 399 704 q 447 778 447 746 q 410 844 447 814 q 297 874 374 874 q 204 833 229 874 q 179 700 179 793 l 183 61 q 171 4 183 21 q 117 -12 158 -12 q 68 -6 85 -12 q 54 3 60 -1 q 61 29 57 14 q 67 60 64 42 q 69 103 69 79 l 65 764 z "},"à":{"ha":492,"x_min":40,"x_max":440,"o":"m 42 632 q 45 653 42 643 q 57 671 49 664 q 132 695 75 682 q 268 708 189 708 q 399 671 358 708 q 440 539 440 633 l 440 465 q 440 345 440 406 q 439 228 440 285 q 436 122 438 172 q 432 33 435 72 q 356 1 404 17 q 239 -14 307 -14 q 165 -8 201 -14 q 101 19 129 -3 q 57 84 74 42 q 40 197 40 126 q 56 314 40 269 q 98 383 72 358 q 157 417 124 408 q 225 425 190 425 q 277 422 249 425 q 326 407 306 418 l 326 517 q 304 582 326 565 q 240 599 282 599 q 138 590 188 599 q 57 568 88 581 q 44 602 47 585 q 42 632 42 619 m 326 328 q 294 338 313 335 q 261 340 276 340 q 222 335 240 340 q 189 315 203 331 q 167 273 175 300 q 158 200 158 246 q 165 139 158 163 q 183 102 171 115 q 211 85 194 89 q 249 81 228 81 q 292 88 272 81 q 322 104 313 94 q 324 148 324 121 q 326 206 325 175 q 326 268 326 236 q 326 328 326 300 m 279 793 q 247 811 275 793 q 186 853 219 829 q 123 901 153 878 q 85 933 93 924 q 91 961 86 946 q 103 989 96 976 q 119 1010 110 1001 q 138 1019 128 1019 q 167 1000 142 1019 q 222 953 192 981 q 282 899 253 926 q 322 856 311 871 q 311 824 317 838 q 297 803 306 813 q 279 793 289 793 z "},"á":{"ha":492,"x_min":40,"x_max":440,"o":"m 42 632 q 45 653 42 643 q 57 671 49 664 q 132 695 75 682 q 268 708 189 708 q 399 671 358 708 q 440 539 440 633 l 440 465 q 440 345 440 406 q 439 228 440 285 q 436 122 438 172 q 432 33 435 72 q 356 1 404 17 q 239 -14 307 -14 q 165 -8 201 -14 q 101 19 129 -3 q 57 84 74 42 q 40 197 40 126 q 56 314 40 269 q 98 383 72 358 q 157 417 124 408 q 225 425 190 425 q 277 422 249 425 q 326 407 306 418 l 326 517 q 304 582 326 565 q 240 599 282 599 q 138 590 188 599 q 57 568 88 581 q 44 602 47 585 q 42 632 42 619 m 326 328 q 294 338 313 335 q 261 340 276 340 q 222 335 240 340 q 189 315 203 331 q 167 273 175 300 q 158 200 158 246 q 165 139 158 163 q 183 102 171 115 q 211 85 194 89 q 249 81 228 81 q 292 88 272 81 q 322 104 313 94 q 324 148 324 121 q 326 206 325 175 q 326 268 326 236 q 326 328 326 300 m 225 790 q 208 800 215 790 q 194 822 200 810 q 182 854 188 836 q 236 910 206 881 q 294 963 267 939 q 343 1001 322 986 q 368 1017 364 1017 q 387 1008 378 1017 q 402 987 396 1000 q 413 959 408 974 q 419 932 418 944 q 386 903 411 922 q 331 861 361 883 q 272 819 301 839 q 225 790 243 800 z "},"â":{"ha":492,"x_min":40,"x_max":440,"o":"m 42 632 q 45 653 42 643 q 57 671 49 664 q 132 695 75 682 q 268 708 189 708 q 399 671 358 708 q 440 539 440 633 l 440 465 q 440 345 440 406 q 439 228 440 285 q 436 122 438 172 q 432 33 435 72 q 356 1 404 17 q 239 -14 307 -14 q 165 -8 201 -14 q 101 19 129 -3 q 57 84 74 42 q 40 197 40 126 q 56 314 40 269 q 98 383 72 358 q 157 417 124 408 q 225 425 190 425 q 277 422 249 425 q 326 407 306 418 l 326 517 q 304 582 326 565 q 240 599 282 599 q 138 590 188 599 q 57 568 88 581 q 44 602 47 585 q 42 632 42 619 m 326 328 q 294 338 313 335 q 261 340 276 340 q 222 335 240 340 q 189 315 203 331 q 167 273 175 300 q 158 200 158 246 q 165 139 158 163 q 183 102 171 115 q 211 85 194 89 q 249 81 228 81 q 292 88 272 81 q 322 104 313 94 q 324 148 324 121 q 326 206 325 175 q 326 268 326 236 q 326 328 326 300 m 228 997 q 251 1001 236 1001 q 286 985 269 1001 q 353 914 324 947 q 399 860 378 886 q 421 825 421 833 q 396 801 421 810 q 340 792 371 792 q 301 833 319 814 q 272 868 286 850 q 250 900 257 886 q 207 846 226 869 q 172 810 189 826 q 146 793 156 793 q 99 802 117 793 q 71 826 81 811 l 228 997 z "},"ã":{"ha":492,"x_min":40,"x_max":451,"o":"m 42 632 q 45 653 42 643 q 57 671 49 664 q 132 695 75 682 q 268 708 189 708 q 399 671 358 708 q 440 539 440 633 l 440 465 q 440 345 440 406 q 439 228 440 285 q 436 122 438 172 q 432 33 435 72 q 356 1 404 17 q 239 -14 307 -14 q 165 -8 201 -14 q 101 19 129 -3 q 57 84 74 42 q 40 197 40 126 q 56 314 40 269 q 98 383 72 358 q 157 417 124 408 q 225 425 190 425 q 277 422 249 425 q 326 407 306 418 l 326 517 q 304 582 326 565 q 240 599 282 599 q 138 590 188 599 q 57 568 88 581 q 44 602 47 585 q 42 632 42 619 m 326 328 q 294 338 313 335 q 261 340 276 340 q 222 335 240 340 q 189 315 203 331 q 167 273 175 300 q 158 200 158 246 q 165 139 158 163 q 183 102 171 115 q 211 85 194 89 q 249 81 228 81 q 292 88 272 81 q 322 104 313 94 q 324 148 324 121 q 326 206 325 175 q 326 268 326 236 q 326 328 326 300 m 43 867 q 121 948 79 925 q 200 971 163 971 q 236 960 222 971 q 262 938 250 950 q 287 916 274 926 q 321 906 300 906 q 360 914 346 906 q 382 932 374 922 q 397 950 390 942 q 411 958 403 958 q 427 948 419 958 q 440 926 435 938 q 451 896 446 913 q 437 874 449 890 q 405 841 425 858 q 358 810 385 824 q 300 797 332 797 q 257 808 272 797 q 231 831 242 818 q 209 853 219 843 q 179 864 199 864 q 149 856 161 864 q 127 837 136 847 q 111 818 118 826 q 97 810 104 810 q 76 818 86 810 q 58 838 65 826 q 43 867 50 850 z "},"ä":{"ha":492,"x_min":40,"x_max":440,"o":"m 42 632 q 45 653 42 643 q 57 671 49 664 q 132 695 75 682 q 268 708 189 708 q 399 671 358 708 q 440 539 440 633 l 440 465 q 440 345 440 406 q 439 228 440 285 q 436 122 438 172 q 432 33 435 72 q 356 1 404 17 q 239 -14 307 -14 q 165 -8 201 -14 q 101 19 129 -3 q 57 84 74 42 q 40 197 40 126 q 56 314 40 269 q 98 383 72 358 q 157 417 124 408 q 225 425 190 425 q 277 422 249 425 q 326 407 306 418 l 326 517 q 304 582 326 565 q 240 599 282 599 q 138 590 188 599 q 57 568 88 581 q 44 602 47 585 q 42 632 42 619 m 326 328 q 294 338 313 335 q 261 340 276 340 q 222 335 240 340 q 189 315 203 331 q 167 273 175 300 q 158 200 158 246 q 165 139 158 163 q 183 102 171 115 q 211 85 194 89 q 249 81 228 81 q 292 88 272 81 q 322 104 313 94 q 324 148 324 121 q 326 206 325 175 q 326 268 326 236 q 326 328 326 300 m 83 888 q 101 937 83 915 q 151 958 119 958 q 205 939 189 958 q 221 888 221 919 q 202 837 221 857 q 151 817 183 817 q 99 835 114 817 q 83 888 83 854 m 282 888 q 299 937 282 915 q 349 958 317 958 q 402 939 386 958 q 418 888 418 919 q 400 837 418 857 q 349 817 382 817 q 297 835 311 817 q 282 888 282 854 z "},"å":{"ha":492,"x_min":40,"x_max":440,"o":"m 42 632 q 45 653 42 643 q 57 671 49 664 q 132 695 75 682 q 268 708 189 708 q 399 671 358 708 q 440 539 440 633 l 440 465 q 440 345 440 406 q 439 228 440 285 q 436 122 438 172 q 432 33 435 72 q 356 1 404 17 q 239 -14 307 -14 q 165 -8 201 -14 q 101 19 129 -3 q 57 84 74 42 q 40 197 40 126 q 56 314 40 269 q 98 383 72 358 q 157 417 124 408 q 225 425 190 425 q 277 422 249 425 q 326 407 306 418 l 326 517 q 304 582 326 565 q 240 599 282 599 q 138 590 188 599 q 57 568 88 581 q 44 602 47 585 q 42 632 42 619 m 326 328 q 294 338 313 335 q 261 340 276 340 q 222 335 240 340 q 189 315 203 331 q 167 273 175 300 q 158 200 158 246 q 165 139 158 163 q 183 102 171 115 q 211 85 194 89 q 249 81 228 81 q 292 88 272 81 q 322 104 313 94 q 324 148 324 121 q 326 206 325 175 q 326 268 326 236 q 326 328 326 300 m 111 915 q 148 1019 111 986 q 250 1051 185 1051 q 348 1023 317 1051 q 379 917 379 994 q 344 815 379 849 q 242 781 308 781 q 144 809 178 781 q 111 915 111 838 m 192 914 q 243 857 192 857 q 285 871 269 857 q 300 917 300 885 q 251 974 300 974 q 208 960 224 974 q 192 914 192 946 z "},"æ":{"ha":807,"x_min":40,"x_max":756,"o":"m 43 638 q 48 658 43 649 q 58 671 53 667 q 130 696 78 683 q 274 708 182 708 q 363 690 329 708 q 410 631 396 672 q 485 694 442 679 q 579 708 529 708 q 756 488 756 708 q 752 391 756 440 q 740 304 749 342 q 617 296 675 296 q 521 301 564 296 q 450 311 478 306 q 458 197 450 239 q 480 132 465 154 q 517 103 494 110 q 568 97 539 97 q 661 109 619 97 q 738 140 703 121 q 745 93 743 124 q 747 39 747 63 q 732 23 747 32 q 690 6 717 14 q 629 -7 664 -1 q 556 -12 594 -12 q 478 -5 513 -12 q 419 26 444 3 q 348 -1 390 10 q 239 -12 306 -12 q 165 -8 201 -12 q 101 19 129 -3 q 57 85 74 40 q 40 207 40 129 q 56 325 40 279 q 97 397 72 371 q 155 433 122 424 q 221 443 188 443 q 276 440 247 443 q 326 425 306 436 l 326 525 q 300 590 326 574 q 232 607 274 607 q 135 597 179 607 q 58 569 92 588 q 45 609 47 588 q 43 638 43 631 m 326 347 q 294 356 311 353 q 261 358 276 358 q 222 352 240 358 q 189 329 203 346 q 167 283 175 313 q 158 207 158 253 q 165 139 158 164 q 183 101 171 114 q 210 84 194 88 q 247 81 226 81 q 293 86 268 81 q 326 103 318 92 l 326 347 m 567 610 q 527 601 546 610 q 493 568 508 592 q 467 504 478 544 q 453 403 457 464 q 515 390 479 396 q 589 385 551 385 q 639 389 614 385 q 644 432 643 408 q 646 475 646 456 q 628 580 644 550 q 567 610 613 610 z "},"ç":{"ha":435,"x_min":43,"x_max":408,"o":"m 408 646 q 406 618 408 635 q 396 583 403 601 q 353 601 379 593 q 299 608 326 608 q 249 600 274 608 q 206 563 225 592 q 174 480 186 535 q 161 332 161 425 q 169 211 161 258 q 192 136 176 164 q 230 97 207 108 q 285 86 253 86 q 347 97 318 86 q 394 118 376 107 q 403 85 400 99 q 406 57 406 71 q 372 13 406 32 q 283 -12 339 -7 l 269 -81 l 293 -81 q 340 -101 318 -81 q 361 -169 361 -121 q 330 -255 361 -224 q 250 -286 299 -286 q 219 -283 233 -286 q 194 -278 206 -281 q 172 -269 182 -274 q 178 -244 175 -257 q 183 -225 181 -235 q 190 -212 186 -215 q 213 -216 197 -206 q 251 -226 229 -226 q 296 -179 296 -226 q 285 -143 296 -153 q 254 -133 274 -133 q 230 -135 240 -133 q 213 -137 219 -136 q 197 -140 204 -139 l 221 -12 q 145 6 178 -10 q 90 61 113 22 q 55 165 67 100 q 43 332 43 231 q 66 531 43 457 q 125 645 89 606 q 206 697 161 685 q 293 708 250 708 q 375 691 342 708 q 408 646 408 674 z "},"è":{"ha":501,"x_min":43,"x_max":465,"o":"m 289 708 q 465 485 465 708 q 462 390 465 439 q 450 304 458 342 q 374 293 414 297 q 294 286 333 289 q 219 283 254 283 q 160 282 185 282 q 170 190 161 226 q 194 133 179 154 q 233 104 210 113 q 289 96 257 96 q 371 108 331 96 q 447 139 411 119 q 455 101 453 124 q 457 63 457 79 q 442 32 457 46 q 400 8 426 18 q 339 -8 374 -3 q 265 -14 304 -14 q 176 -1 217 -14 q 106 47 135 11 q 60 146 76 82 q 43 311 43 210 q 65 520 43 442 q 120 640 86 599 q 199 695 154 682 q 289 708 243 708 m 276 610 q 236 599 256 610 q 201 562 217 589 q 174 490 185 535 q 161 374 164 444 q 206 374 181 374 q 256 376 231 374 q 306 381 282 378 q 349 389 331 383 q 354 431 353 408 q 356 472 356 453 q 338 578 354 547 q 276 610 321 610 m 308 793 q 276 811 304 793 q 215 853 249 829 q 152 901 182 878 q 114 933 122 924 q 120 961 115 946 q 132 989 125 976 q 148 1010 139 1001 q 167 1019 157 1019 q 196 1000 171 1019 q 251 953 221 981 q 311 899 282 926 q 351 856 340 871 q 340 824 346 838 q 326 803 335 813 q 308 793 318 793 z "},"é":{"ha":501,"x_min":43,"x_max":465,"o":"m 289 708 q 465 485 465 708 q 462 390 465 439 q 450 304 458 342 q 374 293 414 297 q 294 286 333 289 q 219 283 254 283 q 160 282 185 282 q 170 190 161 226 q 194 133 179 154 q 233 104 210 113 q 289 96 257 96 q 371 108 331 96 q 447 139 411 119 q 455 101 453 124 q 457 63 457 79 q 442 32 457 46 q 400 8 426 18 q 339 -8 374 -3 q 265 -14 304 -14 q 176 -1 217 -14 q 106 47 135 11 q 60 146 76 82 q 43 311 43 210 q 65 520 43 442 q 120 640 86 599 q 199 695 154 682 q 289 708 243 708 m 276 610 q 236 599 256 610 q 201 562 217 589 q 174 490 185 535 q 161 374 164 444 q 206 374 181 374 q 256 376 231 374 q 306 381 282 378 q 349 389 331 383 q 354 431 353 408 q 356 472 356 453 q 338 578 354 547 q 276 610 321 610 m 254 790 q 237 800 244 790 q 224 822 229 810 q 211 854 217 836 q 265 910 235 881 q 324 963 296 939 q 372 1001 351 986 q 397 1017 393 1017 q 416 1008 407 1017 q 431 987 425 1000 q 442 959 438 974 q 449 932 447 944 q 415 903 440 922 q 360 861 390 883 q 301 819 331 839 q 254 790 272 800 z "},"ê":{"ha":501,"x_min":43,"x_max":465,"o":"m 289 708 q 465 485 465 708 q 462 390 465 439 q 450 304 458 342 q 374 293 414 297 q 294 286 333 289 q 219 283 254 283 q 160 282 185 282 q 170 190 161 226 q 194 133 179 154 q 233 104 210 113 q 289 96 257 96 q 371 108 331 96 q 447 139 411 119 q 455 101 453 124 q 457 63 457 79 q 442 32 457 46 q 400 8 426 18 q 339 -8 374 -3 q 265 -14 304 -14 q 176 -1 217 -14 q 106 47 135 11 q 60 146 76 82 q 43 311 43 210 q 65 520 43 442 q 120 640 86 599 q 199 695 154 682 q 289 708 243 708 m 276 610 q 236 599 256 610 q 201 562 217 589 q 174 490 185 535 q 161 374 164 444 q 206 374 181 374 q 256 376 231 374 q 306 381 282 378 q 349 389 331 383 q 354 431 353 408 q 356 472 356 453 q 338 578 354 547 q 276 610 321 610 m 257 997 q 281 1001 265 1001 q 315 985 299 1001 q 382 914 353 947 q 428 860 407 886 q 450 825 450 833 q 425 801 450 810 q 369 792 400 792 q 331 833 349 814 q 301 868 315 850 q 279 900 286 886 q 236 846 256 869 q 201 810 218 826 q 175 793 185 793 q 128 802 146 793 q 100 826 110 811 l 257 997 z "},"ë":{"ha":501,"x_min":43,"x_max":465,"o":"m 289 708 q 465 485 465 708 q 462 390 465 439 q 450 304 458 342 q 374 293 414 297 q 294 286 333 289 q 219 283 254 283 q 160 282 185 282 q 170 190 161 226 q 194 133 179 154 q 233 104 210 113 q 289 96 257 96 q 371 108 331 96 q 447 139 411 119 q 455 101 453 124 q 457 63 457 79 q 442 32 457 46 q 400 8 426 18 q 339 -8 374 -3 q 265 -14 304 -14 q 176 -1 217 -14 q 106 47 135 11 q 60 146 76 82 q 43 311 43 210 q 65 520 43 442 q 120 640 86 599 q 199 695 154 682 q 289 708 243 708 m 276 610 q 236 599 256 610 q 201 562 217 589 q 174 490 185 535 q 161 374 164 444 q 206 374 181 374 q 256 376 231 374 q 306 381 282 378 q 349 389 331 383 q 354 431 353 408 q 356 472 356 453 q 338 578 354 547 q 276 610 321 610 m 113 888 q 131 937 113 915 q 181 958 149 958 q 234 939 218 958 q 250 888 250 919 q 231 837 250 857 q 181 817 213 817 q 128 835 143 817 q 113 888 113 854 m 311 888 q 328 937 311 915 q 378 958 346 958 q 431 939 415 958 q 447 888 447 919 q 429 837 447 857 q 378 817 411 817 q 326 835 340 817 q 311 888 311 854 z "},"ì":{"ha":243,"x_min":-39,"x_max":199,"o":"m 179 22 q 177 9 179 14 q 164 2 175 4 q 130 0 153 0 q 64 0 107 0 l 64 643 q 69 673 64 663 q 87 688 74 683 q 122 694 100 693 q 179 694 144 694 l 179 22 m 156 793 q 124 811 151 793 q 63 853 96 829 q -1 901 29 878 q -39 933 -31 924 q -33 961 -37 946 q -21 989 -28 976 q -5 1010 -14 1001 q 14 1019 4 1019 q 43 1000 18 1019 q 99 953 68 981 q 158 899 129 926 q 199 856 188 871 q 188 824 193 838 q 174 803 182 813 q 156 793 165 793 z "},"í":{"ha":243,"x_min":58,"x_max":296,"o":"m 179 22 q 177 9 179 14 q 164 2 175 4 q 130 0 153 0 q 64 0 107 0 l 64 643 q 69 673 64 663 q 87 688 74 683 q 122 694 100 693 q 179 694 144 694 l 179 22 m 101 790 q 84 800 92 790 q 71 822 76 810 q 58 854 64 836 q 113 910 82 881 q 171 963 143 939 q 219 1001 199 986 q 244 1017 240 1017 q 263 1008 254 1017 q 278 987 272 1000 q 290 959 285 974 q 296 932 294 944 q 263 903 288 922 q 208 861 238 883 q 149 819 178 839 q 101 790 119 800 z "},"î":{"ha":243,"x_min":-51,"x_max":299,"o":"m 179 22 q 177 9 179 14 q 164 2 175 4 q 130 0 153 0 q 64 0 107 0 l 64 643 q 69 673 64 663 q 87 688 74 683 q 122 694 100 693 q 179 694 144 694 l 179 22 m 106 997 q 129 1001 114 1001 q 164 985 147 1001 q 231 914 201 947 q 277 860 256 886 q 299 825 299 833 q 274 801 299 810 q 218 792 249 792 q 179 833 197 814 q 149 868 164 850 q 128 900 135 886 q 85 846 104 869 q 50 810 67 826 q 24 793 33 793 q -24 802 -6 793 q -51 826 -42 811 l 106 997 z "},"ï":{"ha":243,"x_min":-39,"x_max":296,"o":"m 179 22 q 177 9 179 14 q 164 2 175 4 q 130 0 153 0 q 64 0 107 0 l 64 643 q 69 673 64 663 q 87 688 74 683 q 122 694 100 693 q 179 694 144 694 l 179 22 m -39 888 q -21 937 -39 915 q 29 958 -3 958 q 83 939 67 958 q 99 888 99 919 q 80 837 99 857 q 29 817 61 817 q -24 835 -8 817 q -39 888 -39 854 m 160 888 q 177 937 160 915 q 226 958 194 958 q 280 939 264 958 q 296 888 296 919 q 278 837 296 857 q 226 817 260 817 q 174 835 189 817 q 160 888 160 854 z "},"ñ":{"ha":531,"x_min":63,"x_max":479,"o":"m 63 661 q 110 678 83 669 q 165 694 136 688 q 224 704 194 700 q 282 708 254 708 q 435 666 392 708 q 478 522 478 624 l 478 22 q 476 9 478 14 q 463 2 474 4 q 428 0 451 0 q 361 0 404 0 l 361 489 q 346 583 361 556 q 278 610 331 610 q 227 603 256 610 q 175 585 199 597 l 175 22 q 173 9 175 14 q 160 2 171 4 q 126 0 149 0 q 63 0 104 0 l 63 661 m 71 867 q 149 948 107 925 q 228 971 190 971 q 264 960 250 971 q 290 938 278 950 q 315 916 301 926 q 349 906 328 906 q 388 914 374 906 q 410 932 401 922 q 424 950 418 942 q 439 958 431 958 q 455 948 447 958 q 468 926 463 938 q 479 896 474 913 q 465 874 476 890 q 433 841 453 858 q 386 810 413 824 q 328 797 360 797 q 285 808 300 797 q 258 831 269 818 q 237 853 247 843 q 207 864 226 864 q 176 856 189 864 q 155 837 164 847 q 139 818 146 826 q 125 810 132 810 q 103 818 114 810 q 86 838 93 826 q 71 867 78 850 z "},"ò":{"ha":511,"x_min":33,"x_max":479,"o":"m 33 347 q 94 623 33 538 q 264 708 154 708 q 359 692 318 708 q 426 635 400 676 q 466 526 453 594 q 479 351 479 457 q 421 72 479 157 q 251 -14 363 -14 q 157 -1 197 -14 q 89 49 117 11 q 47 159 61 88 q 33 347 33 231 m 156 344 q 162 207 156 258 q 181 128 168 156 q 212 91 193 100 q 254 82 231 82 q 295 93 276 82 q 328 135 314 104 q 349 217 342 165 q 357 350 357 268 q 351 484 357 433 q 333 563 344 535 q 303 600 321 590 q 260 610 285 610 q 217 599 236 610 q 185 558 199 588 q 163 477 171 529 q 156 344 156 425 m 292 793 q 260 811 288 793 q 199 853 232 829 q 135 901 165 878 q 97 933 106 924 q 103 961 99 946 q 115 989 108 976 q 131 1010 122 1001 q 150 1019 140 1019 q 179 1000 154 1019 q 235 953 204 981 q 294 899 265 926 q 335 856 324 871 q 324 824 329 838 q 310 803 318 813 q 292 793 301 793 z "},"ó":{"ha":511,"x_min":33,"x_max":479,"o":"m 33 347 q 94 623 33 538 q 264 708 154 708 q 359 692 318 708 q 426 635 400 676 q 466 526 453 594 q 479 351 479 457 q 421 72 479 157 q 251 -14 363 -14 q 157 -1 197 -14 q 89 49 117 11 q 47 159 61 88 q 33 347 33 231 m 156 344 q 162 207 156 258 q 181 128 168 156 q 212 91 193 100 q 254 82 231 82 q 295 93 276 82 q 328 135 314 104 q 349 217 342 165 q 357 350 357 268 q 351 484 357 433 q 333 563 344 535 q 303 600 321 590 q 260 610 285 610 q 217 599 236 610 q 185 558 199 588 q 163 477 171 529 q 156 344 156 425 m 239 790 q 222 800 229 790 q 208 822 214 810 q 196 854 201 836 q 250 910 219 881 q 308 963 281 939 q 357 1001 336 986 q 382 1017 378 1017 q 401 1008 392 1017 q 416 987 410 1000 q 427 959 422 974 q 433 932 432 944 q 400 903 425 922 q 345 861 375 883 q 286 819 315 839 q 239 790 257 800 z "},"ô":{"ha":511,"x_min":33,"x_max":479,"o":"m 33 347 q 94 623 33 538 q 264 708 154 708 q 359 692 318 708 q 426 635 400 676 q 466 526 453 594 q 479 351 479 457 q 421 72 479 157 q 251 -14 363 -14 q 157 -1 197 -14 q 89 49 117 11 q 47 159 61 88 q 33 347 33 231 m 156 344 q 162 207 156 258 q 181 128 168 156 q 212 91 193 100 q 254 82 231 82 q 295 93 276 82 q 328 135 314 104 q 349 217 342 165 q 357 350 357 268 q 351 484 357 433 q 333 563 344 535 q 303 600 321 590 q 260 610 285 610 q 217 599 236 610 q 185 558 199 588 q 163 477 171 529 q 156 344 156 425 m 242 997 q 265 1001 250 1001 q 300 985 283 1001 q 367 914 338 947 q 413 860 392 886 q 435 825 435 833 q 410 801 435 810 q 354 792 385 792 q 315 833 333 814 q 285 868 300 850 q 264 900 271 886 q 221 846 240 869 q 186 810 203 826 q 160 793 169 793 q 113 802 131 793 q 85 826 94 811 l 242 997 z "},"õ":{"ha":511,"x_min":33,"x_max":479,"o":"m 33 347 q 94 623 33 538 q 264 708 154 708 q 359 692 318 708 q 426 635 400 676 q 466 526 453 594 q 479 351 479 457 q 421 72 479 157 q 251 -14 363 -14 q 157 -1 197 -14 q 89 49 117 11 q 47 159 61 88 q 33 347 33 231 m 156 344 q 162 207 156 258 q 181 128 168 156 q 212 91 193 100 q 254 82 231 82 q 295 93 276 82 q 328 135 314 104 q 349 217 342 165 q 357 350 357 268 q 351 484 357 433 q 333 563 344 535 q 303 600 321 590 q 260 610 285 610 q 217 599 236 610 q 185 558 199 588 q 163 477 171 529 q 156 344 156 425 m 57 867 q 135 948 93 925 q 214 971 176 971 q 250 960 236 971 q 276 938 264 950 q 301 916 288 926 q 335 906 314 906 q 374 914 360 906 q 396 932 388 922 q 410 950 404 942 q 425 958 417 958 q 441 948 433 958 q 454 926 449 938 q 465 896 460 913 q 451 874 463 890 q 419 841 439 858 q 372 810 399 824 q 314 797 346 797 q 271 808 286 797 q 244 831 256 818 q 223 853 233 843 q 193 864 213 864 q 163 856 175 864 q 141 837 150 847 q 125 818 132 826 q 111 810 118 810 q 90 818 100 810 q 72 838 79 826 q 57 867 64 850 z "},"ö":{"ha":511,"x_min":33,"x_max":479,"o":"m 33 347 q 94 623 33 538 q 264 708 154 708 q 359 692 318 708 q 426 635 400 676 q 466 526 453 594 q 479 351 479 457 q 421 72 479 157 q 251 -14 363 -14 q 157 -1 197 -14 q 89 49 117 11 q 47 159 61 88 q 33 347 33 231 m 156 344 q 162 207 156 258 q 181 128 168 156 q 212 91 193 100 q 254 82 231 82 q 295 93 276 82 q 328 135 314 104 q 349 217 342 165 q 357 350 357 268 q 351 484 357 433 q 333 563 344 535 q 303 600 321 590 q 260 610 285 610 q 217 599 236 610 q 185 558 199 588 q 163 477 171 529 q 156 344 156 425 m 97 888 q 115 937 97 915 q 165 958 133 958 q 219 939 203 958 q 235 888 235 919 q 216 837 235 857 q 165 817 197 817 q 113 835 128 817 q 97 888 97 854 m 296 888 q 313 937 296 915 q 363 958 331 958 q 416 939 400 958 q 432 888 432 919 q 414 837 432 857 q 363 817 396 817 q 310 835 325 817 q 296 888 296 854 z "},"÷":{"ha":579,"x_min":47,"x_max":533,"o":"m 47 342 q 50 417 47 394 q 71 440 53 440 l 533 440 q 531 365 533 388 q 511 342 528 342 l 47 342 m 219 182 q 238 233 219 211 q 288 254 256 254 q 342 234 326 254 q 358 182 358 214 q 340 132 358 153 q 288 111 321 111 q 235 131 250 111 q 219 182 219 150 m 219 593 q 238 644 219 622 q 288 665 256 665 q 342 645 326 665 q 358 593 358 625 q 340 543 358 564 q 288 522 321 522 q 235 541 250 522 q 219 593 219 560 z "},"ø":{"ha":572,"x_min":24,"x_max":560,"o":"m 86 -36 q 47 -21 69 -33 q 24 11 24 -8 q 31 27 24 14 q 47 58 38 40 q 67 94 56 75 q 86 126 78 113 q 70 220 75 167 q 65 347 65 274 q 126 623 65 538 q 296 708 186 708 q 383 695 344 708 q 449 650 421 682 q 477 698 464 678 q 496 725 490 718 q 528 713 513 719 q 549 698 539 706 q 560 679 560 690 q 553 661 560 675 q 538 628 547 647 q 516 588 528 610 q 493 549 504 567 q 513 351 513 471 q 498 185 513 254 q 455 72 483 117 q 384 7 426 28 q 288 -14 342 -14 q 197 -3 236 -14 q 129 39 157 7 q 102 -8 115 14 q 86 -36 89 -31 m 390 350 q 386 454 390 410 q 341 374 365 418 q 292 288 317 331 q 246 206 268 244 q 208 140 224 167 q 240 93 221 104 q 288 82 260 82 q 328 93 310 82 q 361 135 347 104 q 383 217 375 165 q 390 350 390 268 m 189 344 q 189 292 189 317 q 192 247 189 268 l 367 560 q 337 599 356 589 q 293 610 318 610 q 250 599 269 610 q 217 558 231 588 q 197 477 204 529 q 189 344 189 425 z "},"ù":{"ha":542,"x_min":61,"x_max":476,"o":"m 476 36 q 381 0 436 14 q 269 -14 326 -14 q 167 0 207 -14 q 103 43 126 14 q 70 115 79 72 q 61 217 61 158 l 61 671 q 63 684 61 679 q 76 691 65 689 q 110 694 86 693 q 178 694 133 694 l 178 207 q 196 112 178 139 q 271 85 214 85 q 316 90 290 85 q 364 110 342 94 l 364 671 q 366 684 364 679 q 378 691 368 689 q 412 694 389 693 q 476 694 435 694 l 476 36 m 304 793 q 272 811 300 793 q 211 853 244 829 q 148 901 178 878 q 110 933 118 924 q 116 961 111 946 q 128 989 121 976 q 144 1010 135 1001 q 163 1019 153 1019 q 192 1000 167 1019 q 247 953 217 981 q 307 899 278 926 q 347 856 336 871 q 336 824 342 838 q 322 803 331 813 q 304 793 314 793 z "},"ú":{"ha":542,"x_min":61,"x_max":476,"o":"m 476 36 q 381 0 436 14 q 269 -14 326 -14 q 167 0 207 -14 q 103 43 126 14 q 70 115 79 72 q 61 217 61 158 l 61 671 q 63 684 61 679 q 76 691 65 689 q 110 694 86 693 q 178 694 133 694 l 178 207 q 196 112 178 139 q 271 85 214 85 q 316 90 290 85 q 364 110 342 94 l 364 671 q 366 684 364 679 q 378 691 368 689 q 412 694 389 693 q 476 694 435 694 l 476 36 m 251 790 q 234 800 242 790 q 221 822 226 810 q 208 854 214 836 q 263 910 232 881 q 321 963 293 939 q 369 1001 349 986 q 394 1017 390 1017 q 413 1008 404 1017 q 428 987 422 1000 q 440 959 435 974 q 446 932 444 944 q 413 903 438 922 q 358 861 388 883 q 299 819 328 839 q 251 790 269 800 z "},"û":{"ha":542,"x_min":61,"x_max":476,"o":"m 476 36 q 381 0 436 14 q 269 -14 326 -14 q 167 0 207 -14 q 103 43 126 14 q 70 115 79 72 q 61 217 61 158 l 61 671 q 63 684 61 679 q 76 691 65 689 q 110 694 86 693 q 178 694 133 694 l 178 207 q 196 112 178 139 q 271 85 214 85 q 316 90 290 85 q 364 110 342 94 l 364 671 q 366 684 364 679 q 378 691 368 689 q 412 694 389 693 q 476 694 435 694 l 476 36 m 254 997 q 278 1001 263 1001 q 313 985 296 1001 q 379 914 350 947 q 426 860 404 886 q 447 825 447 833 q 422 801 447 810 q 367 792 397 792 q 328 833 346 814 q 298 868 313 850 q 276 900 283 886 q 233 846 253 869 q 199 810 215 826 q 172 793 182 793 q 125 802 143 793 q 97 826 107 811 l 254 997 z "},"ü":{"ha":542,"x_min":61,"x_max":476,"o":"m 476 36 q 381 0 436 14 q 269 -14 326 -14 q 167 0 207 -14 q 103 43 126 14 q 70 115 79 72 q 61 217 61 158 l 61 671 q 63 684 61 679 q 76 691 65 689 q 110 694 86 693 q 178 694 133 694 l 178 207 q 196 112 178 139 q 271 85 214 85 q 316 90 290 85 q 364 110 342 94 l 364 671 q 366 684 364 679 q 378 691 368 689 q 412 694 389 693 q 476 694 435 694 l 476 36 m 110 888 q 128 937 110 915 q 178 958 146 958 q 231 939 215 958 q 247 888 247 919 q 228 837 247 857 q 178 817 210 817 q 125 835 140 817 q 110 888 110 854 m 308 888 q 326 937 308 915 q 375 958 343 958 q 428 939 413 958 q 444 888 444 919 q 426 837 444 857 q 375 817 408 817 q 323 835 338 817 q 308 888 308 854 z "},"ý":{"ha":494,"x_min":-6,"x_max":472,"o":"m 33 664 q 31 681 31 675 q 41 690 31 688 q 75 694 51 693 q 143 694 99 694 l 218 364 q 233 285 226 325 q 244 210 239 244 q 251 150 249 175 q 256 118 254 125 q 258 147 256 122 q 265 206 261 171 q 276 283 269 240 q 289 365 282 325 l 350 661 q 355 681 351 674 q 370 690 358 688 q 406 694 382 693 q 472 694 429 694 l 301 -37 q 268 -148 286 -104 q 227 -219 250 -192 q 174 -257 204 -246 q 107 -268 144 -268 q 19 -253 44 -268 q -6 -214 -6 -237 q -1 -180 -6 -199 q 11 -150 3 -161 q 50 -166 25 -160 q 99 -172 75 -172 q 158 -140 131 -172 q 200 -22 185 -108 l 33 664 m 233 790 q 216 800 224 790 q 203 822 208 810 q 190 854 196 836 q 244 910 214 881 q 303 963 275 939 q 351 1001 331 986 q 376 1017 372 1017 q 395 1008 386 1017 q 410 987 404 1000 q 422 959 417 974 q 428 932 426 944 q 394 903 419 922 q 340 861 369 883 q 281 819 310 839 q 233 790 251 800 z "},"ÿ":{"ha":494,"x_min":-6,"x_max":472,"o":"m 33 664 q 31 681 31 675 q 41 690 31 688 q 75 694 51 693 q 143 694 99 694 l 218 364 q 233 285 226 325 q 244 210 239 244 q 251 150 249 175 q 256 118 254 125 q 258 147 256 122 q 265 206 261 171 q 276 283 269 240 q 289 365 282 325 l 350 661 q 355 681 351 674 q 370 690 358 688 q 406 694 382 693 q 472 694 429 694 l 301 -37 q 268 -148 286 -104 q 227 -219 250 -192 q 174 -257 204 -246 q 107 -268 144 -268 q 19 -253 44 -268 q -6 -214 -6 -237 q -1 -180 -6 -199 q 11 -150 3 -161 q 50 -166 25 -160 q 99 -172 75 -172 q 158 -140 131 -172 q 200 -22 185 -108 l 33 664 m 92 888 q 110 937 92 915 q 160 958 128 958 q 213 939 197 958 q 229 888 229 919 q 210 837 229 857 q 160 817 192 817 q 107 835 122 817 q 92 888 92 854 m 290 888 q 308 937 290 915 q 357 958 325 958 q 410 939 394 958 q 426 888 426 919 q 408 837 426 857 q 357 817 390 817 q 305 835 319 817 q 290 888 290 854 z "},"ı":{"ha":243,"x_min":64,"x_max":179,"o":"m 179 22 q 177 9 179 14 q 164 2 175 4 q 130 0 153 0 q 64 0 107 0 l 64 643 q 69 673 64 663 q 87 688 74 683 q 122 694 100 693 q 179 694 144 694 l 179 22 z "},"Œ":{"ha":821,"x_min":38,"x_max":793,"o":"m 788 101 q 788 45 788 65 q 785 15 788 25 q 779 3 783 6 q 767 0 775 0 l 456 0 l 456 56 q 288 -12 397 -12 q 173 10 221 -12 q 95 91 125 33 q 51 245 65 149 q 38 490 38 342 q 53 721 38 626 q 101 874 68 815 q 183 958 133 932 q 300 985 232 985 q 389 972 350 985 q 456 928 428 958 l 456 949 q 458 960 456 954 q 466 968 461 964 q 479 972 471 972 l 793 972 q 793 917 793 938 q 791 887 793 897 q 785 874 789 876 q 772 871 781 871 l 550 871 l 550 581 l 760 581 q 760 528 760 549 q 758 496 760 507 q 751 481 756 485 q 739 476 747 476 l 550 476 l 550 101 l 788 101 m 164 464 q 170 298 164 367 q 191 185 176 229 q 231 119 206 140 q 293 99 256 99 q 356 120 331 99 q 395 190 381 142 q 416 312 410 238 q 422 493 422 386 q 417 670 422 597 q 399 790 413 743 q 360 857 385 836 q 299 878 336 878 q 237 856 263 878 q 195 783 211 833 q 172 655 179 733 q 164 464 164 576 z "},"œ":{"ha":832,"x_min":38,"x_max":792,"o":"m 38 347 q 98 622 38 538 q 267 707 158 707 q 365 690 324 707 q 433 628 406 672 q 516 694 468 679 q 615 708 564 708 q 792 488 792 708 q 788 391 792 440 q 776 304 785 342 q 700 292 740 297 q 620 285 660 288 q 546 283 581 283 q 486 282 511 282 q 496 183 488 219 q 519 126 504 146 q 555 101 533 107 q 604 96 576 96 q 696 108 654 96 q 774 139 738 119 q 781 93 779 124 q 783 39 783 63 q 768 23 783 32 q 726 6 753 14 q 665 -8 700 -3 q 592 -14 631 -14 q 492 1 536 -14 q 418 61 447 15 q 258 -14 364 -14 q 163 -1 204 -14 q 93 49 121 11 q 51 159 65 88 q 38 347 38 231 m 160 344 q 166 207 160 258 q 185 128 172 156 q 216 91 197 100 q 258 82 235 82 q 299 93 281 82 q 332 135 318 104 q 353 217 346 165 q 361 350 361 268 q 355 484 361 433 q 337 563 349 535 q 307 600 325 590 q 264 610 289 610 q 222 599 240 610 q 189 558 203 588 q 167 477 175 529 q 160 344 160 425 m 603 610 q 562 600 582 610 q 526 564 542 590 q 500 492 511 538 q 486 374 489 446 q 532 374 507 374 q 583 376 557 374 q 633 381 608 378 q 675 389 657 383 q 681 432 679 408 q 682 475 682 456 q 664 580 681 550 q 603 610 647 610 z "},"Š":{"ha":497,"x_min":35,"x_max":465,"o":"m 275 986 q 416 966 375 986 q 457 917 457 946 q 451 884 457 901 q 429 851 444 867 q 378 874 414 863 q 293 886 342 886 q 194 860 231 886 q 158 790 158 835 q 174 721 158 751 q 222 653 190 690 l 372 482 q 417 422 399 450 q 446 365 435 393 q 461 308 457 336 q 465 247 465 279 q 453 147 465 194 q 412 64 440 100 q 335 7 383 28 q 217 -14 288 -14 q 78 13 122 -14 q 35 69 35 40 q 42 108 35 86 q 64 150 49 131 q 122 116 86 131 q 207 101 157 101 q 313 140 282 101 q 343 243 343 179 q 326 331 343 290 q 263 424 308 371 l 122 586 q 56 691 75 644 q 36 786 36 738 q 97 930 36 874 q 275 986 157 986 m 281 1065 q 244 1085 269 1065 q 192 1131 219 1106 q 140 1183 164 1157 q 108 1219 115 1208 q 131 1266 115 1242 q 161 1290 146 1290 q 191 1272 171 1290 q 232 1231 211 1253 q 285 1171 257 1204 q 322 1219 304 1199 q 356 1256 340 1240 q 389 1288 372 1272 q 422 1263 410 1276 q 435 1236 435 1249 q 414 1197 435 1225 q 366 1140 393 1169 q 314 1088 339 1111 q 281 1065 289 1065 z "},"š":{"ha":479,"x_min":42,"x_max":444,"o":"m 269 708 q 358 700 324 708 q 411 680 392 692 q 438 654 431 668 q 444 631 444 640 q 419 574 444 601 q 283 610 360 610 q 204 592 235 610 q 174 543 174 575 q 183 505 174 524 q 229 457 193 486 l 358 353 q 422 270 403 308 q 440 179 440 232 q 379 36 440 86 q 211 -14 318 -14 q 89 3 136 -14 q 42 57 42 21 q 46 86 42 69 q 61 122 50 103 q 200 88 121 88 q 283 110 253 88 q 313 174 313 132 q 301 228 313 201 q 257 282 289 254 l 122 397 q 59 473 75 436 q 43 544 43 510 q 98 663 43 617 q 269 708 153 708 m 272 788 q 236 808 261 788 q 183 853 211 828 q 131 905 156 879 q 100 942 107 931 q 122 988 107 964 q 153 1013 138 1013 q 183 994 163 1013 q 224 953 203 975 q 276 893 249 926 q 314 942 296 921 q 347 978 332 963 q 381 1010 364 994 q 414 985 401 999 q 426 958 426 971 q 406 919 426 947 q 358 863 385 892 q 306 810 331 833 q 272 788 281 788 z "},"Ÿ":{"ha":506,"x_min":6,"x_max":500,"o":"m 200 393 l 8 954 q 7 965 6 961 q 21 970 8 968 q 60 972 33 972 q 136 972 88 972 l 192 782 q 213 705 201 749 q 235 619 225 661 q 251 542 244 576 q 260 492 258 507 q 269 542 261 507 q 286 619 276 576 q 308 705 296 661 q 329 782 319 749 l 378 951 q 383 964 381 960 q 398 970 386 968 q 433 972 410 972 q 500 972 457 972 l 313 401 l 313 22 q 311 9 313 14 q 299 2 310 4 q 266 0 289 0 q 200 0 243 0 l 200 393 m 94 1165 q 113 1215 94 1193 q 163 1236 131 1236 q 216 1217 200 1236 q 232 1165 232 1197 q 213 1115 232 1135 q 163 1094 194 1094 q 110 1113 125 1094 q 94 1165 94 1132 m 293 1165 q 310 1215 293 1193 q 360 1236 328 1236 q 413 1217 397 1236 q 429 1165 429 1197 q 411 1115 429 1135 q 360 1094 393 1094 q 308 1113 322 1094 q 293 1165 293 1132 z "},"Ž":{"ha":535,"x_min":21,"x_max":511,"o":"m 61 949 q 85 972 61 972 l 500 972 q 508 956 506 964 q 511 935 511 949 q 500 885 511 907 l 146 101 l 414 101 q 458 103 438 101 q 496 111 479 104 l 496 22 q 492 6 496 13 q 472 0 488 0 l 39 0 q 26 18 32 7 q 21 44 21 29 q 32 94 21 68 l 381 871 l 122 871 q 87 870 103 871 q 61 867 71 869 l 61 949 m 297 1065 q 261 1085 286 1065 q 208 1131 236 1106 q 156 1183 181 1157 q 125 1219 132 1208 q 147 1266 132 1242 q 178 1290 163 1290 q 208 1272 188 1290 q 249 1231 228 1253 q 301 1171 274 1204 q 339 1219 321 1199 q 372 1256 357 1240 q 406 1288 389 1272 q 439 1263 426 1276 q 451 1236 451 1249 q 431 1197 451 1225 q 383 1140 410 1169 q 331 1088 356 1111 q 297 1065 306 1065 z "},"ž":{"ha":464,"x_min":28,"x_max":436,"o":"m 424 694 q 429 686 426 692 q 434 675 432 682 q 436 660 436 668 q 433 637 436 650 q 422 604 431 624 l 161 104 l 283 104 q 375 109 342 104 q 429 119 408 114 q 433 94 432 110 q 433 69 433 79 q 424 17 432 33 q 388 0 415 0 l 47 0 q 38 13 42 4 q 28 56 28 26 q 38 99 28 78 l 307 599 l 165 599 q 93 597 125 599 q 39 592 61 594 q 35 624 36 611 q 35 646 35 638 q 71 694 35 694 l 424 694 m 246 788 q 210 808 235 788 q 157 853 185 828 q 105 905 129 879 q 74 942 81 931 q 96 988 81 964 q 126 1013 111 1013 q 156 994 136 1013 q 197 953 176 975 q 250 893 222 926 q 288 942 269 921 q 321 978 306 963 q 354 1010 338 994 q 388 985 375 999 q 400 958 400 971 q 379 919 400 947 q 331 863 358 892 q 279 810 304 833 q 246 788 254 788 z "},"ſ":{"ha":242,"x_min":53,"x_max":467,"o":"m 64 817 q 125 977 64 929 q 304 1025 186 1025 q 421 1003 375 1025 q 467 951 467 981 q 458 916 467 936 q 438 882 449 896 q 375 916 406 906 q 301 926 344 926 q 206 890 233 926 q 178 774 178 853 l 178 42 q 163 -1 178 8 q 111 -11 149 -11 q 83 -8 94 -11 q 65 -3 72 -6 q 53 6 57 1 q 58 35 56 19 q 63 65 61 49 q 64 101 64 82 l 64 817 z "},"ˆ":{"ha":350,"x_min":0,"x_max":350,"o":"m 157 997 q 181 1001 165 1001 q 215 985 199 1001 q 282 914 253 947 q 328 860 307 886 q 350 825 350 833 q 325 801 350 810 q 269 792 300 792 q 231 833 249 814 q 201 868 215 850 q 179 900 186 886 q 136 846 156 869 q 101 810 118 826 q 75 793 85 793 q 28 802 46 793 q 0 826 10 811 l 157 997 z "},"ˇ":{"ha":326,"x_min":0,"x_max":326,"o":"m 172 788 q 136 808 161 788 q 83 853 111 828 q 31 905 56 879 q 0 942 7 931 q 22 988 7 964 q 53 1013 38 1013 q 83 994 63 1013 q 124 953 103 975 q 176 893 149 926 q 214 942 196 921 q 247 978 232 963 q 281 1010 264 994 q 314 985 301 999 q 326 958 326 971 q 306 919 326 947 q 258 863 285 892 q 206 810 231 833 q 172 788 181 788 z "},"˙":{"ha":122,"x_min":0,"x_max":122,"o":"m 0 915 q 17 976 1 953 q 65 999 32 999 q 110 981 97 999 q 121 918 122 963 q 105 851 121 875 q 57 828 89 828 q 15 847 29 828 q 0 915 0 867 z "},"˚":{"ha":268,"x_min":0,"x_max":268,"o":"m 0 915 q 37 1019 0 986 q 139 1051 74 1051 q 237 1023 206 1051 q 268 917 268 994 q 233 815 268 849 q 131 781 197 781 q 33 809 67 781 q 0 915 0 838 m 81 914 q 132 857 81 857 q 174 871 158 857 q 189 917 189 885 q 140 974 189 974 q 97 960 113 974 q 81 914 81 946 z "},"˜":{"ha":408,"x_min":0,"x_max":408,"o":"m 0 867 q 78 948 36 925 q 157 971 119 971 q 193 960 179 971 q 219 938 207 950 q 244 916 231 926 q 278 906 257 906 q 317 914 303 906 q 339 932 331 922 q 353 950 347 942 q 368 958 360 958 q 384 948 376 958 q 397 926 392 938 q 408 896 403 913 q 394 874 406 890 q 362 841 382 858 q 315 810 342 824 q 257 797 289 797 q 214 808 229 797 q 188 831 199 818 q 166 853 176 843 q 136 864 156 864 q 106 856 118 864 q 84 837 93 847 q 68 818 75 826 q 54 810 61 810 q 33 818 43 810 q 15 838 22 826 q 0 867 7 850 z "},"–":{"ha":589,"x_min":51,"x_max":538,"o":"m 51 342 q 54 417 51 394 q 74 440 57 440 l 538 440 q 535 365 538 388 q 514 342 532 342 l 51 342 z "},"—":{"ha":972,"x_min":8,"x_max":964,"o":"m 8 342 q 11 417 8 394 q 31 440 14 440 l 964 440 q 961 365 964 388 q 940 342 958 342 l 8 342 z "},"‘":{"ha":243,"x_min":47,"x_max":196,"o":"m 193 871 q 174 819 193 840 q 122 799 154 799 q 47 881 47 799 q 60 958 47 918 q 90 1031 72 999 q 124 1083 107 1063 q 151 1104 142 1104 q 178 1097 167 1104 q 196 1072 190 1090 q 169 1001 174 1032 q 161 939 164 969 q 193 871 193 919 z "},"’":{"ha":243,"x_min":47,"x_max":196,"o":"m 50 1028 q 69 1080 50 1060 q 119 1100 89 1100 q 196 1018 196 1100 q 183 940 196 981 q 153 868 171 900 q 119 815 136 836 q 92 794 101 794 q 64 801 76 794 q 47 826 51 808 q 74 899 69 867 q 82 960 79 931 q 50 1028 50 979 z "},"‚":{"ha":238,"x_min":47,"x_max":196,"o":"m 50 75 q 69 126 50 106 q 119 147 89 147 q 196 65 196 147 q 183 -13 196 26 q 153 -85 171 -53 q 119 -138 136 -118 q 92 -158 101 -158 q 64 -151 76 -158 q 47 -126 51 -144 q 74 -55 69 -86 q 82 7 79 -24 q 50 75 50 26 z "},"“":{"ha":451,"x_min":47,"x_max":404,"o":"m 193 871 q 174 819 193 840 q 122 799 154 799 q 47 881 47 799 q 60 958 47 918 q 90 1031 72 999 q 124 1083 107 1063 q 151 1104 142 1104 q 178 1097 167 1104 q 196 1072 190 1090 q 169 1001 174 1032 q 161 939 164 969 q 193 871 193 919 m 401 871 q 382 819 401 840 q 332 799 363 799 q 256 881 256 799 q 268 958 256 918 q 298 1031 281 999 q 333 1083 315 1063 q 360 1104 350 1104 q 388 1097 375 1104 q 404 1072 400 1090 q 377 1001 382 1032 q 369 939 372 969 q 401 871 401 919 z "},"”":{"ha":451,"x_min":47,"x_max":406,"o":"m 258 1028 q 278 1080 258 1060 q 329 1100 297 1100 q 406 1018 406 1100 q 393 940 406 981 q 363 868 381 900 q 328 815 346 836 q 300 794 310 794 q 273 801 285 794 q 257 826 261 808 q 283 899 278 867 q 290 960 288 931 q 258 1028 258 979 m 50 1028 q 69 1080 50 1060 q 119 1100 89 1100 q 196 1018 196 1100 q 183 940 196 981 q 153 868 171 900 q 119 815 136 836 q 92 794 101 794 q 64 801 76 794 q 47 826 51 808 q 74 899 69 867 q 82 960 79 931 q 50 1028 50 979 z "},"„":{"ha":447,"x_min":47,"x_max":406,"o":"m 258 75 q 278 126 258 106 q 329 147 297 147 q 406 65 406 147 q 393 -13 406 26 q 363 -85 381 -53 q 328 -138 346 -118 q 300 -158 310 -158 q 273 -151 285 -158 q 257 -126 261 -144 q 283 -55 278 -86 q 290 7 288 -24 q 258 75 258 26 m 50 75 q 69 126 50 106 q 119 147 89 147 q 196 65 196 147 q 183 -13 196 26 q 153 -85 171 -53 q 119 -138 136 -118 q 92 -158 101 -158 q 64 -151 76 -158 q 47 -126 51 -144 q 74 -55 69 -86 q 82 7 79 -24 q 50 75 50 26 z "},"•":{"ha":310,"x_min":57,"x_max":263,"o":"m 57 394 q 83 469 57 438 q 158 501 110 501 q 239 472 215 501 q 263 394 263 443 q 235 319 263 350 q 158 289 207 289 q 79 317 101 289 q 57 394 57 346 z "},"…":{"ha":725,"x_min":50,"x_max":676,"o":"m 50 71 q 70 127 50 103 q 128 151 90 151 q 188 129 171 151 q 206 71 206 107 q 185 15 206 38 q 128 -8 164 -8 q 67 13 83 -8 q 50 71 50 33 m 285 71 q 305 127 285 103 q 363 151 325 151 q 423 129 406 151 q 440 71 440 107 q 419 15 440 38 q 363 -8 399 -8 q 301 13 318 -8 q 285 71 285 33 m 521 71 q 541 127 521 103 q 599 151 561 151 q 659 129 642 151 q 676 71 676 107 q 656 15 676 38 q 599 -8 635 -8 q 538 13 554 -8 q 521 71 521 33 z "},"‰":{"ha":1363,"x_min":61,"x_max":1301,"o":"m 215 -12 q 181 0 196 -7 q 156 13 167 6 q 146 31 146 21 l 707 985 q 739 971 724 978 q 760 956 750 964 q 771 936 771 947 q 747 891 771 933 q 684 781 724 849 q 594 628 644 714 q 493 456 544 543 q 215 -12 371 249 m 61 731 q 113 924 61 863 q 258 985 164 985 q 339 973 304 985 q 397 932 374 961 q 431 854 419 903 q 443 732 443 806 q 394 535 443 597 q 250 472 344 472 q 169 482 204 472 q 109 519 133 492 q 73 598 85 547 q 61 731 61 649 m 169 728 q 175 642 169 675 q 191 590 181 608 q 217 566 201 572 q 253 560 232 560 q 287 568 271 560 q 314 596 303 576 q 332 648 325 615 q 339 731 339 681 q 334 815 339 782 q 319 865 329 847 q 294 890 308 883 q 258 897 279 897 q 222 890 238 897 q 194 863 206 882 q 176 810 182 843 q 169 728 169 778 m 506 244 q 557 438 506 378 q 703 499 608 499 q 783 487 749 499 q 841 447 818 475 q 876 369 864 418 q 888 247 888 321 q 838 50 888 113 q 693 -12 789 -12 q 613 -3 647 -12 q 553 35 578 7 q 517 113 529 63 q 506 244 506 163 m 614 242 q 619 156 614 189 q 635 106 625 124 q 661 81 646 88 q 697 75 676 75 q 731 83 715 75 q 758 111 746 92 q 776 163 769 131 q 782 246 782 196 q 777 330 782 297 q 763 381 772 363 q 738 405 753 399 q 701 411 722 411 q 665 403 682 411 q 638 377 649 396 q 620 325 626 358 q 614 242 614 292 m 921 244 q 972 438 921 378 q 1117 499 1024 499 q 1197 487 1163 499 q 1255 447 1232 475 q 1290 369 1278 418 q 1301 247 1301 321 q 1252 50 1301 113 q 1108 -12 1203 -12 q 1027 -3 1063 -12 q 968 35 992 7 q 933 113 944 63 q 921 244 921 163 m 1028 242 q 1033 156 1028 189 q 1049 106 1039 124 q 1075 81 1060 88 q 1111 75 1090 75 q 1173 111 1149 75 q 1197 246 1197 147 q 1192 330 1197 297 q 1178 381 1188 363 q 1153 405 1168 399 q 1117 411 1138 411 q 1081 403 1097 411 q 1052 377 1064 396 q 1034 325 1040 358 q 1028 242 1028 292 z "},"‹":{"ha":343,"x_min":25,"x_max":297,"o":"m 25 347 q 33 376 25 356 q 56 422 42 396 q 88 478 71 447 q 125 539 106 508 q 226 694 169 610 q 256 685 243 694 q 276 665 268 676 q 294 638 286 653 q 288 610 294 628 q 269 569 281 592 q 242 522 257 547 q 213 472 228 497 q 131 347 176 414 q 214 225 178 281 q 244 177 229 201 q 272 131 260 153 q 290 92 283 108 q 297 65 297 75 q 281 32 290 47 q 259 10 272 19 q 231 0 246 0 q 128 154 174 83 q 90 215 108 185 q 58 272 72 246 q 34 317 43 297 q 25 347 25 338 z "},"›":{"ha":343,"x_min":44,"x_max":318,"o":"m 318 347 q 309 317 318 338 q 285 272 300 297 q 253 215 271 246 q 215 154 235 185 q 113 0 169 83 q 78 15 93 6 q 55 35 65 22 q 44 65 44 47 q 51 92 44 75 q 70 131 58 108 q 97 177 82 153 q 128 225 113 201 q 211 347 164 281 q 129 472 165 414 q 99 522 114 497 q 74 569 85 547 q 56 610 63 592 q 49 638 49 628 q 59 663 49 653 q 82 681 69 674 q 115 694 97 689 q 217 539 171 610 q 253 478 235 508 q 286 422 272 447 q 309 376 300 396 q 318 347 318 356 z "},"⁄":{"ha":271,"x_min":-149,"x_max":432,"o":"m -36 7 q -47 -7 -39 0 q -69 -14 -54 -14 q -108 -3 -86 -14 q -149 26 -131 7 l 317 960 q 329 978 321 971 q 356 986 338 986 q 394 976 374 986 q 432 946 414 967 l -36 7 z "},"€":{"ha":579,"x_min":22,"x_max":549,"o":"m 411 842 q 476 835 450 842 q 519 821 503 829 q 542 803 535 813 q 549 786 549 793 q 544 742 549 763 q 531 710 539 721 q 494 728 519 717 q 439 739 468 739 q 394 733 418 739 q 349 708 371 726 q 308 655 326 689 q 278 565 290 621 l 476 565 q 469 492 476 514 q 432 471 461 471 l 265 471 q 263 430 263 451 q 263 385 263 408 l 263 368 l 431 368 q 423 297 431 318 q 386 275 415 275 l 267 275 q 284 181 272 217 q 313 127 296 146 q 353 103 331 108 q 401 97 375 97 q 472 107 439 97 q 524 132 504 117 q 535 102 531 121 q 540 60 540 83 q 528 36 540 49 q 495 13 517 24 q 444 -6 474 1 q 379 -12 414 -12 q 292 -2 332 -12 q 222 39 251 8 q 172 126 192 69 q 144 275 151 182 l 22 275 q 30 347 22 326 q 67 368 38 368 l 142 368 l 142 381 q 142 427 142 404 q 144 471 142 450 l 22 471 q 30 544 22 522 q 67 565 38 565 l 154 565 q 197 708 168 654 q 260 792 225 763 q 334 832 294 822 q 411 842 374 842 z "},"™":{"ha":699,"x_min":42,"x_max":628,"o":"m 353 960 q 354 965 353 963 q 367 972 357 972 l 406 972 l 467 797 q 474 773 469 786 q 483 749 479 760 q 493 721 489 735 q 501 749 497 735 q 508 772 504 760 q 515 794 513 785 l 571 960 q 574 968 572 964 q 583 972 576 972 l 628 972 l 628 543 q 627 536 628 539 q 621 532 626 533 q 603 531 615 531 q 569 531 592 531 l 571 685 q 572 722 571 700 q 576 768 574 744 q 579 813 578 792 q 582 846 581 833 l 547 735 l 508 632 q 501 626 507 626 l 472 626 l 432 735 l 397 851 q 403 786 400 818 q 407 731 406 758 q 408 685 408 703 l 410 543 q 401 532 410 533 q 353 531 393 531 l 353 960 m 213 918 l 213 543 q 212 536 213 539 q 206 532 211 533 q 189 531 200 531 q 156 531 178 531 l 156 918 l 42 918 l 42 960 q 47 971 42 968 q 54 972 50 972 l 318 972 l 318 931 q 311 919 318 922 q 304 918 307 918 l 213 918 z "},"−":{"ha":579,"x_min":47,"x_max":533,"o":"m 47 342 q 50 417 47 394 q 71 440 53 440 l 533 440 q 531 365 533 388 q 511 342 528 342 l 47 342 z "},"ﬀ":{"ha":633,"x_min":17,"x_max":756,"o":"m 225 599 l 225 22 q 222 11 225 17 q 203 0 217 0 l 113 0 l 113 599 l 17 599 q 17 651 17 632 q 21 680 18 671 q 29 692 24 689 q 46 694 35 694 l 113 694 l 113 790 q 135 914 113 868 q 192 983 158 960 q 263 1013 225 1007 q 331 1019 300 1019 q 406 1008 371 1019 q 469 981 442 997 q 547 1017 504 1008 q 628 1026 589 1026 q 726 1010 696 1026 q 756 961 756 994 q 753 937 756 951 q 744 907 750 922 q 694 921 718 918 q 646 924 669 924 q 593 919 618 924 q 549 901 568 915 q 518 859 529 886 q 507 788 507 832 l 507 694 l 631 694 q 630 642 631 661 q 627 613 629 622 q 620 601 625 604 q 607 599 615 599 l 507 599 l 507 22 q 504 11 507 17 q 483 0 499 0 l 394 0 l 394 599 l 225 599 m 225 694 l 394 694 l 394 778 q 414 904 394 853 q 378 919 397 914 q 332 924 360 924 q 300 921 318 924 q 265 906 282 918 q 237 870 249 894 q 225 803 225 846 l 225 694 z "},"ﬁ":{"ha":558,"x_min":14,"x_max":519,"o":"m 496 22 q 494 9 496 14 q 481 2 492 4 q 448 0 471 0 q 382 0 425 0 l 382 643 q 387 673 382 663 q 404 688 392 683 q 439 694 417 693 q 496 694 461 694 l 496 22 m 14 599 q 15 651 14 632 q 18 680 15 671 q 26 692 21 689 q 43 694 32 694 l 110 694 l 110 778 q 132 910 110 861 q 190 985 154 958 q 271 1019 226 1011 q 360 1026 315 1026 q 478 1009 438 1026 q 519 958 519 992 q 517 926 519 944 q 508 893 514 908 q 442 915 481 907 q 364 924 403 924 q 310 919 336 924 q 265 901 285 915 q 234 858 246 886 q 222 781 222 829 l 222 694 l 319 694 q 319 642 319 661 q 315 613 318 622 q 308 601 313 604 q 296 599 304 599 l 222 599 l 222 22 q 219 11 222 17 q 200 0 214 0 l 110 0 l 110 599 l 14 599 z "},"ﬂ":{"ha":572,"x_min":14,"x_max":508,"o":"m 14 599 q 15 651 14 632 q 18 680 15 671 q 26 692 21 689 q 43 694 32 694 l 110 694 l 110 778 q 132 910 110 861 q 187 984 154 958 q 258 1017 219 1010 q 328 1025 296 1025 q 428 1012 381 1025 q 508 978 475 999 l 508 22 q 506 11 508 17 q 486 0 500 0 l 396 0 l 396 922 q 364 930 381 928 q 335 932 347 932 q 297 928 317 932 q 261 911 278 925 q 233 870 244 897 q 222 796 222 843 l 222 694 l 333 694 q 333 642 333 661 q 330 613 332 622 q 323 601 328 604 q 310 599 318 599 l 222 599 l 222 22 q 219 11 222 17 q 199 0 214 0 l 110 0 l 110 599 l 14 599 z "},"ﬃ":{"ha":842,"x_min":14,"x_max":801,"o":"m 14 599 q 15 651 14 632 q 18 680 15 671 q 26 692 21 689 q 43 694 32 694 l 110 694 l 110 790 q 132 914 110 868 q 188 983 154 960 q 259 1013 221 1007 q 328 1019 297 1019 q 403 1008 368 1019 q 467 981 439 997 q 549 1017 503 1008 q 642 1026 594 1026 q 760 1009 718 1026 q 801 958 801 992 q 798 926 801 944 q 789 893 794 908 q 722 915 761 907 q 644 924 683 924 q 591 919 617 924 q 546 901 565 915 q 515 858 526 886 q 503 781 503 829 l 503 694 l 600 694 q 599 642 600 661 q 597 613 599 622 q 590 601 594 604 q 576 599 585 599 l 503 599 l 503 22 q 500 11 503 17 q 481 0 494 0 l 390 0 l 390 599 l 222 599 l 222 22 q 219 11 222 17 q 199 0 214 0 l 110 0 l 110 599 l 14 599 m 778 22 q 776 9 778 14 q 763 2 774 4 q 728 0 751 0 q 663 0 706 0 l 663 643 q 667 673 663 663 q 685 688 672 683 q 721 694 699 693 q 778 694 743 694 l 778 22 m 390 778 q 410 904 390 854 q 374 919 393 914 q 328 924 354 924 q 296 921 314 924 q 261 906 278 918 q 233 870 244 894 q 222 803 222 846 l 222 694 l 390 694 l 390 778 z "},"ﬄ":{"ha":856,"x_min":14,"x_max":792,"o":"m 14 599 q 15 651 14 632 q 18 680 15 671 q 26 692 21 689 q 43 694 32 694 l 110 694 l 110 790 q 132 914 110 868 q 188 983 154 960 q 259 1013 221 1007 q 328 1019 297 1019 q 401 1009 367 1019 q 464 982 436 999 q 536 1018 497 1010 q 608 1026 575 1026 q 719 1010 674 1026 q 792 979 765 994 l 792 22 q 790 9 792 14 q 777 2 788 4 q 744 0 767 0 q 678 0 721 0 l 678 915 q 652 922 667 919 q 617 925 638 925 q 577 922 597 925 q 540 905 557 918 q 513 865 524 892 q 503 794 503 839 l 503 694 l 599 694 q 598 642 599 661 q 595 613 597 622 q 588 601 593 604 q 575 599 583 599 l 503 599 l 503 22 q 500 11 503 17 q 481 0 494 0 l 390 0 l 390 599 l 222 599 l 222 22 q 219 11 222 17 q 199 0 214 0 l 110 0 l 110 599 l 14 599 m 390 778 q 410 904 390 854 q 374 919 393 914 q 328 924 354 924 q 296 921 314 924 q 261 906 278 918 q 233 870 244 894 q 222 803 222 846 l 222 694 l 390 694 l 390 778 z "},"Ð":{"ha":546,"x_min":6,"x_max":506,"o":"m 233 972 q 353 951 301 972 q 438 882 404 931 q 489 751 472 833 q 506 547 506 669 q 488 285 506 390 q 435 117 469 181 q 349 26 400 53 q 235 0 299 0 l 61 0 l 61 458 l 6 458 q 8 535 6 511 q 29 558 11 558 l 61 558 l 61 946 q 68 965 61 958 q 99 972 75 972 l 233 972 m 376 547 q 368 706 376 643 q 342 804 360 768 q 299 854 325 840 q 238 868 272 868 l 174 868 l 174 558 l 283 558 q 281 482 283 506 q 261 458 278 458 l 174 458 l 174 108 l 236 107 q 288 122 263 107 q 333 183 314 136 q 365 316 353 229 q 376 547 376 403 z "},"Ł":{"ha":440,"x_min":-4,"x_max":413,"o":"m 174 565 l 308 603 q 324 528 321 551 q 310 501 326 506 l 174 464 l 174 106 l 413 106 l 413 22 q 410 11 413 17 q 389 0 404 0 l 60 0 l 60 433 l 13 421 q -2 494 0 471 q 13 522 -4 518 l 60 535 l 60 940 q 62 959 60 953 q 75 968 64 965 q 109 972 86 971 q 174 972 132 972 l 174 565 z "},"ł":{"ha":240,"x_min":-8,"x_max":254,"o":"m 176 560 l 236 576 q 251 502 249 525 q 238 475 254 479 l 176 457 l 176 22 q 175 9 176 14 q 163 2 174 4 q 130 0 153 0 q 64 0 107 0 l 64 426 l 8 411 q -6 485 -4 463 q 8 514 -8 508 l 64 529 l 64 969 q 69 999 64 989 q 86 1015 74 1010 q 121 1020 99 1019 q 176 1021 143 1021 l 176 560 z "},"¹":{"ha":529,"x_min":61,"x_max":468,"o":"m 79 832 q 65 886 65 856 q 76 919 65 907 q 103 939 88 932 q 158 956 128 947 q 219 971 189 964 q 273 982 249 978 q 308 986 297 986 q 327 985 315 986 q 343 982 339 985 l 343 508 l 464 508 q 468 458 468 479 q 461 414 468 426 q 435 401 454 401 l 68 401 q 63 429 64 417 q 61 450 61 442 q 69 493 61 478 q 100 508 76 508 l 229 508 l 229 863 l 79 832 z "},"³":{"ha":532,"x_min":61,"x_max":471,"o":"m 164 708 q 172 733 164 724 q 200 743 179 743 q 272 739 236 743 q 313 780 301 760 q 325 824 325 800 q 307 865 325 846 q 236 885 289 885 q 158 872 194 885 q 93 839 121 860 q 70 890 72 861 q 83 932 68 919 q 157 969 107 953 q 283 986 207 986 q 413 950 374 986 q 451 861 451 914 q 376 717 451 781 q 446 663 421 697 q 471 588 471 629 q 452 499 471 536 q 401 436 433 461 q 324 399 368 411 q 228 388 279 388 q 132 399 169 388 q 79 422 94 410 q 61 465 61 436 q 69 499 61 482 q 89 526 76 515 q 142 502 110 513 q 224 492 175 492 q 319 514 283 492 q 354 578 354 536 q 333 628 354 610 q 275 653 313 647 q 228 656 256 656 q 176 657 201 657 q 169 680 174 661 q 164 708 164 699 z "},"²":{"ha":533,"x_min":56,"x_max":476,"o":"m 92 818 q 74 857 78 843 q 71 888 71 871 q 90 925 71 907 q 141 956 110 943 q 210 978 172 969 q 285 986 247 986 q 368 976 335 986 q 422 946 401 965 q 449 899 442 926 q 457 839 457 872 q 433 744 457 789 q 373 660 408 700 q 298 581 338 619 q 226 508 258 543 l 469 508 q 475 481 474 493 q 476 458 476 469 q 440 401 476 401 l 64 401 q 56 439 56 422 q 60 470 56 454 q 72 497 64 486 q 158 586 114 546 q 239 663 203 626 q 298 731 275 699 q 321 799 321 764 q 304 849 321 828 q 232 871 288 871 q 153 855 188 871 q 92 818 119 839 z "},"⁴":{"ha":550,"x_min":56,"x_max":510,"o":"m 418 606 l 501 606 q 507 583 504 596 q 510 553 510 569 q 500 513 510 528 q 475 499 490 499 l 418 499 l 418 428 q 358 393 418 393 q 337 394 349 393 q 313 399 325 396 l 313 499 l 75 499 q 56 554 56 522 q 58 575 56 564 q 65 600 61 586 q 101 690 78 642 q 153 785 125 738 q 213 874 182 832 q 274 943 244 915 q 322 978 297 971 q 372 986 346 986 q 397 984 383 986 q 418 979 410 982 l 418 606 m 317 599 l 322 857 q 276 809 300 839 q 228 744 251 779 q 188 671 206 708 q 160 599 169 633 l 317 599 z "},"½":{"ha":1250,"x_min":61,"x_max":1188,"o":"m 79 832 q 65 886 65 856 q 76 919 65 907 q 103 939 88 932 q 158 956 128 947 q 219 971 189 964 q 273 982 249 978 q 308 986 297 986 q 327 985 315 986 q 343 982 339 985 l 343 508 l 464 508 q 468 458 468 479 q 461 414 468 426 q 435 401 454 401 l 68 401 q 63 429 64 417 q 61 450 61 442 q 69 493 61 478 q 100 508 76 508 l 229 508 l 229 863 l 79 832 m 458 7 q 448 -7 456 0 q 425 -14 440 -14 q 386 -3 408 -14 q 346 26 364 7 l 811 960 q 824 978 815 971 q 850 986 832 986 q 888 976 868 986 q 926 946 908 967 l 458 7 m 803 417 q 785 456 789 442 q 782 486 782 469 q 801 524 782 506 q 852 555 821 542 q 921 576 883 568 q 996 585 958 585 q 1079 574 1046 585 q 1133 544 1113 564 q 1160 498 1153 525 q 1168 438 1168 471 q 1144 343 1168 388 q 1084 258 1119 299 q 1009 180 1049 218 q 938 107 969 142 l 1181 107 q 1186 80 1185 92 q 1188 57 1188 68 q 1151 0 1188 0 l 775 0 q 767 38 767 21 q 771 69 767 53 q 783 96 775 85 q 869 185 825 144 q 950 261 914 225 q 1009 330 986 297 q 1032 397 1032 363 q 1015 448 1032 426 q 943 469 999 469 q 865 453 899 469 q 803 417 831 438 z "},"¼":{"ha":1207,"x_min":61,"x_max":1146,"o":"m 79 832 q 65 886 65 856 q 76 919 65 907 q 103 939 88 932 q 158 956 128 947 q 219 971 189 964 q 273 982 249 978 q 308 986 297 986 q 327 985 315 986 q 343 982 339 985 l 343 508 l 464 508 q 468 458 468 479 q 461 414 468 426 q 435 401 454 401 l 68 401 q 63 429 64 417 q 61 450 61 442 q 69 493 61 478 q 100 508 76 508 l 229 508 l 229 863 l 79 832 m 1054 206 l 1138 206 q 1143 183 1140 196 q 1146 153 1146 169 q 1136 113 1146 128 q 1111 99 1126 99 l 1054 99 l 1054 28 q 994 -7 1054 -7 q 973 -6 985 -7 q 949 -1 961 -4 l 949 99 l 711 99 q 692 154 692 122 q 694 175 692 164 q 701 200 697 186 q 738 290 714 242 q 790 385 761 338 q 849 474 818 432 q 910 543 881 515 q 958 578 933 571 q 1008 586 982 586 q 1033 584 1019 586 q 1054 579 1046 582 l 1054 206 m 953 199 l 958 457 q 912 409 936 439 q 865 344 888 379 q 824 271 842 308 q 796 199 806 233 l 953 199 m 458 7 q 448 -7 456 0 q 425 -14 440 -14 q 386 -3 408 -14 q 346 26 364 7 l 811 960 q 824 978 815 971 q 850 986 832 986 q 888 976 868 986 q 926 946 908 967 l 458 7 z "},"¾":{"ha":1203,"x_min":61,"x_max":1142,"o":"m 164 708 q 172 733 164 724 q 200 743 179 743 q 272 739 236 743 q 313 780 301 760 q 325 824 325 800 q 307 865 325 846 q 236 885 289 885 q 158 872 194 885 q 93 839 121 860 q 70 890 72 861 q 83 932 68 919 q 157 969 107 953 q 283 986 207 986 q 413 950 374 986 q 451 861 451 914 q 376 717 451 781 q 446 663 421 697 q 471 588 471 629 q 452 499 471 536 q 401 436 433 461 q 324 399 368 411 q 228 388 279 388 q 132 399 169 388 q 79 422 94 410 q 61 465 61 436 q 69 499 61 482 q 89 526 76 515 q 142 502 110 513 q 224 492 175 492 q 319 514 283 492 q 354 578 354 536 q 333 628 354 610 q 275 653 313 647 q 228 656 256 656 q 176 657 201 657 q 169 680 174 661 q 164 708 164 699 m 1050 206 l 1133 206 q 1139 183 1136 196 q 1142 153 1142 169 q 1132 113 1142 128 q 1107 99 1122 99 l 1050 99 l 1050 28 q 990 -7 1050 -7 q 969 -6 981 -7 q 944 -1 957 -4 l 944 99 l 707 99 q 688 154 688 122 q 690 175 688 164 q 697 200 693 186 q 733 290 710 242 q 785 385 757 338 q 845 474 814 432 q 906 543 876 515 q 953 578 929 571 q 1004 586 978 586 q 1028 584 1015 586 q 1050 579 1042 582 l 1050 206 m 949 199 l 954 457 q 908 409 932 439 q 860 344 883 379 q 819 271 838 308 q 792 199 801 233 l 949 199 m 454 7 q 444 -7 451 0 q 421 -14 436 -14 q 382 -3 404 -14 q 342 26 360 7 l 807 960 q 819 978 811 971 q 846 986 828 986 q 884 976 864 986 q 922 946 904 967 l 454 7 z "},"¦":{"ha":315,"x_min":101,"x_max":214,"o":"m 214 492 q 203 460 214 468 q 156 453 192 453 q 130 454 146 453 q 101 458 114 456 l 101 988 q 113 1022 101 1013 q 160 1032 125 1032 q 187 1030 172 1032 q 214 1024 201 1028 l 214 492 m 214 -235 q 203 -267 214 -260 q 156 -275 192 -275 q 130 -274 146 -275 q 101 -268 114 -272 l 101 267 q 113 302 101 292 q 160 313 125 313 q 187 310 172 313 q 214 304 201 308 l 214 -235 z "},"<":{"ha":556,"x_min":54,"x_max":500,"o":"m 201 354 l 500 221 q 483 158 499 185 q 450 132 467 132 q 411 143 438 132 l 72 293 q 54 358 54 325 q 63 394 54 378 q 90 419 71 410 l 457 599 q 486 560 476 581 q 497 522 496 539 q 476 489 497 499 l 201 354 z "},">":{"ha":556,"x_min":60,"x_max":507,"o":"m 360 363 l 60 496 q 78 558 63 532 q 111 583 94 583 q 149 574 125 583 l 488 424 q 507 358 507 393 q 469 297 507 315 l 103 118 q 75 156 85 136 q 64 193 65 176 q 83 228 64 218 l 360 363 z "},"^":{"ha":597,"x_min":67,"x_max":528,"o":"m 153 303 q 132 292 139 294 q 118 289 125 289 q 81 307 94 289 q 67 347 68 325 l 307 553 l 508 376 q 528 339 528 358 q 513 304 528 319 q 474 286 497 289 l 294 407 l 153 303 z "},"{":{"ha":383,"x_min":57,"x_max":360,"o":"m 339 1033 q 355 999 350 1018 q 360 964 360 981 q 340 924 360 928 q 265 893 290 919 q 239 813 239 867 q 246 697 239 761 q 253 558 253 633 q 232 461 253 490 q 178 417 211 432 q 233 375 214 403 q 253 285 253 347 q 246 148 253 210 q 239 31 239 86 q 246 -34 239 -10 q 267 -73 253 -58 q 301 -94 281 -87 q 350 -104 322 -100 q 354 -147 354 -132 q 344 -192 354 -175 q 315 -208 335 -208 q 167 -161 211 -208 q 124 -21 124 -114 q 126 48 124 15 q 133 113 129 81 q 140 180 138 146 q 143 253 143 214 q 123 331 143 308 q 65 361 103 354 q 58 385 60 372 q 57 407 57 397 q 63 441 57 426 q 81 464 69 456 q 105 481 93 472 q 125 502 117 489 q 138 537 133 515 q 143 593 143 558 q 133 738 143 668 q 124 869 124 807 q 140 944 124 913 q 184 994 156 975 q 252 1024 213 1014 q 339 1033 292 1033 z "},"}":{"ha":383,"x_min":25,"x_max":328,"o":"m 46 -208 q 30 -174 35 -193 q 25 -137 25 -156 q 46 -99 25 -103 q 120 -68 94 -94 q 146 13 146 -42 q 139 127 146 64 q 132 265 132 190 q 152 365 132 335 q 206 408 172 394 q 151 450 171 422 q 132 540 132 478 q 139 677 132 615 q 146 794 146 739 q 139 858 146 833 q 117 898 132 883 q 82 919 103 913 q 35 929 61 925 q 29 972 29 953 q 40 1017 29 1000 q 71 1033 51 1033 q 218 985 175 1033 q 261 846 261 938 q 258 777 261 810 q 251 712 256 744 q 244 645 247 679 q 242 572 242 611 q 261 494 242 517 q 318 464 281 471 q 328 418 328 440 q 303 363 328 378 q 279 345 290 354 q 260 322 268 336 q 247 287 251 308 q 242 232 242 265 q 251 88 242 157 q 261 -44 261 18 q 245 -119 261 -89 q 201 -170 229 -150 q 133 -199 172 -190 q 46 -208 93 -208 z "},"~":{"ha":556,"x_min":15,"x_max":543,"o":"m 15 369 q 41 399 24 383 q 82 428 58 415 q 134 449 106 440 q 194 457 163 457 q 251 448 229 457 q 291 427 274 439 q 327 406 308 415 q 375 397 346 397 q 430 412 404 397 q 472 446 456 426 q 519 442 499 463 q 543 383 540 421 q 517 353 533 369 q 478 324 500 338 q 427 303 456 311 q 365 294 399 294 q 305 304 328 294 q 263 325 282 314 q 227 346 244 336 q 183 356 210 356 q 146 348 163 356 q 115 331 129 340 q 88 313 100 321 q 64 303 75 304 q 31 319 44 301 q 15 369 18 338 z "},"†":{"ha":597,"x_min":42,"x_max":554,"o":"m 240 928 q 256 969 235 956 q 304 982 276 982 q 363 957 340 982 l 331 711 q 306 687 324 688 q 272 697 288 686 l 240 928 m 501 715 q 541 704 528 725 q 554 654 554 683 q 548 620 554 636 q 531 594 542 604 l 364 624 q 340 649 342 631 q 349 683 339 667 l 501 715 m 96 596 q 56 610 69 590 q 42 656 42 631 q 48 690 42 674 q 68 718 54 707 l 235 686 q 262 658 261 676 q 251 625 263 640 l 96 596 m 360 46 q 343 5 363 18 q 299 -8 324 -8 q 265 -2 281 -8 q 238 17 249 4 l 269 589 q 278 609 271 603 q 294 617 285 615 q 313 615 303 618 q 329 606 322 611 l 360 46 z "},"°":{"ha":497,"x_min":115,"x_max":383,"o":"m 115 901 q 152 1004 115 972 q 254 1036 189 1036 q 352 1008 321 1036 q 383 903 383 981 q 348 800 383 833 q 246 767 313 767 q 149 794 182 767 q 115 901 115 821 m 192 900 q 247 839 192 839 q 292 853 275 839 q 308 903 308 867 q 295 950 308 936 q 256 964 282 964 q 208 949 225 964 q 192 900 192 935 z "},"£":{"ha":508,"x_min":21,"x_max":468,"o":"m 219 385 q 222 244 219 310 q 231 113 225 178 l 447 103 q 454 76 453 89 q 456 51 456 63 q 435 12 456 24 q 385 0 414 0 l 122 0 q 112 194 115 96 q 107 385 108 293 l 21 385 q 24 460 21 438 q 43 483 26 483 l 107 483 q 126 644 110 579 q 172 751 143 710 q 241 809 201 792 q 331 826 281 826 q 426 808 385 826 q 468 753 468 790 q 465 718 468 733 q 454 683 461 703 q 408 706 431 699 q 356 713 385 713 q 302 703 326 713 q 260 668 278 693 q 231 599 242 643 q 219 483 221 554 l 400 483 q 397 408 400 431 q 378 385 394 385 l 219 385 z "},"§":{"ha":483,"x_min":49,"x_max":432,"o":"m 274 976 q 378 957 342 976 q 422 918 414 938 q 425 906 425 911 q 425 894 425 900 q 404 825 425 857 q 354 849 381 840 q 292 857 328 857 q 217 839 243 857 q 192 793 192 821 q 202 755 192 772 q 233 714 213 738 q 265 682 246 700 q 306 643 285 664 q 347 601 326 622 q 382 560 367 579 q 419 501 407 528 q 432 433 432 474 q 415 361 432 400 q 354 293 397 322 l 367 279 q 406 217 394 243 q 418 156 418 190 q 402 88 418 118 q 358 38 386 58 q 290 6 329 17 q 207 -6 251 -6 q 103 15 139 -6 q 60 54 67 35 q 56 67 57 61 q 56 76 56 72 q 76 146 56 114 q 126 122 100 131 q 189 114 153 114 q 263 132 238 114 q 289 178 289 150 q 278 216 289 199 q 247 257 268 233 q 215 290 235 271 q 175 328 196 308 q 134 370 154 349 q 99 411 114 392 q 61 471 74 443 q 49 539 49 499 q 66 610 49 572 q 126 678 83 649 q 115 692 118 686 q 76 755 88 728 q 64 815 64 782 q 80 883 64 853 q 124 933 96 913 q 190 965 151 954 q 274 976 229 976 m 196 438 q 228 404 208 421 q 271 368 247 388 q 312 402 297 379 q 326 442 326 425 q 316 489 326 468 q 286 533 306 510 q 252 568 272 551 q 208 603 232 585 q 168 570 182 593 q 154 529 154 547 q 165 482 154 503 q 196 438 176 461 z "},"¶":{"ha":751,"x_min":46,"x_max":689,"o":"m 489 36 q 471 3 489 10 q 433 -4 453 -4 q 399 -1 414 -4 q 375 4 385 1 l 375 285 q 324 269 356 274 q 265 264 293 264 q 183 278 222 264 q 113 330 143 293 q 64 428 82 367 q 46 583 46 489 q 66 767 46 690 q 122 892 86 843 q 209 963 158 940 q 321 986 260 986 q 416 974 374 986 q 489 947 458 963 l 489 36 m 375 875 q 349 884 367 879 q 304 889 332 889 q 199 815 235 889 q 163 594 163 742 q 174 473 163 519 q 203 401 185 426 q 246 365 222 375 q 293 356 269 356 q 334 360 310 356 q 375 375 358 364 l 375 875 m 689 36 q 677 3 689 11 q 629 -4 665 -4 q 603 -3 619 -4 q 575 3 588 -1 l 575 914 q 587 948 575 938 q 633 958 599 958 q 689 950 661 958 l 689 36 z "},"≠":{"ha":556,"x_min":35,"x_max":521,"o":"m 269 161 l 218 14 q 183 -10 211 -10 q 106 28 146 -10 l 151 161 l 35 161 q 38 237 35 214 q 58 260 40 260 l 186 260 l 242 419 l 35 419 q 38 495 35 472 q 58 518 40 518 l 275 518 l 331 676 q 372 704 342 704 q 447 668 407 704 l 394 518 l 521 518 q 518 442 521 465 q 499 419 515 419 l 360 419 l 304 260 l 521 260 q 518 184 521 207 q 499 161 515 161 l 269 161 z "},"∞":{"ha":842,"x_min":56,"x_max":786,"o":"m 56 360 q 65 439 56 401 q 97 505 75 476 q 156 549 119 533 q 244 565 192 565 q 357 531 315 565 q 428 450 399 497 q 501 531 460 496 q 607 565 543 565 q 737 514 688 565 q 786 363 786 463 q 742 212 786 260 q 626 157 699 164 q 601 156 614 156 q 576 158 589 157 q 484 194 525 164 q 415 271 443 224 q 338 194 381 226 q 238 161 294 161 q 101 216 147 161 q 56 360 56 271 m 168 361 q 188 294 168 324 q 250 265 207 265 q 316 292 288 265 q 369 357 344 318 l 367 361 q 332 417 353 393 q 281 447 311 442 q 232 449 254 453 q 182 413 196 440 q 168 361 168 386 m 519 415 q 500 390 510 404 q 479 361 490 376 q 499 326 489 343 q 522 294 510 308 q 551 272 535 281 q 586 264 567 264 q 651 290 626 264 q 675 364 675 315 q 658 424 675 400 q 614 454 642 449 q 576 453 596 458 q 542 440 554 450 q 519 415 531 431 z "},"±":{"ha":582,"x_min":47,"x_max":535,"o":"m 342 401 l 342 231 q 319 211 342 214 q 243 208 296 208 l 243 401 l 49 401 q 51 477 49 454 q 72 500 54 500 l 243 500 l 243 671 q 266 692 243 689 q 342 694 289 694 l 342 500 l 535 500 q 532 424 535 447 q 513 401 529 401 l 342 401 m 47 19 q 50 95 47 72 q 71 118 53 118 l 533 118 q 531 42 533 65 q 511 19 528 19 l 47 19 z "},"µ":{"ha":547,"x_min":61,"x_max":485,"o":"m 485 33 q 388 0 444 14 q 268 -14 331 -14 q 213 -6 236 -14 q 175 21 189 3 l 175 -226 q 156 -262 175 -253 q 111 -271 136 -271 q 85 -269 99 -271 q 61 -264 72 -267 l 61 653 q 74 689 61 676 q 119 701 88 701 q 146 700 131 701 q 175 694 161 699 l 175 182 q 201 113 175 133 q 271 93 226 93 q 327 99 303 93 q 371 113 351 104 l 371 653 q 382 689 371 676 q 426 701 393 701 q 454 700 438 701 q 485 694 471 699 l 485 33 z "},"∂":{"ha":590,"x_min":61,"x_max":549,"o":"m 283 707 q 406 667 358 707 q 328 840 379 767 q 194 981 278 913 q 231 1018 208 1004 q 276 1032 253 1032 q 319 1014 303 1032 q 491 772 433 919 q 549 401 549 625 q 540 242 549 318 q 505 110 531 167 q 433 19 479 53 q 311 -14 386 -14 q 201 6 249 -14 q 123 69 154 25 q 76 184 92 114 q 61 357 61 254 q 122 618 61 529 q 283 707 182 707 m 433 397 q 431 471 433 436 q 426 538 429 506 q 376 590 403 574 q 314 607 349 607 q 253 586 279 607 q 211 529 228 565 q 186 444 194 493 q 178 339 178 394 q 212 142 178 204 q 308 81 246 81 q 376 106 351 81 q 414 174 401 131 q 430 275 426 218 q 433 397 433 332 z "},"∑":{"ha":542,"x_min":65,"x_max":457,"o":"m 65 -264 l 272 296 l 67 972 l 444 972 q 449 953 447 964 q 450 931 450 942 q 442 885 450 906 q 419 865 435 865 l 221 865 l 389 288 l 217 -158 l 453 -158 q 457 -208 457 -186 q 422 -264 457 -264 l 65 -264 z "},"∏":{"ha":608,"x_min":42,"x_max":567,"o":"m 489 865 l 489 -226 q 467 -260 489 -251 q 426 -268 446 -268 q 403 -267 415 -268 q 375 -260 390 -265 l 375 865 l 225 865 l 225 -226 q 204 -259 225 -250 q 161 -268 183 -268 q 113 -260 133 -268 l 113 865 l 50 865 q 44 886 47 875 q 42 913 42 897 q 49 953 42 935 q 78 972 56 972 l 557 972 q 564 949 561 961 q 567 922 567 936 q 556 882 567 899 q 526 865 546 865 l 489 865 z "},"π":{"ha":608,"x_min":42,"x_max":567,"o":"m 489 588 l 489 35 q 467 3 489 11 q 426 -6 446 -6 q 403 -4 415 -6 q 375 1 390 -3 l 375 588 l 225 588 l 225 35 q 204 3 225 11 q 161 -6 183 -6 q 136 -4 149 -6 q 113 1 124 -3 l 113 588 l 50 588 q 44 608 47 597 q 42 635 42 619 q 49 676 42 657 q 78 694 56 694 l 557 694 q 564 671 561 683 q 567 644 567 658 q 556 604 567 621 q 526 588 546 588 l 489 588 z "},"∫":{"ha":649,"x_min":18,"x_max":631,"o":"m 268 783 q 290 915 268 867 q 345 987 311 963 q 420 1018 379 1011 q 501 1025 461 1025 q 603 1007 576 1025 q 631 964 631 989 q 627 935 631 949 q 618 906 624 921 q 567 919 592 917 q 519 922 543 922 q 467 919 492 922 q 423 902 442 915 q 392 863 404 889 q 381 793 381 838 l 381 -32 q 359 -162 381 -114 q 303 -234 338 -210 q 228 -265 269 -258 q 147 -272 186 -272 q 46 -255 74 -272 q 18 -211 18 -237 q 22 -183 18 -196 q 31 -154 25 -169 q 81 -168 57 -165 q 129 -171 106 -171 q 182 -167 157 -171 q 226 -151 207 -164 q 257 -112 246 -137 q 268 -40 268 -86 l 268 783 z "},"ª":{"ha":447,"x_min":56,"x_max":392,"o":"m 72 938 q 133 972 92 958 q 244 986 175 986 q 351 953 310 986 q 392 844 392 921 l 392 440 q 315 413 364 426 q 213 400 267 400 q 153 406 182 400 q 103 428 125 411 q 69 480 82 446 q 56 571 56 514 q 67 653 56 621 q 99 706 78 686 q 147 733 119 725 q 208 742 175 742 q 255 738 231 742 q 297 728 279 733 l 297 807 q 271 873 297 858 q 210 888 244 888 q 138 877 172 888 q 79 856 104 867 q 69 874 72 863 q 64 898 65 886 q 65 920 63 910 q 72 938 67 931 m 297 650 q 267 658 285 654 q 239 661 250 661 q 203 658 219 661 q 174 647 186 656 q 154 619 161 638 q 147 568 147 600 q 171 498 147 515 q 228 481 194 481 q 267 486 247 481 q 297 497 286 492 l 297 650 z "},"º":{"ha":469,"x_min":49,"x_max":421,"o":"m 49 693 q 101 917 49 849 q 242 986 154 986 q 321 973 288 986 q 376 927 354 960 q 410 838 399 894 q 421 696 421 782 q 372 473 421 544 q 229 401 322 401 q 152 415 186 401 q 95 460 118 428 q 60 549 72 493 q 49 693 49 606 m 144 686 q 150 590 144 628 q 166 532 156 553 q 193 503 176 511 q 231 494 210 494 q 300 540 275 494 q 325 693 325 585 q 319 789 325 751 q 303 848 314 826 q 278 878 293 869 q 242 886 263 886 q 200 876 218 886 q 169 843 182 867 q 151 781 157 819 q 144 686 144 743 z "},"Ω":{"ha":604,"x_min":49,"x_max":554,"o":"m 336 0 q 372 94 354 43 q 403 207 389 146 q 427 338 418 268 q 436 485 436 407 q 428 663 436 590 q 405 781 421 736 q 364 847 389 826 q 306 867 339 867 q 247 851 272 867 q 204 797 221 836 q 178 690 188 757 q 169 517 169 622 q 178 362 169 438 q 200 219 186 286 q 231 97 214 153 q 267 0 249 42 l 58 0 q 52 23 56 10 q 49 51 49 36 q 56 88 49 68 q 86 107 64 107 l 157 107 q 122 169 140 131 q 89 262 104 208 q 64 384 74 315 q 54 535 54 453 q 117 878 54 769 q 319 986 179 986 q 429 961 385 986 q 501 882 474 936 q 540 743 528 828 q 551 540 551 658 q 541 382 551 453 q 515 257 531 311 q 481 165 499 203 q 447 107 463 128 l 544 107 q 551 83 549 96 q 554 54 554 69 q 546 18 554 36 q 515 0 538 0 l 336 0 z "},"¬":{"ha":556,"x_min":47,"x_max":497,"o":"m 497 154 q 471 147 485 150 q 446 144 457 144 q 406 153 422 144 q 390 182 390 163 l 390 322 l 56 322 q 47 375 47 349 q 56 413 47 397 q 83 429 64 429 l 497 429 l 497 154 z "},"√":{"ha":650,"x_min":65,"x_max":622,"o":"m 65 303 q 94 322 76 315 q 131 329 113 329 q 163 322 149 329 q 179 297 176 314 l 264 -51 l 386 972 l 613 972 q 619 951 617 963 q 622 921 622 940 q 614 885 622 904 q 583 865 606 865 l 486 865 l 351 -215 q 324 -260 347 -249 q 272 -271 300 -271 q 235 -267 249 -271 q 207 -261 221 -264 l 65 303 z "},"ƒ":{"ha":649,"x_min":18,"x_max":631,"o":"m 381 596 l 381 -32 q 359 -162 381 -114 q 303 -234 338 -210 q 228 -265 269 -258 q 147 -272 186 -272 q 46 -255 74 -272 q 18 -211 18 -237 q 22 -183 18 -196 q 31 -154 25 -169 q 81 -168 57 -165 q 129 -171 106 -171 q 182 -167 157 -171 q 226 -151 207 -164 q 257 -112 246 -137 q 268 -40 268 -86 l 268 596 l 97 596 q 100 672 97 649 q 121 694 103 694 l 268 694 l 268 783 q 290 915 268 867 q 345 987 311 963 q 420 1018 379 1011 q 501 1025 461 1025 q 603 1007 576 1025 q 631 964 631 989 q 627 935 631 949 q 618 906 624 921 q 567 919 592 917 q 519 922 543 922 q 467 919 492 922 q 423 902 442 915 q 392 863 404 889 q 381 793 381 838 l 381 694 l 583 694 q 581 619 583 642 q 561 596 578 596 l 381 596 z "},"≈":{"ha":556,"x_min":21,"x_max":536,"o":"m 22 453 q 89 511 46 482 q 196 540 132 540 q 249 531 229 540 q 286 510 269 522 q 321 490 303 499 q 368 481 339 481 q 423 495 399 481 q 465 529 447 510 q 494 535 481 540 q 518 518 507 531 q 528 492 525 507 q 529 458 532 476 q 467 404 510 431 q 365 378 424 378 q 309 387 331 378 q 269 407 288 396 q 233 427 251 418 q 189 436 215 436 q 145 430 165 436 q 110 415 125 424 q 82 399 94 407 q 61 390 69 392 q 35 406 46 389 q 22 453 25 422 m 21 265 q 85 318 42 290 q 186 346 128 346 q 243 337 221 346 q 283 317 265 328 q 320 297 301 306 q 368 288 339 288 q 405 293 388 288 q 438 306 422 299 q 468 321 454 314 q 493 332 482 328 q 522 317 510 333 q 536 274 533 301 q 510 244 526 260 q 472 215 494 228 q 420 192 449 201 q 358 183 392 183 q 300 192 321 183 q 263 213 279 201 q 232 234 247 225 q 192 243 217 243 q 133 226 158 243 q 92 196 107 210 q 67 192 79 189 q 45 205 56 194 q 28 231 35 215 q 21 265 22 246 z "},"Δ":{"ha":593,"x_min":33,"x_max":567,"o":"m 229 906 q 242 942 233 928 q 263 965 251 957 q 285 975 274 972 q 307 978 297 978 q 344 972 331 978 q 367 960 358 967 l 567 0 l 33 0 l 229 906 m 161 107 l 443 107 l 304 819 l 299 819 l 161 107 z "}," ":{"ha":218,"x_min":0,"x_max":0,"o":""},"◊":{"ha":632,"x_min":40,"x_max":594,"o":"m 317 -8 l 40 485 l 317 979 l 594 485 l 317 -8 m 317 757 l 164 485 l 317 215 l 471 485 l 317 757 z "},"‡":{"ha":597,"x_min":42,"x_max":554,"o":"m 263 585 q 285 617 263 610 q 336 610 307 624 l 336 375 q 315 347 336 353 q 263 353 294 342 l 263 585 m 240 928 q 256 969 235 956 q 304 982 276 982 q 363 957 340 982 l 331 711 q 306 687 324 688 q 272 697 288 686 l 240 928 m 501 715 q 541 704 528 725 q 554 654 554 683 q 548 620 554 636 q 531 594 542 604 l 364 624 q 340 649 342 631 q 349 683 339 667 l 501 715 m 96 596 q 56 610 69 590 q 42 656 42 631 q 48 690 42 674 q 68 718 54 707 l 235 686 q 262 658 261 676 q 251 625 263 640 l 96 596 m 357 49 q 356 25 360 35 q 342 9 351 15 q 319 -1 332 3 q 293 -4 307 -4 q 261 2 276 -4 q 235 21 246 8 l 265 251 q 291 276 272 275 q 325 267 310 278 l 357 49 m 94 247 q 72 245 82 242 q 55 258 61 249 q 45 281 49 268 q 42 310 42 294 q 48 344 42 328 q 67 369 54 360 l 233 339 q 256 315 254 333 q 249 279 257 296 l 94 247 m 500 367 q 540 351 526 371 q 554 306 554 331 q 548 272 554 289 q 529 244 542 256 l 361 276 q 335 303 336 285 q 344 336 335 321 l 500 367 z "},"¯":{"ha":371,"x_min":0,"x_max":371,"o":"m 8 824 q 1 851 3 839 q 0 875 0 863 q 12 915 0 900 q 44 931 24 931 l 361 931 q 371 882 371 907 q 360 840 371 857 q 328 824 349 824 l 8 824 z "},"˘":{"ha":358,"x_min":0,"x_max":358,"o":"m 58 1004 q 74 969 64 989 q 98 933 83 950 q 131 906 113 917 q 174 894 150 894 q 214 903 197 894 q 242 925 231 911 q 263 955 254 939 q 279 986 272 971 q 300 1000 288 1000 q 324 992 313 1000 q 346 969 336 983 q 358 942 356 956 q 331 883 347 911 q 292 834 315 856 q 240 800 269 813 q 172 788 210 788 q 105 803 136 788 q 50 842 74 819 q 13 892 26 865 q 0 942 0 919 q 13 979 0 965 q 58 1004 26 993 z "},"˝":{"ha":444,"x_min":61,"x_max":378,"o":"m 172 1035 q 219 1065 182 1065 q 274 1040 250 1065 q 308 1054 288 1054 q 355 1033 333 1054 q 378 975 376 1013 l 214 790 q 189 781 204 781 q 149 799 167 781 q 117 783 136 783 q 85 793 101 783 q 61 822 68 803 l 172 1035 z "},"˛":{"ha":199,"x_min":0,"x_max":197,"o":"m 138 33 q 165 32 154 36 q 185 20 176 29 q 197 0 194 11 q 163 -26 181 -11 q 133 -60 146 -42 q 110 -99 119 -79 q 101 -139 101 -119 q 146 -189 101 -189 q 186 -178 168 -189 q 197 -221 197 -203 q 194 -242 197 -236 q 166 -264 188 -257 q 114 -271 144 -271 q 33 -245 65 -271 q 0 -153 0 -219 q 13 -86 0 -118 q 47 -28 26 -54 q 91 13 67 -3 q 138 33 115 29 z "},"≤":{"ha":572,"x_min":61,"x_max":510,"o":"m 208 404 l 507 269 q 490 208 506 233 q 456 182 474 182 q 440 185 449 182 q 418 192 431 188 l 79 342 q 61 408 61 374 q 69 444 61 428 q 97 469 78 460 l 464 647 q 493 610 483 631 q 503 572 503 589 q 483 539 503 547 l 208 404 m 68 0 q 71 76 68 53 q 90 99 74 99 l 510 99 q 507 23 510 46 q 488 0 504 0 l 68 0 z "},"≥":{"ha":568,"x_min":61,"x_max":507,"o":"m 360 424 l 61 557 q 78 619 63 593 q 111 644 94 644 q 150 635 126 644 l 489 485 q 507 419 507 453 q 469 358 507 376 l 104 179 q 75 217 85 197 q 64 254 65 238 q 83 289 64 279 l 360 424 m 68 0 q 71 76 68 53 q 92 99 74 99 l 504 99 q 501 23 504 46 q 482 0 499 0 l 68 0 z "},"ð":{"ha":590,"x_min":61,"x_max":549,"o":"m 439 876 q 521 671 493 788 q 549 401 549 554 q 540 242 549 318 q 505 110 531 167 q 433 19 479 53 q 311 -14 386 -14 q 201 6 249 -14 q 123 69 154 25 q 76 184 92 114 q 61 357 61 254 q 122 618 61 529 q 283 707 182 707 q 406 667 358 707 q 374 756 393 715 q 331 835 356 797 l 200 783 q 175 855 181 832 q 185 885 169 878 l 265 915 q 231 949 249 932 q 193 982 213 965 q 228 1019 206 1006 q 275 1033 251 1033 q 298 1029 286 1033 q 317 1015 310 1025 q 347 988 332 1001 q 376 958 363 974 l 472 996 q 497 925 492 947 q 488 896 503 903 l 439 876 m 433 397 q 431 471 433 436 q 426 538 429 506 q 376 590 403 574 q 314 607 349 607 q 253 586 279 607 q 211 529 228 565 q 186 444 194 493 q 178 339 178 394 q 212 142 178 204 q 308 81 246 81 q 376 106 351 81 q 414 174 401 131 q 430 275 426 218 q 433 397 433 332 z "},"þ":{"ha":532,"x_min":64,"x_max":493,"o":"m 176 697 q 221 704 199 701 q 267 707 243 707 q 360 694 318 707 q 431 648 401 681 q 477 559 461 615 q 493 417 493 503 q 472 193 493 278 q 418 63 450 108 q 349 1 386 17 q 282 -14 313 -14 q 218 -3 243 -14 q 176 22 193 7 l 176 -269 q 110 -278 149 -278 q 72 -269 81 -278 q 64 -231 64 -260 l 64 969 q 69 999 64 989 q 86 1015 74 1010 q 121 1020 99 1019 q 176 1021 143 1021 l 176 697 m 176 122 q 208 91 189 99 q 247 83 226 83 q 285 94 264 83 q 324 138 306 104 q 356 236 343 172 q 368 407 368 300 q 361 512 368 472 q 340 573 354 551 q 306 601 326 594 q 260 608 286 608 q 176 579 214 608 l 176 122 z "},"Þ":{"ha":500,"x_min":60,"x_max":476,"o":"m 60 944 q 75 968 60 964 q 138 972 90 972 l 172 972 l 172 799 l 221 799 q 415 734 353 799 q 476 524 476 669 q 456 380 476 438 q 401 287 436 322 q 319 236 365 251 q 221 221 272 221 l 172 221 l 172 22 q 170 9 172 14 q 157 2 168 4 q 123 0 146 0 q 60 0 100 0 l 60 944 m 351 538 q 327 656 351 611 q 242 700 303 700 q 194 699 211 700 q 172 697 178 699 l 172 328 q 183 327 175 328 q 201 326 192 326 q 220 326 211 326 q 233 325 229 325 q 322 373 292 325 q 351 538 351 421 z "},"!":{"ha":271,"x_min":58,"x_max":217,"o":"m 58 69 q 78 126 58 101 q 135 150 99 150 q 195 128 178 150 q 213 69 213 106 q 192 14 213 38 q 135 -10 171 -10 q 74 12 90 -10 q 58 69 58 33 m 63 947 q 68 966 63 960 q 90 976 74 972 q 138 980 107 979 q 217 981 168 981 l 194 350 q 188 320 193 331 q 169 305 182 310 q 135 299 156 300 q 82 297 114 297 l 63 947 z "},"ȷ":{"ha":256,"x_min":-142,"x_max":188,"o":"m 188 -50 q 180 -136 188 -96 q 153 -207 172 -176 q 97 -255 133 -237 q 6 -272 61 -272 q -107 -252 -72 -272 q -142 -199 -142 -232 q -138 -168 -142 -183 q -125 -140 -135 -153 q -8 -168 -78 -168 q 60 -137 44 -168 q 75 -32 75 -106 l 75 643 q 80 673 75 663 q 97 688 85 683 q 131 694 110 693 q 188 694 153 694 l 188 -50 z "},"\"":{"ha":367,"x_min":43,"x_max":325,"o":"m 125 814 q 114 813 124 813 q 93 811 104 813 q 63 810 79 810 q 60 834 63 813 q 54 885 57 856 q 49 949 51 915 q 44 1013 46 983 q 43 1063 43 1043 q 47 1086 43 1083 q 64 1090 53 1089 q 90 1092 75 1092 q 126 1091 108 1092 q 154 1088 143 1090 q 151 1013 154 1058 q 143 925 147 968 q 134 849 139 882 q 125 814 129 817 m 296 814 q 285 813 294 813 q 264 811 275 813 q 233 810 250 810 q 230 834 232 813 q 225 885 228 856 q 219 949 222 915 q 214 1013 215 983 q 213 1063 213 1043 q 217 1086 213 1083 q 234 1090 222 1089 q 261 1092 246 1092 q 297 1091 279 1092 q 325 1088 314 1090 q 322 1013 325 1058 q 314 925 318 968 q 305 849 310 882 q 296 814 300 817 z "}}}
